<?xml version="1.0" encoding="UTF-8" standalone="no"?>
<!DOCTYPE svg PUBLIC "-//W3C//DTD SVG 1.1//EN"
 "http://www.w3.org/Graphics/SVG/1.1/DTD/svg11.dtd">
<!-- Generated by graphviz version 2.43.0 (0)
 -->
<!-- Title: include/Ball.h Pages: 1 -->
<svg width="476pt" height="137pt"
 viewBox="0.00 0.00 476.00 137.00" xmlns="http://www.w3.org/2000/svg" xmlns:xlink="http://www.w3.org/1999/xlink">
<g id="graph0" class="graph" transform="scale(1 1) rotate(0) translate(4 133)">
<title>include/Ball.h</title>
<!-- Node1 -->
<g id="node1" class="node">
<title>Node1</title>
<g id="a_node1"><a xlink:title=" ">
<polygon fill="#999999" stroke="#666666" points="145.5,-129 62.5,-129 62.5,-110 145.5,-110 145.5,-129"/>
<text text-anchor="middle" x="104" y="-117" font-family="Helvetica,sans-Serif" font-size="10.00">include/Ball.h</text>
</a>
</g>
</g>
<!-- Node2 -->
<g id="node2" class="node">
<title>Node2</title>
<g id="a_node2"><a xlink:title=" ">
<polygon fill="#e0e0e0" stroke="#999999" points="50,-19 0,-19 0,0 50,0 50,-19"/>
<text text-anchor="middle" x="25" y="-7" font-family="Helvetica,sans-Serif" font-size="10.00">cstdint</text>
</a>
</g>
</g>
<!-- Node1&#45;&gt;Node2 -->
<g id="edge1" class="edge">
<title>Node1&#45;&gt;Node2</title>
<path fill="none" stroke="#63b8ff" d="M97.54,-109.66C84.39,-91.69 54.36,-50.64 37.35,-27.38"/>
<polygon fill="#63b8ff" stroke="#63b8ff" points="40.06,-25.16 31.33,-19.16 34.41,-29.3 40.06,-25.16"/>
</g>
<!-- Node3 -->
<g id="node3" class="node">
<title>Node3</title>
<g id="a_node3"><a xlink:title=" ">
<polygon fill="#e0e0e0" stroke="#999999" points="140,-19 68,-19 68,0 140,0 140,-19"/>
<text text-anchor="middle" x="104" y="-7" font-family="Helvetica,sans-Serif" font-size="10.00">SDL2/SDL.h</text>
</a>
</g>
</g>
<!-- Node1&#45;&gt;Node3 -->
<g id="edge2" class="edge">
<title>Node1&#45;&gt;Node3</title>
<path fill="none" stroke="#63b8ff" d="M104,-109.66C104,-92.17 104,-52.8 104,-29.27"/>
<polygon fill="#63b8ff" stroke="#63b8ff" points="107.5,-29.16 104,-19.16 100.5,-29.16 107.5,-29.16"/>
</g>
<!-- Node4 -->
<g id="node4" class="node">
<title>Node4</title>
<g id="a_node4"><a xlink:href="Circle_8h.html" target="_top" xlink:title=" ">
<polygon fill="white" stroke="#666666" points="237.5,-74 136.5,-74 136.5,-55 237.5,-55 237.5,-74"/>
<text text-anchor="middle" x="187" y="-62" font-family="Helvetica,sans-Serif" font-size="10.00">../include/Circle.h</text>
</a>
</g>
</g>
<!-- Node1&#45;&gt;Node4 -->
<g id="edge3" class="edge">
<title>Node1&#45;&gt;Node4</title>
<path fill="none" stroke="#63b8ff" d="M117.34,-109.98C130.09,-101.84 149.55,-89.41 164.67,-79.76"/>
<polygon fill="#63b8ff" stroke="#63b8ff" points="166.88,-82.5 173.42,-74.17 163.11,-76.6 166.88,-82.5"/>
</g>
<!-- Node4&#45;&gt;Node2 -->
<g id="edge5" class="edge">
<title>Node4&#45;&gt;Node2</title>
<path fill="none" stroke="#63b8ff" d="M160.97,-54.98C133.57,-46.02 90.28,-31.86 59.92,-21.92"/>
<polygon fill="#63b8ff" stroke="#63b8ff" points="60.76,-18.52 50.16,-18.73 58.58,-25.17 60.76,-18.52"/>
</g>
<!-- Node4&#45;&gt;Node3 -->
<g id="edge8" class="edge">
<title>Node4&#45;&gt;Node3</title>
<path fill="none" stroke="#63b8ff" d="M173.66,-54.98C160.91,-46.84 141.45,-34.41 126.33,-24.76"/>
<polygon fill="#63b8ff" stroke="#63b8ff" points="127.89,-21.6 117.58,-19.17 124.12,-27.5 127.89,-21.6"/>
</g>
<!-- Node5 -->
<g id="node5" class="node">
<title>Node5</title>
<g id="a_node5"><a xlink:title=" ">
<polygon fill="#e0e0e0" stroke="#999999" points="405.5,-19 360.5,-19 360.5,0 405.5,0 405.5,-19"/>
<text text-anchor="middle" x="383" y="-7" font-family="Helvetica,sans-Serif" font-size="10.00">utility</text>
</a>
</g>
</g>
<!-- Node4&#45;&gt;Node5 -->
<g id="edge4" class="edge">
<title>Node4&#45;&gt;Node5</title>
<path fill="none" stroke="#63b8ff" d="M218.49,-54.98C254.79,-45.17 314.15,-29.12 350.76,-19.22"/>
<polygon fill="#63b8ff" stroke="#63b8ff" points="351.71,-22.59 360.45,-16.6 349.88,-15.83 351.71,-22.59"/>
</g>
<!-- Node6 -->
<g id="node6" class="node">
<title>Node6</title>
<g id="a_node6"><a xlink:title=" ">
<polygon fill="#e0e0e0" stroke="#999999" points="468,-19 424,-19 424,0 468,0 468,-19"/>
<text text-anchor="middle" x="446" y="-7" font-family="Helvetica,sans-Serif" font-size="10.00">string</text>
</a>
</g>
</g>
<!-- Node4&#45;&gt;Node6 -->
<g id="edge6" class="edge">
<title>Node4&#45;&gt;Node6</title>
<path fill="none" stroke="#63b8ff" d="M236.6,-54.93C280.76,-47.04 347.34,-34.55 413.88,-19.13"/>
<polygon fill="#63b8ff" stroke="#63b8ff" points="414.76,-22.52 423.7,-16.83 413.17,-15.7 414.76,-22.52"/>
</g>
<!-- Node7 -->
<g id="node7" class="node">
<title>Node7</title>
<g id="a_node7"><a xlink:title=" ">
<polygon fill="#e0e0e0" stroke="#999999" points="216,-19 158,-19 158,0 216,0 216,-19"/>
<text text-anchor="middle" x="187" y="-7" font-family="Helvetica,sans-Serif" font-size="10.00">memory</text>
</a>
</g>
</g>
<!-- Node4&#45;&gt;Node7 -->
<g id="edge7" class="edge">
<title>Node4&#45;&gt;Node7</title>
<path fill="none" stroke="#63b8ff" d="M187,-54.75C187,-47.8 187,-37.85 187,-29.13"/>
<polygon fill="#63b8ff" stroke="#63b8ff" points="190.5,-29.09 187,-19.09 183.5,-29.09 190.5,-29.09"/>
</g>
<!-- Node8 -->
<g id="node8" class="node">
<title>Node8</title>
<g id="a_node8"><a xlink:title=" ">
<polygon fill="#e0e0e0" stroke="#999999" points="342,-19 234,-19 234,0 342,0 342,-19"/>
<text text-anchor="middle" x="288" y="-7" font-family="Helvetica,sans-Serif" font-size="10.00">SDL2/SDL_image.h</text>
</a>
</g>
</g>
<!-- Node4&#45;&gt;Node8 -->
<g id="edge9" class="edge">
<title>Node4&#45;&gt;Node8</title>
<path fill="none" stroke="#63b8ff" d="M203.23,-54.98C219.18,-46.61 243.78,-33.7 262.38,-23.95"/>
<polygon fill="#63b8ff" stroke="#63b8ff" points="264.25,-26.92 271.48,-19.17 261,-20.72 264.25,-26.92"/>
</g>
</g>
</svg>
