<?xml version="1.0" encoding="UTF-8" standalone="no"?>
<!DOCTYPE svg PUBLIC "-//W3C//DTD SVG 1.1//EN"
 "http://www.w3.org/Graphics/SVG/1.1/DTD/svg11.dtd">
<!-- Generated by graphviz version 2.43.0 (0)
 -->
<!-- Title: include/Brick.h Pages: 1 -->
<svg width="516pt" height="192pt"
 viewBox="0.00 0.00 516.00 192.00" xmlns="http://www.w3.org/2000/svg" xmlns:xlink="http://www.w3.org/1999/xlink">
<g id="graph0" class="graph" transform="scale(1 1) rotate(0) translate(4 188)">
<title>include/Brick.h</title>
<!-- Node1 -->
<g id="node1" class="node">
<title>Node1</title>
<g id="a_node1"><a xlink:title=" ">
<polygon fill="#999999" stroke="#666666" points="361.5,-184 272.5,-184 272.5,-165 361.5,-165 361.5,-184"/>
<text text-anchor="middle" x="317" y="-172" font-family="Helvetica,sans-Serif" font-size="10.00">include/Brick.h</text>
</a>
</g>
</g>
<!-- Node2 -->
<g id="node2" class="node">
<title>Node2</title>
<g id="a_node2"><a xlink:title=" ">
<polygon fill="#e0e0e0" stroke="#999999" points="72,-19 0,-19 0,0 72,0 72,-19"/>
<text text-anchor="middle" x="36" y="-7" font-family="Helvetica,sans-Serif" font-size="10.00">SDL2/SDL.h</text>
</a>
</g>
</g>
<!-- Node1&#45;&gt;Node2 -->
<g id="edge1" class="edge">
<title>Node1&#45;&gt;Node2</title>
<path fill="none" stroke="#63b8ff" d="M272.25,-165.37C241.8,-158.59 201.32,-147.07 169,-129 119.29,-101.2 72.26,-52.06 49.79,-26.68"/>
<polygon fill="#63b8ff" stroke="#63b8ff" points="52.35,-24.29 43.14,-19.05 47.07,-28.89 52.35,-24.29"/>
</g>
<!-- Node3 -->
<g id="node3" class="node">
<title>Node3</title>
<g id="a_node3"><a xlink:title=" ">
<polygon fill="#e0e0e0" stroke="#999999" points="148,-19 90,-19 90,0 148,0 148,-19"/>
<text text-anchor="middle" x="119" y="-7" font-family="Helvetica,sans-Serif" font-size="10.00">memory</text>
</a>
</g>
</g>
<!-- Node1&#45;&gt;Node3 -->
<g id="edge2" class="edge">
<title>Node1&#45;&gt;Node3</title>
<path fill="none" stroke="#63b8ff" d="M272.29,-165.31C246.66,-158.85 215.1,-147.69 192,-129 158.31,-101.73 135.99,-54.5 125.65,-28.67"/>
<polygon fill="#63b8ff" stroke="#63b8ff" points="128.8,-27.11 121.95,-19.03 122.27,-29.62 128.8,-27.11"/>
</g>
<!-- Node4 -->
<g id="node4" class="node">
<title>Node4</title>
<g id="a_node4"><a xlink:title=" ">
<polygon fill="#e0e0e0" stroke="#999999" points="451.5,-129 404.5,-129 404.5,-110 451.5,-110 451.5,-129"/>
<text text-anchor="middle" x="428" y="-117" font-family="Helvetica,sans-Serif" font-size="10.00">vector</text>
</a>
</g>
</g>
<!-- Node1&#45;&gt;Node4 -->
<g id="edge3" class="edge">
<title>Node1&#45;&gt;Node4</title>
<path fill="none" stroke="#63b8ff" d="M334.83,-164.98C352.61,-156.5 380.15,-143.35 400.68,-133.54"/>
<polygon fill="#63b8ff" stroke="#63b8ff" points="402.33,-136.64 409.84,-129.17 399.31,-130.32 402.33,-136.64"/>
</g>
<!-- Node5 -->
<g id="node5" class="node">
<title>Node5</title>
<g id="a_node5"><a xlink:title=" ">
<polygon fill="#e0e0e0" stroke="#999999" points="508,-129 470,-129 470,-110 508,-110 508,-129"/>
<text text-anchor="middle" x="489" y="-117" font-family="Helvetica,sans-Serif" font-size="10.00">map</text>
</a>
</g>
</g>
<!-- Node1&#45;&gt;Node5 -->
<g id="edge4" class="edge">
<title>Node1&#45;&gt;Node5</title>
<path fill="none" stroke="#63b8ff" d="M344.63,-164.98C376.34,-155.22 428.08,-139.27 460.25,-129.36"/>
<polygon fill="#63b8ff" stroke="#63b8ff" points="461.43,-132.66 469.95,-126.37 459.37,-125.97 461.43,-132.66"/>
</g>
<!-- Node6 -->
<g id="node6" class="node">
<title>Node6</title>
<g id="a_node6"><a xlink:title=" ">
<polygon fill="#e0e0e0" stroke="#999999" points="468,-19 418,-19 418,0 468,0 468,-19"/>
<text text-anchor="middle" x="443" y="-7" font-family="Helvetica,sans-Serif" font-size="10.00">cstdint</text>
</a>
</g>
</g>
<!-- Node1&#45;&gt;Node6 -->
<g id="edge5" class="edge">
<title>Node1&#45;&gt;Node6</title>
<path fill="none" stroke="#63b8ff" d="M323.77,-164.74C343.86,-138.76 403.32,-61.83 429.91,-27.44"/>
<polygon fill="#63b8ff" stroke="#63b8ff" points="432.85,-29.36 436.19,-19.31 427.31,-25.08 432.85,-29.36"/>
</g>
<!-- Node7 -->
<g id="node7" class="node">
<title>Node7</title>
<g id="a_node7"><a xlink:href="PowerUp_8h.html" target="_top" xlink:title=" ">
<polygon fill="white" stroke="#666666" points="317,-129 201,-129 201,-110 317,-110 317,-129"/>
<text text-anchor="middle" x="259" y="-117" font-family="Helvetica,sans-Serif" font-size="10.00">../include/PowerUp.h</text>
</a>
</g>
</g>
<!-- Node1&#45;&gt;Node7 -->
<g id="edge6" class="edge">
<title>Node1&#45;&gt;Node7</title>
<path fill="none" stroke="#63b8ff" d="M307.68,-164.98C299.19,-157.23 286.44,-145.58 276.12,-136.14"/>
<polygon fill="#63b8ff" stroke="#63b8ff" points="278.23,-133.33 268.49,-129.17 273.51,-138.5 278.23,-133.33"/>
</g>
<!-- Node7&#45;&gt;Node3 -->
<g id="edge9" class="edge">
<title>Node7&#45;&gt;Node3</title>
<path fill="none" stroke="#63b8ff" d="M243.5,-109.9C228.75,-101.45 206.16,-87.86 188,-74 168.53,-59.14 148.11,-39.81 134.58,-26.4"/>
<polygon fill="#63b8ff" stroke="#63b8ff" points="137.01,-23.88 127.47,-19.27 132.05,-28.82 137.01,-23.88"/>
</g>
<!-- Node7&#45;&gt;Node6 -->
<g id="edge7" class="edge">
<title>Node7&#45;&gt;Node6</title>
<path fill="none" stroke="#63b8ff" d="M272.53,-109.86C292.1,-97.43 329.51,-73.93 362,-55 380.54,-44.2 401.82,-32.54 417.91,-23.86"/>
<polygon fill="#63b8ff" stroke="#63b8ff" points="419.57,-26.94 426.73,-19.13 416.26,-20.78 419.57,-26.94"/>
</g>
<!-- Node8 -->
<g id="node8" class="node">
<title>Node8</title>
<g id="a_node8"><a xlink:title=" ">
<polygon fill="#e0e0e0" stroke="#999999" points="210,-19 166,-19 166,0 210,0 210,-19"/>
<text text-anchor="middle" x="188" y="-7" font-family="Helvetica,sans-Serif" font-size="10.00">string</text>
</a>
</g>
</g>
<!-- Node7&#45;&gt;Node8 -->
<g id="edge8" class="edge">
<title>Node7&#45;&gt;Node8</title>
<path fill="none" stroke="#63b8ff" d="M241.07,-110C227.3,-102.5 209,-90.23 199,-74 190.74,-60.59 188.24,-42.73 187.66,-29.36"/>
<polygon fill="#63b8ff" stroke="#63b8ff" points="191.15,-28.97 187.55,-19 184.16,-29.04 191.15,-28.97"/>
</g>
<!-- Node9 -->
<g id="node9" class="node">
<title>Node9</title>
<g id="a_node9"><a xlink:href="Circle_8h.html" target="_top" xlink:title=" ">
<polygon fill="white" stroke="#666666" points="309.5,-74 208.5,-74 208.5,-55 309.5,-55 309.5,-74"/>
<text text-anchor="middle" x="259" y="-62" font-family="Helvetica,sans-Serif" font-size="10.00">../include/Circle.h</text>
</a>
</g>
</g>
<!-- Node7&#45;&gt;Node9 -->
<g id="edge10" class="edge">
<title>Node7&#45;&gt;Node9</title>
<path fill="none" stroke="#63b8ff" d="M259,-109.75C259,-102.8 259,-92.85 259,-84.13"/>
<polygon fill="#63b8ff" stroke="#63b8ff" points="262.5,-84.09 259,-74.09 255.5,-84.09 262.5,-84.09"/>
</g>
<!-- Node9&#45;&gt;Node2 -->
<g id="edge15" class="edge">
<title>Node9&#45;&gt;Node2</title>
<path fill="none" stroke="#63b8ff" d="M223.17,-54.98C184.84,-45.87 123.92,-31.4 82.05,-21.45"/>
<polygon fill="#63b8ff" stroke="#63b8ff" points="82.65,-17.99 72.11,-19.08 81.03,-24.8 82.65,-17.99"/>
</g>
<!-- Node9&#45;&gt;Node3 -->
<g id="edge14" class="edge">
<title>Node9&#45;&gt;Node3</title>
<path fill="none" stroke="#63b8ff" d="M236.51,-54.98C213.48,-46.27 177.46,-32.63 151.37,-22.75"/>
<polygon fill="#63b8ff" stroke="#63b8ff" points="152.49,-19.44 141.9,-19.17 150.02,-25.98 152.49,-19.44"/>
</g>
<!-- Node9&#45;&gt;Node6 -->
<g id="edge12" class="edge">
<title>Node9&#45;&gt;Node6</title>
<path fill="none" stroke="#63b8ff" d="M288.56,-54.98C321.2,-45.58 373.69,-30.46 408.27,-20.51"/>
<polygon fill="#63b8ff" stroke="#63b8ff" points="409.3,-23.85 417.94,-17.72 407.37,-17.12 409.3,-23.85"/>
</g>
<!-- Node9&#45;&gt;Node8 -->
<g id="edge13" class="edge">
<title>Node9&#45;&gt;Node8</title>
<path fill="none" stroke="#63b8ff" d="M247.59,-54.98C236.89,-47 220.66,-34.88 207.84,-25.31"/>
<polygon fill="#63b8ff" stroke="#63b8ff" points="209.72,-22.35 199.61,-19.17 205.53,-27.96 209.72,-22.35"/>
</g>
<!-- Node10 -->
<g id="node10" class="node">
<title>Node10</title>
<g id="a_node10"><a xlink:title=" ">
<polygon fill="#e0e0e0" stroke="#999999" points="273.5,-19 228.5,-19 228.5,0 273.5,0 273.5,-19"/>
<text text-anchor="middle" x="251" y="-7" font-family="Helvetica,sans-Serif" font-size="10.00">utility</text>
</a>
</g>
</g>
<!-- Node9&#45;&gt;Node10 -->
<g id="edge11" class="edge">
<title>Node9&#45;&gt;Node10</title>
<path fill="none" stroke="#63b8ff" d="M257.68,-54.75C256.63,-47.8 255.13,-37.85 253.81,-29.13"/>
<polygon fill="#63b8ff" stroke="#63b8ff" points="257.25,-28.45 252.3,-19.09 250.33,-29.5 257.25,-28.45"/>
</g>
<!-- Node11 -->
<g id="node11" class="node">
<title>Node11</title>
<g id="a_node11"><a xlink:title=" ">
<polygon fill="#e0e0e0" stroke="#999999" points="400,-19 292,-19 292,0 400,0 400,-19"/>
<text text-anchor="middle" x="346" y="-7" font-family="Helvetica,sans-Serif" font-size="10.00">SDL2/SDL_image.h</text>
</a>
</g>
</g>
<!-- Node9&#45;&gt;Node11 -->
<g id="edge16" class="edge">
<title>Node9&#45;&gt;Node11</title>
<path fill="none" stroke="#63b8ff" d="M272.98,-54.98C286.47,-46.77 307.13,-34.18 323.04,-24.49"/>
<polygon fill="#63b8ff" stroke="#63b8ff" points="325.05,-27.36 331.77,-19.17 321.41,-21.38 325.05,-27.36"/>
</g>
</g>
</svg>
