<?xml version="1.0" encoding="UTF-8" standalone="no"?>
<!DOCTYPE svg PUBLIC "-//W3C//DTD SVG 1.1//EN"
 "http://www.w3.org/Graphics/SVG/1.1/DTD/svg11.dtd">
<!-- Generated by graphviz version 2.43.0 (0)
 -->
<!-- Title: include/BrickBreaker.h Pages: 1 -->
<svg width="875pt" height="247pt"
 viewBox="0.00 0.00 874.91 247.00" xmlns="http://www.w3.org/2000/svg" xmlns:xlink="http://www.w3.org/1999/xlink">
<g id="graph0" class="graph" transform="scale(1 1) rotate(0) translate(4 243)">
<title>include/BrickBreaker.h</title>
<!-- Node1 -->
<g id="node1" class="node">
<title>Node1</title>
<g id="a_node1"><a xlink:title=" ">
<polygon fill="#999999" stroke="#666666" points="609.91,-239 484.91,-239 484.91,-220 609.91,-220 609.91,-239"/>
<text text-anchor="middle" x="547.41" y="-227" font-family="Helvetica,sans-Serif" font-size="10.00">include/BrickBreaker.h</text>
</a>
</g>
</g>
<!-- Node2 -->
<g id="node2" class="node">
<title>Node2</title>
<g id="a_node2"><a xlink:href="SDLComponent_8h.html" target="_top" xlink:title=" ">
<polygon fill="white" stroke="#666666" points="174.41,-129 26.41,-129 26.41,-110 174.41,-110 174.41,-129"/>
<text text-anchor="middle" x="100.41" y="-117" font-family="Helvetica,sans-Serif" font-size="10.00">../include/SDLComponent.h</text>
</a>
</g>
</g>
<!-- Node1&#45;&gt;Node2 -->
<g id="edge1" class="edge">
<title>Node1&#45;&gt;Node2</title>
<path fill="none" stroke="#63b8ff" d="M484.89,-227.5C415.96,-224.75 302.61,-215.32 210.41,-184 176.43,-172.46 141.2,-149.93 120.04,-135.04"/>
<polygon fill="#63b8ff" stroke="#63b8ff" points="122.04,-132.17 111.88,-129.19 117.96,-137.86 122.04,-132.17"/>
</g>
<!-- Node4 -->
<g id="node4" class="node">
<title>Node4</title>
<g id="a_node4"><a xlink:title=" ">
<polygon fill="#e0e0e0" stroke="#999999" points="130.41,-19 72.41,-19 72.41,0 130.41,0 130.41,-19"/>
<text text-anchor="middle" x="101.41" y="-7" font-family="Helvetica,sans-Serif" font-size="10.00">memory</text>
</a>
</g>
</g>
<!-- Node1&#45;&gt;Node4 -->
<g id="edge35" class="edge">
<title>Node1&#45;&gt;Node4</title>
<path fill="none" stroke="#63b8ff" d="M484.53,-227.35C353.83,-223.41 60.36,-206 5.41,-129 -6.57,-112.21 4.36,-74.34 19.41,-55 30.7,-40.5 48.09,-30.11 63.95,-23.04"/>
<polygon fill="#63b8ff" stroke="#63b8ff" points="65.66,-26.12 73.56,-19.06 62.99,-19.65 65.66,-26.12"/>
</g>
<!-- Node9 -->
<g id="node9" class="node">
<title>Node9</title>
<g id="a_node9"><a xlink:href="Brick_8h.html" target="_top" xlink:title=" ">
<polygon fill="white" stroke="#666666" points="558.41,-184 460.41,-184 460.41,-165 558.41,-165 558.41,-184"/>
<text text-anchor="middle" x="509.41" y="-172" font-family="Helvetica,sans-Serif" font-size="10.00">../include/Brick.h</text>
</a>
</g>
</g>
<!-- Node1&#45;&gt;Node9 -->
<g id="edge10" class="edge">
<title>Node1&#45;&gt;Node9</title>
<path fill="none" stroke="#63b8ff" d="M541.14,-219.75C535.82,-212.34 528.06,-201.5 521.54,-192.41"/>
<polygon fill="#63b8ff" stroke="#63b8ff" points="524.24,-190.18 515.57,-184.09 518.55,-194.26 524.24,-190.18"/>
</g>
<!-- Node10 -->
<g id="node10" class="node">
<title>Node10</title>
<g id="a_node10"><a xlink:title=" ">
<polygon fill="#e0e0e0" stroke="#999999" points="866.91,-129 819.91,-129 819.91,-110 866.91,-110 866.91,-129"/>
<text text-anchor="middle" x="843.41" y="-117" font-family="Helvetica,sans-Serif" font-size="10.00">vector</text>
</a>
</g>
</g>
<!-- Node1&#45;&gt;Node10 -->
<g id="edge36" class="edge">
<title>Node1&#45;&gt;Node10</title>
<path fill="none" stroke="#63b8ff" d="M559.23,-219.99C580.95,-204.48 626.61,-172.52 644.41,-165 644.41,-165 753.13,-140.69 809.85,-128"/>
<polygon fill="#63b8ff" stroke="#63b8ff" points="810.81,-131.38 819.8,-125.78 809.28,-124.55 810.81,-131.38"/>
</g>
<!-- Node15 -->
<g id="node15" class="node">
<title>Node15</title>
<g id="a_node15"><a xlink:href="Ball_8h.html" target="_top" xlink:title=" ">
<polygon fill="white" stroke="#666666" points="763.41,-129 671.41,-129 671.41,-110 763.41,-110 763.41,-129"/>
<text text-anchor="middle" x="717.41" y="-117" font-family="Helvetica,sans-Serif" font-size="10.00">../include/Ball.h</text>
</a>
</g>
</g>
<!-- Node1&#45;&gt;Node15 -->
<g id="edge27" class="edge">
<title>Node1&#45;&gt;Node15</title>
<path fill="none" stroke="#63b8ff" d="M554.28,-219.6C565.01,-206.21 586.95,-180.77 610.41,-165 631.46,-150.86 657.72,-139.85 678.95,-132.33"/>
<polygon fill="#63b8ff" stroke="#63b8ff" points="680.3,-135.56 688.62,-129.01 678.03,-128.94 680.3,-135.56"/>
</g>
<!-- Node16 -->
<g id="node16" class="node">
<title>Node16</title>
<g id="a_node16"><a xlink:href="Platform_8h.html" target="_top" xlink:title=" ">
<polygon fill="white" stroke="#666666" points="244.91,-74 129.91,-74 129.91,-55 244.91,-55 244.91,-74"/>
<text text-anchor="middle" x="187.41" y="-62" font-family="Helvetica,sans-Serif" font-size="10.00">../include/Platform.h</text>
</a>
</g>
</g>
<!-- Node1&#45;&gt;Node16 -->
<g id="edge31" class="edge">
<title>Node1&#45;&gt;Node16</title>
<path fill="none" stroke="#63b8ff" d="M528.56,-219.97C469.29,-193.13 286.41,-110.32 215.71,-78.31"/>
<polygon fill="#63b8ff" stroke="#63b8ff" points="217.06,-75.08 206.51,-74.15 214.17,-81.46 217.06,-75.08"/>
</g>
<!-- Node17 -->
<g id="node17" class="node">
<title>Node17</title>
<g id="a_node17"><a xlink:title=" ">
<polygon fill="#e0e0e0" stroke="#999999" points="707.91,-184 652.91,-184 652.91,-165 707.91,-165 707.91,-184"/>
<text text-anchor="middle" x="680.41" y="-172" font-family="Helvetica,sans-Serif" font-size="10.00">fstream</text>
</a>
</g>
</g>
<!-- Node1&#45;&gt;Node17 -->
<g id="edge37" class="edge">
<title>Node1&#45;&gt;Node17</title>
<path fill="none" stroke="#63b8ff" d="M568.78,-219.98C590.56,-211.3 624.57,-197.75 649.33,-187.88"/>
<polygon fill="#63b8ff" stroke="#63b8ff" points="650.66,-191.12 658.65,-184.17 648.07,-184.62 650.66,-191.12"/>
</g>
<!-- Node18 -->
<g id="node18" class="node">
<title>Node18</title>
<g id="a_node18"><a xlink:title=" ">
<polygon fill="#e0e0e0" stroke="#999999" points="814.41,-184 726.41,-184 726.41,-165 814.41,-165 814.41,-184"/>
<text text-anchor="middle" x="770.41" y="-172" font-family="Helvetica,sans-Serif" font-size="10.00">SDL2/SDL_ttf.h</text>
</a>
</g>
</g>
<!-- Node1&#45;&gt;Node18 -->
<g id="edge38" class="edge">
<title>Node1&#45;&gt;Node18</title>
<path fill="none" stroke="#63b8ff" d="M583.24,-219.98C621.57,-210.87 682.49,-196.4 724.36,-186.45"/>
<polygon fill="#63b8ff" stroke="#63b8ff" points="725.38,-189.8 734.3,-184.08 723.76,-182.99 725.38,-189.8"/>
</g>
<!-- Node3 -->
<g id="node3" class="node">
<title>Node3</title>
<g id="a_node3"><a xlink:title=" ">
<polygon fill="#e0e0e0" stroke="#999999" points="328.41,-19 256.41,-19 256.41,0 328.41,0 328.41,-19"/>
<text text-anchor="middle" x="292.41" y="-7" font-family="Helvetica,sans-Serif" font-size="10.00">SDL2/SDL.h</text>
</a>
</g>
</g>
<!-- Node2&#45;&gt;Node3 -->
<g id="edge2" class="edge">
<title>Node2&#45;&gt;Node3</title>
<path fill="none" stroke="#63b8ff" d="M100.61,-109.73C101.4,-96.04 104.99,-69.64 120.41,-55 154.05,-23.07 207.51,-13.3 245.9,-10.67"/>
<polygon fill="#63b8ff" stroke="#63b8ff" points="246.51,-14.14 256.3,-10.1 246.13,-7.15 246.51,-14.14"/>
</g>
<!-- Node2&#45;&gt;Node4 -->
<g id="edge3" class="edge">
<title>Node2&#45;&gt;Node4</title>
<path fill="none" stroke="#63b8ff" d="M84.58,-109.81C66.07,-98.41 39.18,-77.22 49.41,-55 55.16,-42.52 66.32,-32.24 76.83,-24.71"/>
<polygon fill="#63b8ff" stroke="#63b8ff" points="78.98,-27.49 85.38,-19.05 75.11,-21.65 78.98,-27.49"/>
</g>
<!-- Node5 -->
<g id="node5" class="node">
<title>Node5</title>
<g id="a_node5"><a xlink:href="TextureManager_8h.html" target="_top" xlink:title=" ">
<polygon fill="white" stroke="#666666" points="490.91,-74 339.91,-74 339.91,-55 490.91,-55 490.91,-74"/>
<text text-anchor="middle" x="415.41" y="-62" font-family="Helvetica,sans-Serif" font-size="10.00">../include/TextureManager.h</text>
</a>
</g>
</g>
<!-- Node2&#45;&gt;Node5 -->
<g id="edge4" class="edge">
<title>Node2&#45;&gt;Node5</title>
<path fill="none" stroke="#63b8ff" d="M151.02,-109.98C206.51,-100.65 295.5,-85.67 354.7,-75.71"/>
<polygon fill="#63b8ff" stroke="#63b8ff" points="355.38,-79.15 364.67,-74.04 354.22,-72.25 355.38,-79.15"/>
</g>
<!-- Node5&#45;&gt;Node3 -->
<g id="edge5" class="edge">
<title>Node5&#45;&gt;Node3</title>
<path fill="none" stroke="#63b8ff" d="M395.65,-54.98C375.68,-46.38 344.61,-32.99 321.76,-23.15"/>
<polygon fill="#63b8ff" stroke="#63b8ff" points="323.1,-19.91 312.53,-19.17 320.33,-26.34 323.1,-19.91"/>
</g>
<!-- Node5&#45;&gt;Node4 -->
<g id="edge9" class="edge">
<title>Node5&#45;&gt;Node4</title>
<path fill="none" stroke="#63b8ff" d="M364.96,-54.98C302.45,-44.43 197.28,-26.68 140.54,-17.1"/>
<polygon fill="#63b8ff" stroke="#63b8ff" points="140.97,-13.63 130.53,-15.41 139.8,-20.53 140.97,-13.63"/>
</g>
<!-- Node6 -->
<g id="node6" class="node">
<title>Node6</title>
<g id="a_node6"><a xlink:title=" ">
<polygon fill="#e0e0e0" stroke="#999999" points="622.41,-19 514.41,-19 514.41,0 622.41,0 622.41,-19"/>
<text text-anchor="middle" x="568.41" y="-7" font-family="Helvetica,sans-Serif" font-size="10.00">SDL2/SDL_image.h</text>
</a>
</g>
</g>
<!-- Node5&#45;&gt;Node6 -->
<g id="edge6" class="edge">
<title>Node5&#45;&gt;Node6</title>
<path fill="none" stroke="#63b8ff" d="M439.99,-54.98C465.46,-46.16 505.45,-32.31 534.04,-22.41"/>
<polygon fill="#63b8ff" stroke="#63b8ff" points="535.33,-25.66 543.64,-19.08 533.04,-19.05 535.33,-25.66"/>
</g>
<!-- Node7 -->
<g id="node7" class="node">
<title>Node7</title>
<g id="a_node7"><a xlink:title=" ">
<polygon fill="#e0e0e0" stroke="#999999" points="434.41,-19 396.41,-19 396.41,0 434.41,0 434.41,-19"/>
<text text-anchor="middle" x="415.41" y="-7" font-family="Helvetica,sans-Serif" font-size="10.00">map</text>
</a>
</g>
</g>
<!-- Node5&#45;&gt;Node7 -->
<g id="edge7" class="edge">
<title>Node5&#45;&gt;Node7</title>
<path fill="none" stroke="#63b8ff" d="M415.41,-54.75C415.41,-47.8 415.41,-37.85 415.41,-29.13"/>
<polygon fill="#63b8ff" stroke="#63b8ff" points="418.91,-29.09 415.41,-19.09 411.91,-29.09 418.91,-29.09"/>
</g>
<!-- Node8 -->
<g id="node8" class="node">
<title>Node8</title>
<g id="a_node8"><a xlink:title=" ">
<polygon fill="#e0e0e0" stroke="#999999" points="496.41,-19 452.41,-19 452.41,0 496.41,0 496.41,-19"/>
<text text-anchor="middle" x="474.41" y="-7" font-family="Helvetica,sans-Serif" font-size="10.00">string</text>
</a>
</g>
</g>
<!-- Node5&#45;&gt;Node8 -->
<g id="edge8" class="edge">
<title>Node5&#45;&gt;Node8</title>
<path fill="none" stroke="#63b8ff" d="M424.89,-54.98C433.61,-47.15 446.75,-35.34 457.31,-25.86"/>
<polygon fill="#63b8ff" stroke="#63b8ff" points="459.66,-28.46 464.76,-19.17 454.98,-23.25 459.66,-28.46"/>
</g>
<!-- Node9&#45;&gt;Node3 -->
<g id="edge11" class="edge">
<title>Node9&#45;&gt;Node3</title>
<path fill="none" stroke="#63b8ff" d="M471.08,-164.91C425.42,-152.65 350.1,-125.66 308.41,-74 298.26,-61.42 294.45,-43.23 293.07,-29.53"/>
<polygon fill="#63b8ff" stroke="#63b8ff" points="296.54,-29.06 292.39,-19.31 289.56,-29.52 296.54,-29.06"/>
</g>
<!-- Node9&#45;&gt;Node4 -->
<g id="edge12" class="edge">
<title>Node9&#45;&gt;Node4</title>
<path fill="none" stroke="#63b8ff" d="M460.41,-172.73C341.82,-170.38 46.91,-161.29 17.41,-129 -14.13,-94.48 44.09,-47.79 78.59,-24.68"/>
<polygon fill="#63b8ff" stroke="#63b8ff" points="80.72,-27.47 87.19,-19.07 76.9,-21.6 80.72,-27.47"/>
</g>
<!-- Node9&#45;&gt;Node7 -->
<g id="edge14" class="edge">
<title>Node9&#45;&gt;Node7</title>
<path fill="none" stroke="#63b8ff" d="M511.37,-164.86C515.6,-144 523.44,-89.98 500.41,-55 493.59,-44.64 465.93,-31.27 443.99,-21.9"/>
<polygon fill="#63b8ff" stroke="#63b8ff" points="445.29,-18.65 434.71,-18.03 442.59,-25.11 445.29,-18.65"/>
</g>
<!-- Node9&#45;&gt;Node10 -->
<g id="edge13" class="edge">
<title>Node9&#45;&gt;Node10</title>
<path fill="none" stroke="#63b8ff" d="M558.56,-167.2C617.43,-159.39 718.95,-145.15 805.41,-129 806.86,-128.73 808.35,-128.44 809.84,-128.14"/>
<polygon fill="#63b8ff" stroke="#63b8ff" points="810.68,-131.54 819.75,-126.07 809.24,-124.69 810.68,-131.54"/>
</g>
<!-- Node11 -->
<g id="node11" class="node">
<title>Node11</title>
<g id="a_node11"><a xlink:title=" ">
<polygon fill="#e0e0e0" stroke="#999999" points="766.41,-19 716.41,-19 716.41,0 766.41,0 766.41,-19"/>
<text text-anchor="middle" x="741.41" y="-7" font-family="Helvetica,sans-Serif" font-size="10.00">cstdint</text>
</a>
</g>
</g>
<!-- Node9&#45;&gt;Node11 -->
<g id="edge15" class="edge">
<title>Node9&#45;&gt;Node11</title>
<path fill="none" stroke="#63b8ff" d="M558.63,-168.59C630.92,-160.88 758.77,-145.14 772.41,-129 797.35,-99.49 771.27,-52.18 754.03,-27.2"/>
<polygon fill="#63b8ff" stroke="#63b8ff" points="756.88,-25.15 748.19,-19.08 751.19,-29.24 756.88,-25.15"/>
</g>
<!-- Node12 -->
<g id="node12" class="node">
<title>Node12</title>
<g id="a_node12"><a xlink:href="PowerUp_8h.html" target="_top" xlink:title=" ">
<polygon fill="white" stroke="#666666" points="653.41,-129 537.41,-129 537.41,-110 653.41,-110 653.41,-129"/>
<text text-anchor="middle" x="595.41" y="-117" font-family="Helvetica,sans-Serif" font-size="10.00">../include/PowerUp.h</text>
</a>
</g>
</g>
<!-- Node9&#45;&gt;Node12 -->
<g id="edge16" class="edge">
<title>Node9&#45;&gt;Node12</title>
<path fill="none" stroke="#63b8ff" d="M523.23,-164.98C536.56,-156.77 556.99,-144.18 572.72,-134.49"/>
<polygon fill="#63b8ff" stroke="#63b8ff" points="574.66,-137.4 581.34,-129.17 570.99,-131.44 574.66,-137.4"/>
</g>
<!-- Node12&#45;&gt;Node4 -->
<g id="edge19" class="edge">
<title>Node12&#45;&gt;Node4</title>
<path fill="none" stroke="#63b8ff" d="M537.29,-116.65C417.58,-112.34 152.04,-99.93 120.41,-74 107.35,-63.29 103.02,-43.99 101.7,-29.47"/>
<polygon fill="#63b8ff" stroke="#63b8ff" points="105.18,-28.92 101.18,-19.1 98.19,-29.27 105.18,-28.92"/>
</g>
<!-- Node12&#45;&gt;Node8 -->
<g id="edge18" class="edge">
<title>Node12&#45;&gt;Node8</title>
<path fill="none" stroke="#63b8ff" d="M587.77,-109.88C576.42,-97.27 554.23,-73.32 533.41,-55 521.29,-44.33 506.82,-33.39 495.24,-25.03"/>
<polygon fill="#63b8ff" stroke="#63b8ff" points="497.21,-22.14 487.04,-19.18 493.15,-27.84 497.21,-22.14"/>
</g>
<!-- Node12&#45;&gt;Node11 -->
<g id="edge17" class="edge">
<title>Node12&#45;&gt;Node11</title>
<path fill="none" stroke="#63b8ff" d="M625.57,-109.97C646.97,-102.85 675.48,-91.09 696.41,-74 711.91,-61.35 724.53,-42.09 732.42,-28.1"/>
<polygon fill="#63b8ff" stroke="#63b8ff" points="735.65,-29.48 737.3,-19.01 729.49,-26.16 735.65,-29.48"/>
</g>
<!-- Node13 -->
<g id="node13" class="node">
<title>Node13</title>
<g id="a_node13"><a xlink:href="Circle_8h.html" target="_top" xlink:title=" ">
<polygon fill="white" stroke="#666666" points="686.91,-74 585.91,-74 585.91,-55 686.91,-55 686.91,-74"/>
<text text-anchor="middle" x="636.41" y="-62" font-family="Helvetica,sans-Serif" font-size="10.00">../include/Circle.h</text>
</a>
</g>
</g>
<!-- Node12&#45;&gt;Node13 -->
<g id="edge20" class="edge">
<title>Node12&#45;&gt;Node13</title>
<path fill="none" stroke="#63b8ff" d="M602.18,-109.75C607.97,-102.26 616.47,-91.28 623.55,-82.13"/>
<polygon fill="#63b8ff" stroke="#63b8ff" points="626.42,-84.14 629.77,-74.09 620.88,-79.86 626.42,-84.14"/>
</g>
<!-- Node13&#45;&gt;Node3 -->
<g id="edge25" class="edge">
<title>Node13&#45;&gt;Node3</title>
<path fill="none" stroke="#63b8ff" d="M585.65,-55.68C519.09,-45.42 403.23,-27.57 338.87,-17.66"/>
<polygon fill="#63b8ff" stroke="#63b8ff" points="339.03,-14.14 328.61,-16.08 337.97,-21.06 339.03,-14.14"/>
</g>
<!-- Node13&#45;&gt;Node4 -->
<g id="edge24" class="edge">
<title>Node13&#45;&gt;Node4</title>
<path fill="none" stroke="#63b8ff" d="M585.6,-58.47C479.38,-47.94 235.82,-23.82 140.59,-14.38"/>
<polygon fill="#63b8ff" stroke="#63b8ff" points="140.82,-10.89 130.52,-13.38 140.13,-17.85 140.82,-10.89"/>
</g>
<!-- Node13&#45;&gt;Node6 -->
<g id="edge26" class="edge">
<title>Node13&#45;&gt;Node6</title>
<path fill="none" stroke="#63b8ff" d="M625.49,-54.98C615.33,-47.07 599.99,-35.11 587.76,-25.58"/>
<polygon fill="#63b8ff" stroke="#63b8ff" points="589.57,-22.56 579.53,-19.17 585.27,-28.08 589.57,-22.56"/>
</g>
<!-- Node13&#45;&gt;Node8 -->
<g id="edge23" class="edge">
<title>Node13&#45;&gt;Node8</title>
<path fill="none" stroke="#63b8ff" d="M610.38,-54.98C582.1,-45.73 536.88,-30.94 506.44,-20.98"/>
<polygon fill="#63b8ff" stroke="#63b8ff" points="507.32,-17.58 496.72,-17.8 505.14,-24.24 507.32,-17.58"/>
</g>
<!-- Node13&#45;&gt;Node11 -->
<g id="edge22" class="edge">
<title>Node13&#45;&gt;Node11</title>
<path fill="none" stroke="#63b8ff" d="M653.28,-54.98C670.02,-46.54 695.91,-33.47 715.3,-23.68"/>
<polygon fill="#63b8ff" stroke="#63b8ff" points="716.88,-26.8 724.23,-19.17 713.73,-20.55 716.88,-26.8"/>
</g>
<!-- Node14 -->
<g id="node14" class="node">
<title>Node14</title>
<g id="a_node14"><a xlink:title=" ">
<polygon fill="#e0e0e0" stroke="#999999" points="685.91,-19 640.91,-19 640.91,0 685.91,0 685.91,-19"/>
<text text-anchor="middle" x="663.41" y="-7" font-family="Helvetica,sans-Serif" font-size="10.00">utility</text>
</a>
</g>
</g>
<!-- Node13&#45;&gt;Node14 -->
<g id="edge21" class="edge">
<title>Node13&#45;&gt;Node14</title>
<path fill="none" stroke="#63b8ff" d="M640.87,-54.75C644.53,-47.57 649.82,-37.18 654.36,-28.27"/>
<polygon fill="#63b8ff" stroke="#63b8ff" points="657.61,-29.59 659.04,-19.09 651.38,-26.41 657.61,-29.59"/>
</g>
<!-- Node15&#45;&gt;Node3 -->
<g id="edge29" class="edge">
<title>Node15&#45;&gt;Node3</title>
<path fill="none" stroke="#63b8ff" d="M671.22,-111.21C668.24,-110.78 665.28,-110.38 662.41,-110 588.83,-100.33 392.9,-114.03 330.41,-74 314.22,-63.63 303.97,-43.68 298.25,-28.9"/>
<polygon fill="#63b8ff" stroke="#63b8ff" points="301.48,-27.53 294.87,-19.26 294.88,-29.85 301.48,-27.53"/>
</g>
<!-- Node15&#45;&gt;Node11 -->
<g id="edge28" class="edge">
<title>Node15&#45;&gt;Node11</title>
<path fill="none" stroke="#63b8ff" d="M720,-109.68C722.58,-100.74 726.55,-86.48 729.41,-74 732.82,-59.1 736,-42.06 738.23,-29.39"/>
<polygon fill="#63b8ff" stroke="#63b8ff" points="741.74,-29.62 739.99,-19.17 734.84,-28.43 741.74,-29.62"/>
</g>
<!-- Node15&#45;&gt;Node13 -->
<g id="edge30" class="edge">
<title>Node15&#45;&gt;Node13</title>
<path fill="none" stroke="#63b8ff" d="M704.4,-109.98C691.95,-101.84 672.96,-89.41 658.2,-79.76"/>
<polygon fill="#63b8ff" stroke="#63b8ff" points="659.95,-76.72 649.66,-74.17 656.11,-82.57 659.95,-76.72"/>
</g>
<!-- Node16&#45;&gt;Node3 -->
<g id="edge32" class="edge">
<title>Node16&#45;&gt;Node3</title>
<path fill="none" stroke="#63b8ff" d="M204.28,-54.98C221.02,-46.54 246.91,-33.47 266.3,-23.68"/>
<polygon fill="#63b8ff" stroke="#63b8ff" points="267.88,-26.8 275.23,-19.17 264.73,-20.55 267.88,-26.8"/>
</g>
<!-- Node16&#45;&gt;Node4 -->
<g id="edge33" class="edge">
<title>Node16&#45;&gt;Node4</title>
<path fill="none" stroke="#63b8ff" d="M173.59,-54.98C160.26,-46.77 139.83,-34.18 124.11,-24.49"/>
<polygon fill="#63b8ff" stroke="#63b8ff" points="125.83,-21.44 115.48,-19.17 122.16,-27.4 125.83,-21.44"/>
</g>
<!-- Node16&#45;&gt;Node8 -->
<g id="edge34" class="edge">
<title>Node16&#45;&gt;Node8</title>
<path fill="none" stroke="#63b8ff" d="M244.91,-55.11C294.76,-47.48 369.01,-35.24 442.26,-19.08"/>
<polygon fill="#63b8ff" stroke="#63b8ff" points="443.13,-22.48 452.12,-16.88 441.6,-15.65 443.13,-22.48"/>
</g>
</g>
</svg>
