<?xml version="1.0" encoding="UTF-8" standalone="no"?>
<!DOCTYPE svg PUBLIC "-//W3C//DTD SVG 1.1//EN"
 "http://www.w3.org/Graphics/SVG/1.1/DTD/svg11.dtd">
<!-- Generated by graphviz version 2.43.0 (0)
 -->
<!-- Title: include/BrickBreakerMenu.h Pages: 1 -->
<!--zoomable 302 -->
<svg id="main" version="1.1" xmlns="http://www.w3.org/2000/svg" xmlns:xlink="http://www.w3.org/1999/xlink" xml:space="preserve" onload="init(evt)">
<style type="text/css"><![CDATA[
.edge:hover path { stroke: red; }
.edge:hover polygon { stroke: red; fill: red; }
]]></style>
<script type="text/javascript"><![CDATA[
var edges = document.getElementsByTagName('g');
if (edges && edges.length) {
  for (var i=0;i<edges.length;i++) {
    if (edges[i].id.substr(0,4)=='edge') {
      edges[i].setAttribute('class','edge');
    }
  }
}
]]></script>
        <defs>
                <circle id="rim" cx="0" cy="0" r="7"/>
                <circle id="rim2" cx="0" cy="0" r="3.5"/>
                <g id="zoomPlus">
                        <use xlink:href="#rim" fill="#404040">
                                <set attributeName="fill" to="#808080" begin="zoomplus.mouseover" end="zoomplus.mouseout"/>
                        </use>
                        <path d="M-4,0h8M0,-4v8" fill="none" stroke="white" stroke-width="1.5" pointer-events="none"/>
                </g>
                <g id="zoomMin">
                        <use xlink:href="#rim" fill="#404040">
                                <set attributeName="fill" to="#808080" begin="zoomminus.mouseover" end="zoomminus.mouseout"/>
                        </use>
                        <path d="M-4,0h8" fill="none" stroke="white" stroke-width="1.5" pointer-events="none"/>
                </g>
                <g id="dirArrow">
                        <path fill="none" stroke="white" stroke-width="1.5" d="M0,-3.0v7 M-2.5,-0.5L0,-3.0L2.5,-0.5"/>
                </g>
               <g id="resetDef">
                       <use xlink:href="#rim2" fill="#404040">
                               <set attributeName="fill" to="#808080" begin="reset.mouseover" end="reset.mouseout"/>
                       </use>
               </g>
        </defs>

<script type="text/javascript">
var viewWidth = 951;
var viewHeight = 302;
var sectionId = 'dynsection-0';
</script>
<script xlink:href="svgpan.js"/>
<svg id="graph" class="graph">
<g id="viewport">
<title>include/BrickBreakerMenu.h</title>
<!-- Node1 -->
<g id="node1" class="node">
<title>Node1</title>
<g id="a_node1"><a xlink:title=" ">
<polygon fill="#999999" stroke="#666666" points="759.5,-294 606.5,-294 606.5,-275 759.5,-275 759.5,-294"/>
<text text-anchor="middle" x="683" y="-282" font-family="Helvetica,sans-Serif" font-size="10.00">include/BrickBreakerMenu.h</text>
</a>
</g>
</g>
<!-- Node2 -->
<g id="node2" class="node">
<title>Node2</title>
<g id="a_node2"><a xlink:href="SDLComponent_8h.html" target="_top" xlink:title=" ">
<polygon fill="white" stroke="#666666" points="286,-129 138,-129 138,-110 286,-110 286,-129"/>
<text text-anchor="middle" x="212" y="-117" font-family="Helvetica,sans-Serif" font-size="10.00">../include/SDLComponent.h</text>
</a>
</g>
</g>
<!-- Node1&#45;&gt;Node2 -->
<g id="edge1" class="edge">
<title>Node1&#45;&gt;Node2</title>
<path fill="none" stroke="#63b8ff" d="M643.96,-274.95C579.25,-260.17 446.25,-227.24 339,-184 302.1,-169.12 261.26,-147.77 236.1,-134.01"/>
<polygon fill="#63b8ff" stroke="#63b8ff" points="237.72,-130.91 227.27,-129.14 234.34,-137.04 237.72,-130.91"/>
</g>
<!-- Node8 -->
<g id="node8" class="node">
<title>Node8</title>
<g id="a_node8"><a xlink:title=" ">
<polygon fill="#e0e0e0" stroke="#999999" points="383,-19 339,-19 339,0 383,0 383,-19"/>
<text text-anchor="middle" x="361" y="-7" font-family="Helvetica,sans-Serif" font-size="10.00">string</text>
</a>
</g>
</g>
<!-- Node1&#45;&gt;Node8 -->
<g id="edge42" class="edge">
<title>Node1&#45;&gt;Node8</title>
<path fill="none" stroke="#63b8ff" d="M613.73,-274.97C477.99,-256.64 185.31,-208.57 129,-129 75.96,-54.05 252.95,-23.45 328.48,-14"/>
<polygon fill="#63b8ff" stroke="#63b8ff" points="329.34,-17.42 338.85,-12.75 328.51,-10.47 329.34,-17.42"/>
</g>
<!-- Node9 -->
<g id="node9" class="node">
<title>Node9</title>
<g id="a_node9"><a xlink:href="BrickBreaker_8h.html" target="_top" xlink:title=" ">
<polygon fill="white" stroke="#666666" points="658,-239 524,-239 524,-220 658,-220 658,-239"/>
<text text-anchor="middle" x="591" y="-227" font-family="Helvetica,sans-Serif" font-size="10.00">../include/BrickBreaker.h</text>
</a>
</g>
</g>
<!-- Node1&#45;&gt;Node9 -->
<g id="edge10" class="edge">
<title>Node1&#45;&gt;Node9</title>
<path fill="none" stroke="#63b8ff" d="M668.22,-274.98C653.82,-266.69 631.69,-253.94 614.81,-244.22"/>
<polygon fill="#63b8ff" stroke="#63b8ff" points="616.46,-241.13 606.05,-239.17 612.97,-247.19 616.46,-241.13"/>
</g>
<!-- Node11 -->
<g id="node11" class="node">
<title>Node11</title>
<g id="a_node11"><a xlink:title=" ">
<polygon fill="#e0e0e0" stroke="#999999" points="911.5,-129 864.5,-129 864.5,-110 911.5,-110 911.5,-129"/>
<text text-anchor="middle" x="888" y="-117" font-family="Helvetica,sans-Serif" font-size="10.00">vector</text>
</a>
</g>
</g>
<!-- Node1&#45;&gt;Node11 -->
<g id="edge41" class="edge">
<title>Node1&#45;&gt;Node11</title>
<path fill="none" stroke="#63b8ff" d="M697.73,-274.84C724.78,-258.63 783.69,-221.9 828,-184 845.02,-169.44 862.37,-150.55 874,-137.17"/>
<polygon fill="#63b8ff" stroke="#63b8ff" points="876.92,-139.15 880.76,-129.27 871.6,-134.6 876.92,-139.15"/>
</g>
<!-- Node19 -->
<g id="node19" class="node">
<title>Node19</title>
<g id="a_node19"><a xlink:title=" ">
<polygon fill="#e0e0e0" stroke="#999999" points="819,-184 731,-184 731,-165 819,-165 819,-184"/>
<text text-anchor="middle" x="775" y="-172" font-family="Helvetica,sans-Serif" font-size="10.00">SDL2/SDL_ttf.h</text>
</a>
</g>
</g>
<!-- Node1&#45;&gt;Node19 -->
<g id="edge44" class="edge">
<title>Node1&#45;&gt;Node19</title>
<path fill="none" stroke="#63b8ff" d="M690.53,-274.66C705.9,-256.61 741.12,-215.28 760.88,-192.08"/>
<polygon fill="#63b8ff" stroke="#63b8ff" points="763.8,-194.04 767.62,-184.16 758.48,-189.5 763.8,-194.04"/>
</g>
<!-- Node20 -->
<g id="node20" class="node">
<title>Node20</title>
<g id="a_node20"><a xlink:title=" ">
<polygon fill="#e0e0e0" stroke="#999999" points="943,-239 875,-239 875,-220 943,-220 943,-239"/>
<text text-anchor="middle" x="909" y="-227" font-family="Helvetica,sans-Serif" font-size="10.00">filesystem</text>
</a>
</g>
</g>
<!-- Node1&#45;&gt;Node20 -->
<g id="edge43" class="edge">
<title>Node1&#45;&gt;Node20</title>
<path fill="none" stroke="#63b8ff" d="M719.31,-274.98C759.05,-265.67 822.74,-250.73 865.21,-240.77"/>
<polygon fill="#63b8ff" stroke="#63b8ff" points="866.06,-244.16 875,-238.47 864.46,-237.35 866.06,-244.16"/>
</g>
<!-- Node3 -->
<g id="node3" class="node">
<title>Node3</title>
<g id="a_node3"><a xlink:title=" ">
<polygon fill="#e0e0e0" stroke="#999999" points="599,-19 527,-19 527,0 599,0 599,-19"/>
<text text-anchor="middle" x="563" y="-7" font-family="Helvetica,sans-Serif" font-size="10.00">SDL2/SDL.h</text>
</a>
</g>
</g>
<!-- Node2&#45;&gt;Node3 -->
<g id="edge2" class="edge">
<title>Node2&#45;&gt;Node3</title>
<path fill="none" stroke="#63b8ff" d="M286.22,-113.79C338.55,-108.53 409.47,-97.42 468,-74 497.44,-62.22 527.15,-40.39 545.32,-25.66"/>
<polygon fill="#63b8ff" stroke="#63b8ff" points="547.8,-28.15 553.26,-19.07 543.33,-22.76 547.8,-28.15"/>
</g>
<!-- Node4 -->
<g id="node4" class="node">
<title>Node4</title>
<g id="a_node4"><a xlink:title=" ">
<polygon fill="#e0e0e0" stroke="#999999" points="176,-19 118,-19 118,0 176,0 176,-19"/>
<text text-anchor="middle" x="147" y="-7" font-family="Helvetica,sans-Serif" font-size="10.00">memory</text>
</a>
</g>
</g>
<!-- Node2&#45;&gt;Node4 -->
<g id="edge3" class="edge">
<title>Node2&#45;&gt;Node4</title>
<path fill="none" stroke="#63b8ff" d="M151.42,-109.92C129.96,-103.65 107.95,-92.79 95,-74 82.71,-56.18 103.33,-37.14 122.12,-24.61"/>
<polygon fill="#63b8ff" stroke="#63b8ff" points="124.16,-27.46 130.77,-19.18 120.44,-21.53 124.16,-27.46"/>
</g>
<!-- Node5 -->
<g id="node5" class="node">
<title>Node5</title>
<g id="a_node5"><a xlink:href="TextureManager_8h.html" target="_top" xlink:title=" ">
<polygon fill="white" stroke="#666666" points="326.5,-74 175.5,-74 175.5,-55 326.5,-55 326.5,-74"/>
<text text-anchor="middle" x="251" y="-62" font-family="Helvetica,sans-Serif" font-size="10.00">../include/TextureManager.h</text>
</a>
</g>
</g>
<!-- Node2&#45;&gt;Node5 -->
<g id="edge4" class="edge">
<title>Node2&#45;&gt;Node5</title>
<path fill="none" stroke="#63b8ff" d="M218.44,-109.75C223.89,-102.34 231.86,-91.5 238.56,-82.41"/>
<polygon fill="#63b8ff" stroke="#63b8ff" points="241.57,-84.22 244.68,-74.09 235.93,-80.07 241.57,-84.22"/>
</g>
<!-- Node5&#45;&gt;Node3 -->
<g id="edge5" class="edge">
<title>Node5&#45;&gt;Node3</title>
<path fill="none" stroke="#63b8ff" d="M304.25,-54.97C355.97,-46.61 436.99,-33.31 516.47,-19.24"/>
<polygon fill="#63b8ff" stroke="#63b8ff" points="517.43,-22.63 526.66,-17.43 516.21,-15.73 517.43,-22.63"/>
</g>
<!-- Node5&#45;&gt;Node4 -->
<g id="edge9" class="edge">
<title>Node5&#45;&gt;Node4</title>
<path fill="none" stroke="#63b8ff" d="M234.29,-54.98C217.79,-46.57 192.3,-33.59 173.12,-23.81"/>
<polygon fill="#63b8ff" stroke="#63b8ff" points="174.51,-20.59 164.01,-19.17 171.33,-26.83 174.51,-20.59"/>
</g>
<!-- Node6 -->
<g id="node6" class="node">
<title>Node6</title>
<g id="a_node6"><a xlink:title=" ">
<polygon fill="#e0e0e0" stroke="#999999" points="509,-19 401,-19 401,0 509,0 509,-19"/>
<text text-anchor="middle" x="455" y="-7" font-family="Helvetica,sans-Serif" font-size="10.00">SDL2/SDL_image.h</text>
</a>
</g>
</g>
<!-- Node5&#45;&gt;Node6 -->
<g id="edge6" class="edge">
<title>Node5&#45;&gt;Node6</title>
<path fill="none" stroke="#63b8ff" d="M283.78,-54.98C318.62,-45.93 373.87,-31.58 412.14,-21.64"/>
<polygon fill="#63b8ff" stroke="#63b8ff" points="413.17,-24.98 421.97,-19.08 411.41,-18.21 413.17,-24.98"/>
</g>
<!-- Node7 -->
<g id="node7" class="node">
<title>Node7</title>
<g id="a_node7"><a xlink:title=" ">
<polygon fill="#e0e0e0" stroke="#999999" points="38,-19 0,-19 0,0 38,0 38,-19"/>
<text text-anchor="middle" x="19" y="-7" font-family="Helvetica,sans-Serif" font-size="10.00">map</text>
</a>
</g>
</g>
<!-- Node5&#45;&gt;Node7 -->
<g id="edge7" class="edge">
<title>Node5&#45;&gt;Node7</title>
<path fill="none" stroke="#63b8ff" d="M213.73,-54.98C167.56,-44.44 89.88,-26.69 47.95,-17.11"/>
<polygon fill="#63b8ff" stroke="#63b8ff" points="48.62,-13.68 38.09,-14.86 47.06,-20.5 48.62,-13.68"/>
</g>
<!-- Node5&#45;&gt;Node8 -->
<g id="edge8" class="edge">
<title>Node5&#45;&gt;Node8</title>
<path fill="none" stroke="#63b8ff" d="M268.67,-54.98C286.29,-46.5 313.58,-33.35 333.93,-23.54"/>
<polygon fill="#63b8ff" stroke="#63b8ff" points="335.52,-26.66 343.01,-19.17 332.48,-20.36 335.52,-26.66"/>
</g>
<!-- Node9&#45;&gt;Node2 -->
<g id="edge11" class="edge">
<title>Node9&#45;&gt;Node2</title>
<path fill="none" stroke="#63b8ff" d="M548.97,-219.93C510.07,-211.71 450.76,-198.45 400,-184 344.88,-168.31 282.01,-146.2 244.73,-132.63"/>
<polygon fill="#63b8ff" stroke="#63b8ff" points="245.52,-129.19 234.93,-129.05 243.12,-135.77 245.52,-129.19"/>
</g>
<!-- Node9&#45;&gt;Node4 -->
<g id="edge37" class="edge">
<title>Node9&#45;&gt;Node4</title>
<path fill="none" stroke="#63b8ff" d="M523.8,-229.19C428.13,-227.03 250.78,-211.1 129,-129 97.82,-107.98 71.23,-88.65 88,-55 94.57,-41.82 107.1,-31.52 118.93,-24.16"/>
<polygon fill="#63b8ff" stroke="#63b8ff" points="120.8,-27.12 127.73,-19.1 117.32,-21.05 120.8,-27.12"/>
</g>
<!-- Node10 -->
<g id="node10" class="node">
<title>Node10</title>
<g id="a_node10"><a xlink:href="Brick_8h.html" target="_top" xlink:title=" ">
<polygon fill="white" stroke="#666666" points="563,-184 465,-184 465,-165 563,-165 563,-184"/>
<text text-anchor="middle" x="514" y="-172" font-family="Helvetica,sans-Serif" font-size="10.00">../include/Brick.h</text>
</a>
</g>
</g>
<!-- Node9&#45;&gt;Node10 -->
<g id="edge12" class="edge">
<title>Node9&#45;&gt;Node10</title>
<path fill="none" stroke="#63b8ff" d="M578.63,-219.98C566.91,-211.92 549.08,-199.65 535.11,-190.03"/>
<polygon fill="#63b8ff" stroke="#63b8ff" points="536.82,-186.96 526.6,-184.17 532.85,-192.72 536.82,-186.96"/>
</g>
<!-- Node9&#45;&gt;Node11 -->
<g id="edge38" class="edge">
<title>Node9&#45;&gt;Node11</title>
<path fill="none" stroke="#63b8ff" d="M609.22,-219.9C628,-211 658.11,-196.66 684,-184 700.96,-175.7 704.35,-171.7 722,-165 746.11,-155.85 813.34,-138.77 854.47,-128.64"/>
<polygon fill="#63b8ff" stroke="#63b8ff" points="855.44,-132 864.32,-126.22 853.78,-125.2 855.44,-132"/>
</g>
<!-- Node16 -->
<g id="node16" class="node">
<title>Node16</title>
<g id="a_node16"><a xlink:href="Ball_8h.html" target="_top" xlink:title=" ">
<polygon fill="white" stroke="#666666" points="808,-129 716,-129 716,-110 808,-110 808,-129"/>
<text text-anchor="middle" x="762" y="-117" font-family="Helvetica,sans-Serif" font-size="10.00">../include/Ball.h</text>
</a>
</g>
</g>
<!-- Node9&#45;&gt;Node16 -->
<g id="edge29" class="edge">
<title>Node9&#45;&gt;Node16</title>
<path fill="none" stroke="#63b8ff" d="M591.1,-219.8C591.74,-206.2 594.98,-179.93 610,-165 623.78,-151.3 668.7,-139.16 706.15,-131.03"/>
<polygon fill="#63b8ff" stroke="#63b8ff" points="706.93,-134.45 715.99,-128.96 705.48,-127.6 706.93,-134.45"/>
</g>
<!-- Node17 -->
<g id="node17" class="node">
<title>Node17</title>
<g id="a_node17"><a xlink:href="Platform_8h.html" target="_top" xlink:title=" ">
<polygon fill="white" stroke="#666666" points="459.5,-74 344.5,-74 344.5,-55 459.5,-55 459.5,-74"/>
<text text-anchor="middle" x="402" y="-62" font-family="Helvetica,sans-Serif" font-size="10.00">../include/Platform.h</text>
</a>
</g>
</g>
<!-- Node9&#45;&gt;Node17 -->
<g id="edge33" class="edge">
<title>Node9&#45;&gt;Node17</title>
<path fill="none" stroke="#63b8ff" d="M531.81,-219.95C506.01,-213.66 476.95,-202.78 456,-184 425.94,-157.05 411.54,-110.04 405.58,-84.07"/>
<polygon fill="#63b8ff" stroke="#63b8ff" points="408.96,-83.11 403.47,-74.05 402.11,-84.56 408.96,-83.11"/>
</g>
<!-- Node18 -->
<g id="node18" class="node">
<title>Node18</title>
<g id="a_node18"><a xlink:title=" ">
<polygon fill="#e0e0e0" stroke="#999999" points="674.5,-184 619.5,-184 619.5,-165 674.5,-165 674.5,-184"/>
<text text-anchor="middle" x="647" y="-172" font-family="Helvetica,sans-Serif" font-size="10.00">fstream</text>
</a>
</g>
</g>
<!-- Node9&#45;&gt;Node18 -->
<g id="edge39" class="edge">
<title>Node9&#45;&gt;Node18</title>
<path fill="none" stroke="#63b8ff" d="M600,-219.98C608.19,-212.23 620.51,-200.58 630.47,-191.14"/>
<polygon fill="#63b8ff" stroke="#63b8ff" points="632.98,-193.59 637.84,-184.17 628.17,-188.5 632.98,-193.59"/>
</g>
<!-- Node9&#45;&gt;Node19 -->
<g id="edge40" class="edge">
<title>Node9&#45;&gt;Node19</title>
<path fill="none" stroke="#63b8ff" d="M620.56,-219.98C651.72,-211.01 700.97,-196.82 735.46,-186.89"/>
<polygon fill="#63b8ff" stroke="#63b8ff" points="736.57,-190.21 745.21,-184.08 734.63,-183.49 736.57,-190.21"/>
</g>
<!-- Node10&#45;&gt;Node3 -->
<g id="edge13" class="edge">
<title>Node10&#45;&gt;Node3</title>
<path fill="none" stroke="#63b8ff" d="M541.85,-164.93C578.32,-151.99 640.51,-123.53 665,-74 678.7,-46.29 642.37,-29.39 609.34,-20.06"/>
<polygon fill="#63b8ff" stroke="#63b8ff" points="609.81,-16.57 599.25,-17.41 608.03,-23.34 609.81,-16.57"/>
</g>
<!-- Node10&#45;&gt;Node4 -->
<g id="edge14" class="edge">
<title>Node10&#45;&gt;Node4</title>
<path fill="none" stroke="#63b8ff" d="M485.75,-164.93C444.13,-152.38 363.81,-128.51 295,-110 230.88,-92.75 192.13,-125.32 150,-74 139.83,-61.61 140.23,-42.85 142.48,-28.93"/>
<polygon fill="#63b8ff" stroke="#63b8ff" points="145.94,-29.52 144.52,-19.02 139.08,-28.11 145.94,-29.52"/>
</g>
<!-- Node10&#45;&gt;Node7 -->
<g id="edge16" class="edge">
<title>Node10&#45;&gt;Node7</title>
<path fill="none" stroke="#63b8ff" d="M464.65,-172.02C374.37,-168.62 186.62,-158.19 129,-129 83.06,-105.73 46.47,-54.95 29.42,-28.04"/>
<polygon fill="#63b8ff" stroke="#63b8ff" points="32.27,-25.99 24.05,-19.31 26.31,-29.66 32.27,-25.99"/>
</g>
<!-- Node10&#45;&gt;Node11 -->
<g id="edge15" class="edge">
<title>Node10&#45;&gt;Node11</title>
<path fill="none" stroke="#63b8ff" d="M563.18,-168.37C628.83,-161.2 748.61,-147.02 850,-129 851.46,-128.74 852.94,-128.46 854.44,-128.18"/>
<polygon fill="#63b8ff" stroke="#63b8ff" points="855.26,-131.58 864.35,-126.13 853.85,-124.72 855.26,-131.58"/>
</g>
<!-- Node12 -->
<g id="node12" class="node">
<title>Node12</title>
<g id="a_node12"><a xlink:title=" ">
<polygon fill="#e0e0e0" stroke="#999999" points="766,-19 716,-19 716,0 766,0 766,-19"/>
<text text-anchor="middle" x="741" y="-7" font-family="Helvetica,sans-Serif" font-size="10.00">cstdint</text>
</a>
</g>
</g>
<!-- Node10&#45;&gt;Node12 -->
<g id="edge17" class="edge">
<title>Node10&#45;&gt;Node12</title>
<path fill="none" stroke="#63b8ff" d="M563.05,-167.98C646.69,-158.34 808.77,-138.53 817,-129 846.5,-94.85 793.91,-48.32 762.3,-25.03"/>
<polygon fill="#63b8ff" stroke="#63b8ff" points="764.19,-22.08 754.03,-19.11 760.12,-27.77 764.19,-22.08"/>
</g>
<!-- Node13 -->
<g id="node13" class="node">
<title>Node13</title>
<g id="a_node13"><a xlink:href="PowerUp_8h.html" target="_top" xlink:title=" ">
<polygon fill="white" stroke="#666666" points="584,-129 468,-129 468,-110 584,-110 584,-129"/>
<text text-anchor="middle" x="526" y="-117" font-family="Helvetica,sans-Serif" font-size="10.00">../include/PowerUp.h</text>
</a>
</g>
</g>
<!-- Node10&#45;&gt;Node13 -->
<g id="edge18" class="edge">
<title>Node10&#45;&gt;Node13</title>
<path fill="none" stroke="#63b8ff" d="M515.98,-164.75C517.57,-157.72 519.86,-147.62 521.85,-138.84"/>
<polygon fill="#63b8ff" stroke="#63b8ff" points="525.26,-139.62 524.06,-129.09 518.43,-138.07 525.26,-139.62"/>
</g>
<!-- Node13&#45;&gt;Node4 -->
<g id="edge21" class="edge">
<title>Node13&#45;&gt;Node4</title>
<path fill="none" stroke="#63b8ff" d="M467.7,-114.77C371.67,-108.11 188.58,-93.08 166,-74 153.1,-63.1 148.75,-43.83 147.38,-29.36"/>
<polygon fill="#63b8ff" stroke="#63b8ff" points="150.86,-28.84 146.82,-19.05 143.87,-29.22 150.86,-28.84"/>
</g>
<!-- Node13&#45;&gt;Node8 -->
<g id="edge20" class="edge">
<title>Node13&#45;&gt;Node8</title>
<path fill="none" stroke="#63b8ff" d="M519.84,-109.57C510.17,-96.13 490.24,-70.62 468,-55 445.01,-38.85 415.28,-27.08 392.98,-19.72"/>
<polygon fill="#63b8ff" stroke="#63b8ff" points="393.91,-16.34 383.32,-16.64 391.79,-23.01 393.91,-16.34"/>
</g>
<!-- Node13&#45;&gt;Node12 -->
<g id="edge19" class="edge">
<title>Node13&#45;&gt;Node12</title>
<path fill="none" stroke="#63b8ff" d="M566.3,-109.98C594.99,-102.89 633.81,-91.16 665,-74 688.39,-61.13 711.36,-40.52 725.82,-26.29"/>
<polygon fill="#63b8ff" stroke="#63b8ff" points="728.37,-28.69 732.92,-19.12 723.4,-23.76 728.37,-28.69"/>
</g>
<!-- Node14 -->
<g id="node14" class="node">
<title>Node14</title>
<g id="a_node14"><a xlink:href="Circle_8h.html" target="_top" xlink:title=" ">
<polygon fill="white" stroke="#666666" points="655.5,-74 554.5,-74 554.5,-55 655.5,-55 655.5,-74"/>
<text text-anchor="middle" x="605" y="-62" font-family="Helvetica,sans-Serif" font-size="10.00">../include/Circle.h</text>
</a>
</g>
</g>
<!-- Node13&#45;&gt;Node14 -->
<g id="edge22" class="edge">
<title>Node13&#45;&gt;Node14</title>
<path fill="none" stroke="#63b8ff" d="M538.69,-109.98C550.83,-101.84 569.36,-89.41 583.75,-79.76"/>
<polygon fill="#63b8ff" stroke="#63b8ff" points="585.72,-82.65 592.08,-74.17 581.82,-76.84 585.72,-82.65"/>
</g>
<!-- Node14&#45;&gt;Node3 -->
<g id="edge27" class="edge">
<title>Node14&#45;&gt;Node3</title>
<path fill="none" stroke="#63b8ff" d="M598.06,-54.75C592.13,-47.26 583.43,-36.28 576.18,-27.13"/>
<polygon fill="#63b8ff" stroke="#63b8ff" points="578.76,-24.75 569.81,-19.09 573.27,-29.1 578.76,-24.75"/>
</g>
<!-- Node14&#45;&gt;Node4 -->
<g id="edge26" class="edge">
<title>Node14&#45;&gt;Node4</title>
<path fill="none" stroke="#63b8ff" d="M554.24,-57.63C461.99,-46.95 268.77,-24.59 186,-15.01"/>
<polygon fill="#63b8ff" stroke="#63b8ff" points="186.34,-11.53 176,-13.86 185.53,-18.48 186.34,-11.53"/>
</g>
<!-- Node14&#45;&gt;Node6 -->
<g id="edge28" class="edge">
<title>Node14&#45;&gt;Node6</title>
<path fill="none" stroke="#63b8ff" d="M580.9,-54.98C556.12,-46.23 517.3,-32.51 489.31,-22.62"/>
<polygon fill="#63b8ff" stroke="#63b8ff" points="490.13,-19.2 479.54,-19.17 487.8,-25.8 490.13,-19.2"/>
</g>
<!-- Node14&#45;&gt;Node8 -->
<g id="edge25" class="edge">
<title>Node14&#45;&gt;Node8</title>
<path fill="none" stroke="#63b8ff" d="M559.94,-54.92C518.9,-46.93 456.4,-34.28 393.42,-19.23"/>
<polygon fill="#63b8ff" stroke="#63b8ff" points="393.85,-15.73 383.31,-16.79 392.21,-22.54 393.85,-15.73"/>
</g>
<!-- Node14&#45;&gt;Node12 -->
<g id="edge24" class="edge">
<title>Node14&#45;&gt;Node12</title>
<path fill="none" stroke="#63b8ff" d="M626.85,-54.98C649.12,-46.3 683.9,-32.75 709.22,-22.88"/>
<polygon fill="#63b8ff" stroke="#63b8ff" points="710.71,-26.06 718.75,-19.17 708.16,-19.54 710.71,-26.06"/>
</g>
<!-- Node15 -->
<g id="node15" class="node">
<title>Node15</title>
<g id="a_node15"><a xlink:title=" ">
<polygon fill="#e0e0e0" stroke="#999999" points="662.5,-19 617.5,-19 617.5,0 662.5,0 662.5,-19"/>
<text text-anchor="middle" x="640" y="-7" font-family="Helvetica,sans-Serif" font-size="10.00">utility</text>
</a>
</g>
</g>
<!-- Node14&#45;&gt;Node15 -->
<g id="edge23" class="edge">
<title>Node14&#45;&gt;Node15</title>
<path fill="none" stroke="#63b8ff" d="M610.78,-54.75C615.62,-47.42 622.68,-36.73 628.64,-27.7"/>
<polygon fill="#63b8ff" stroke="#63b8ff" points="631.74,-29.36 634.33,-19.09 625.9,-25.5 631.74,-29.36"/>
</g>
<!-- Node16&#45;&gt;Node3 -->
<g id="edge31" class="edge">
<title>Node16&#45;&gt;Node3</title>
<path fill="none" stroke="#63b8ff" d="M760.91,-109.67C758.73,-95.91 752.52,-69.4 736,-55 726.34,-46.58 657.07,-30.49 609.17,-20.14"/>
<polygon fill="#63b8ff" stroke="#63b8ff" points="609.81,-16.7 599.3,-18.02 608.34,-23.54 609.81,-16.7"/>
</g>
<!-- Node16&#45;&gt;Node12 -->
<g id="edge30" class="edge">
<title>Node16&#45;&gt;Node12</title>
<path fill="none" stroke="#63b8ff" d="M766.41,-109.69C772.02,-97.26 780.26,-73.96 774,-55 770.54,-44.54 763.57,-34.53 756.92,-26.66"/>
<polygon fill="#63b8ff" stroke="#63b8ff" points="759.33,-24.1 750.02,-19.04 754.14,-28.8 759.33,-24.1"/>
</g>
<!-- Node16&#45;&gt;Node14 -->
<g id="edge32" class="edge">
<title>Node16&#45;&gt;Node14</title>
<path fill="none" stroke="#63b8ff" d="M736.78,-109.98C710.64,-101.16 669.6,-87.31 640.27,-77.41"/>
<polygon fill="#63b8ff" stroke="#63b8ff" points="641.02,-73.96 630.42,-74.08 638.78,-80.6 641.02,-73.96"/>
</g>
<!-- Node17&#45;&gt;Node3 -->
<g id="edge34" class="edge">
<title>Node17&#45;&gt;Node3</title>
<path fill="none" stroke="#63b8ff" d="M427.87,-54.98C454.78,-46.13 497.12,-32.19 527.23,-22.28"/>
<polygon fill="#63b8ff" stroke="#63b8ff" points="528.53,-25.53 536.93,-19.08 526.34,-18.88 528.53,-25.53"/>
</g>
<!-- Node17&#45;&gt;Node4 -->
<g id="edge35" class="edge">
<title>Node17&#45;&gt;Node4</title>
<path fill="none" stroke="#63b8ff" d="M361.03,-54.98C312.89,-44.98 233.6,-28.5 186.23,-18.65"/>
<polygon fill="#63b8ff" stroke="#63b8ff" points="186.85,-15.21 176.34,-16.6 185.42,-22.06 186.85,-15.21"/>
</g>
<!-- Node17&#45;&gt;Node8 -->
<g id="edge36" class="edge">
<title>Node17&#45;&gt;Node8</title>
<path fill="none" stroke="#63b8ff" d="M395.23,-54.75C389.44,-47.26 380.94,-36.28 373.86,-27.13"/>
<polygon fill="#63b8ff" stroke="#63b8ff" points="376.53,-24.86 367.64,-19.09 370.99,-29.14 376.53,-24.86"/>
</g>
</g>
</svg>
        <g id="navigator" transform="translate(0 0)" fill="#404254">
                <rect fill="#f2f5e9" fill-opacity="0.5" stroke="#606060" stroke-width=".5" x="0" y="0" width="60" height="60"/>
                <use id="zoomplus" xlink:href="#zoomPlus" x="17" y="9" onmousedown="handleZoom(evt,'in')"/>
                <use id="zoomminus" xlink:href="#zoomMin" x="42" y="9" onmousedown="handleZoom(evt,'out')"/>
                <use id="reset" xlink:href="#resetDef" x="30" y="36" onmousedown="handleReset()"/>
                <g id="arrowUp" xlink:href="#dirArrow" transform="translate(30 24)" onmousedown="handlePan(0,-1)">
                  <use xlink:href="#rim" fill="#404040">
                        <set attributeName="fill" to="#808080" begin="arrowUp.mouseover" end="arrowUp.mouseout"/>
                  </use>
                  <path fill="none" stroke="white" stroke-width="1.5" d="M0,-3.0v7 M-2.5,-0.5L0,-3.0L2.5,-0.5"/>
                </g>
                <g id="arrowRight" xlink:href="#dirArrow" transform="rotate(90) translate(36 -43)" onmousedown="handlePan(1,0)">
                  <use xlink:href="#rim" fill="#404040">
                        <set attributeName="fill" to="#808080" begin="arrowRight.mouseover" end="arrowRight.mouseout"/>
                  </use>
                  <path fill="none" stroke="white" stroke-width="1.5" d="M0,-3.0v7 M-2.5,-0.5L0,-3.0L2.5,-0.5"/>
                </g>
                <g id="arrowDown" xlink:href="#dirArrow" transform="rotate(180) translate(-30 -48)" onmousedown="handlePan(0,1)">
                  <use xlink:href="#rim" fill="#404040">
                        <set attributeName="fill" to="#808080" begin="arrowDown.mouseover" end="arrowDown.mouseout"/>
                  </use>
                  <path fill="none" stroke="white" stroke-width="1.5" d="M0,-3.0v7 M-2.5,-0.5L0,-3.0L2.5,-0.5"/>
                </g>
                <g id="arrowLeft" xlink:href="#dirArrow" transform="rotate(270) translate(-36 17)" onmousedown="handlePan(-1,0)">
                  <use xlink:href="#rim" fill="#404040">
                        <set attributeName="fill" to="#808080" begin="arrowLeft.mouseover" end="arrowLeft.mouseout"/>
                  </use>
                  <path fill="none" stroke="white" stroke-width="1.5" d="M0,-3.0v7 M-2.5,-0.5L0,-3.0L2.5,-0.5"/>
                </g>
        </g>
        <svg viewBox="0 0 15 15" width="100%" height="30px" preserveAspectRatio="xMaxYMin meet">
         <g id="arrow_out" transform="scale(0.3 0.3)">
          <a xlink:href="BrickBreakerMenu_8h__incl_org.svg" target="_base">
           <rect id="button" ry="5" rx="5" y="6" x="6" height="38" width="38"
                fill="#f2f5e9" fill-opacity="0.5" stroke="#606060" stroke-width="1.0"/>
           <path id="arrow"
             d="M 11.500037,31.436501 C 11.940474,20.09759 22.043105,11.32322 32.158766,21.979434 L 37.068811,17.246167 C 37.068811,17.246167 37.088388,32 37.088388,32 L 22.160133,31.978069 C 22.160133,31.978069 26.997745,27.140456 26.997745,27.140456 C 18.528582,18.264221 13.291696,25.230495 11.500037,31.436501 z"
             style="fill:#404040;"/>
          </a>
         </g>
        </svg>
</svg>
