<?xml version="1.0" encoding="UTF-8" standalone="no"?>
<!DOCTYPE svg PUBLIC "-//W3C//DTD SVG 1.1//EN"
 "http://www.w3.org/Graphics/SVG/1.1/DTD/svg11.dtd">
<!-- Generated by graphviz version 2.43.0 (0)
 -->
<!-- Title: include/Circle.h Pages: 1 -->
<svg width="201pt" height="247pt"
 viewBox="0.00 0.00 201.00 247.00" xmlns="http://www.w3.org/2000/svg" xmlns:xlink="http://www.w3.org/1999/xlink">
<g id="graph0" class="graph" transform="scale(1 1) rotate(0) translate(4 243)">
<title>include/Circle.h</title>
<!-- Node1 -->
<g id="node1" class="node">
<title>Node1</title>
<g id="a_node1"><a xlink:title=" ">
<polygon fill="#999999" stroke="#666666" points="139.5,-239 47.5,-239 47.5,-220 139.5,-220 139.5,-239"/>
<text text-anchor="middle" x="93.5" y="-227" font-family="Helvetica,sans-Serif" font-size="10.00">include/Circle.h</text>
</a>
</g>
</g>
<!-- Node2 -->
<g id="node2" class="node">
<title>Node2</title>
<g id="a_node2"><a xlink:href="Ball_8h.html" target="_top" xlink:title=" ">
<polygon fill="white" stroke="#666666" points="83,-129 0,-129 0,-110 83,-110 83,-129"/>
<text text-anchor="middle" x="41.5" y="-117" font-family="Helvetica,sans-Serif" font-size="10.00">include/Ball.h</text>
</a>
</g>
</g>
<!-- Node1&#45;&gt;Node2 -->
<g id="edge1" class="edge">
<title>Node1&#45;&gt;Node2</title>
<path fill="none" stroke="#63b8ff" d="M84.81,-210.44C73.48,-186.92 54.13,-146.73 45.67,-129.16"/>
<polygon fill="#63b8ff" stroke="#63b8ff" points="81.75,-212.17 89.24,-219.66 88.06,-209.13 81.75,-212.17"/>
</g>
<!-- Node5 -->
<g id="node5" class="node">
<title>Node5</title>
<g id="a_node5"><a xlink:href="PowerUp_8h.html" target="_top" xlink:title=" ">
<polygon fill="white" stroke="#666666" points="193,-184 86,-184 86,-165 193,-165 193,-184"/>
<text text-anchor="middle" x="139.5" y="-172" font-family="Helvetica,sans-Serif" font-size="10.00">include/PowerUp.h</text>
</a>
</g>
</g>
<!-- Node1&#45;&gt;Node5 -->
<g id="edge4" class="edge">
<title>Node1&#45;&gt;Node5</title>
<path fill="none" stroke="#63b8ff" d="M107.86,-211.96C115.87,-202.72 125.53,-191.6 132.05,-184.09"/>
<polygon fill="#63b8ff" stroke="#63b8ff" points="105.01,-209.9 101.1,-219.75 110.29,-214.49 105.01,-209.9"/>
</g>
<!-- Node3 -->
<g id="node3" class="node">
<title>Node3</title>
<g id="a_node3"><a xlink:href="BrickBreaker_8h.html" target="_top" xlink:title=" ">
<polygon fill="white" stroke="#666666" points="156,-74 31,-74 31,-55 156,-55 156,-74"/>
<text text-anchor="middle" x="93.5" y="-62" font-family="Helvetica,sans-Serif" font-size="10.00">include/BrickBreaker.h</text>
</a>
</g>
</g>
<!-- Node2&#45;&gt;Node3 -->
<g id="edge2" class="edge">
<title>Node2&#45;&gt;Node3</title>
<path fill="none" stroke="#63b8ff" d="M57.18,-102.52C66.34,-93.18 77.55,-81.75 85.07,-74.09"/>
<polygon fill="#63b8ff" stroke="#63b8ff" points="54.59,-100.16 50.09,-109.75 59.59,-105.06 54.59,-100.16"/>
</g>
<!-- Node4 -->
<g id="node4" class="node">
<title>Node4</title>
<g id="a_node4"><a xlink:href="BrickBreakerMenu_8h.html" target="_top" xlink:title=" ">
<polygon fill="white" stroke="#666666" points="170,-19 17,-19 17,0 170,0 170,-19"/>
<text text-anchor="middle" x="93.5" y="-7" font-family="Helvetica,sans-Serif" font-size="10.00">include/BrickBreakerMenu.h</text>
</a>
</g>
</g>
<!-- Node3&#45;&gt;Node4 -->
<g id="edge3" class="edge">
<title>Node3&#45;&gt;Node4</title>
<path fill="none" stroke="#63b8ff" d="M93.5,-44.66C93.5,-35.93 93.5,-25.99 93.5,-19.09"/>
<polygon fill="#63b8ff" stroke="#63b8ff" points="90,-44.75 93.5,-54.75 97,-44.75 90,-44.75"/>
</g>
<!-- Node6 -->
<g id="node6" class="node">
<title>Node6</title>
<g id="a_node6"><a xlink:href="Brick_8h.html" target="_top" xlink:title=" ">
<polygon fill="white" stroke="#666666" points="190,-129 101,-129 101,-110 190,-110 190,-129"/>
<text text-anchor="middle" x="145.5" y="-117" font-family="Helvetica,sans-Serif" font-size="10.00">include/Brick.h</text>
</a>
</g>
</g>
<!-- Node5&#45;&gt;Node6 -->
<g id="edge5" class="edge">
<title>Node5&#45;&gt;Node6</title>
<path fill="none" stroke="#63b8ff" d="M141.63,-154.66C142.62,-145.93 143.75,-135.99 144.53,-129.09"/>
<polygon fill="#63b8ff" stroke="#63b8ff" points="138.14,-154.42 140.49,-164.75 145.09,-155.21 138.14,-154.42"/>
</g>
<!-- Node6&#45;&gt;Node3 -->
<g id="edge6" class="edge">
<title>Node6&#45;&gt;Node3</title>
<path fill="none" stroke="#63b8ff" d="M129.82,-102.52C120.66,-93.18 109.45,-81.75 101.93,-74.09"/>
<polygon fill="#63b8ff" stroke="#63b8ff" points="127.41,-105.06 136.91,-109.75 132.41,-100.16 127.41,-105.06"/>
</g>
</g>
</svg>
