<?xml version="1.0" encoding="UTF-8" standalone="no"?>
<!DOCTYPE svg PUBLIC "-//W3C//DTD SVG 1.1//EN"
 "http://www.w3.org/Graphics/SVG/1.1/DTD/svg11.dtd">
<!-- Generated by graphviz version 2.43.0 (0)
 -->
<!-- Title: ExtendPlatformPowerUp Pages: 1 -->
<svg width="186pt" height="527pt"
 viewBox="0.00 0.00 186.00 527.00" xmlns="http://www.w3.org/2000/svg" xmlns:xlink="http://www.w3.org/1999/xlink">
<g id="graph0" class="graph" transform="scale(1 1) rotate(0) translate(4 523)">
<title>ExtendPlatformPowerUp</title>
<!-- Node1 -->
<g id="node1" class="node">
<title>Node1</title>
<g id="a_node1"><a xlink:title="The ExtendPlatformPowerUp class represents a power&#45;up that extends the platform size.">
<polygon fill="#999999" stroke="transparent" points="163,-79 15,-79 15,0 163,0 163,-79"/>
<text text-anchor="start" x="29" y="-66.5" font-family="Helvetica,sans-Serif" font-size="10.00">ExtendPlatformPowerUp</text>
<text text-anchor="start" x="87" y="-51.5" font-family="Helvetica,sans-Serif" font-size="10.00"> </text>
<text text-anchor="start" x="19" y="-36.5" font-family="Helvetica,sans-Serif" font-size="10.00">+</text>
<text text-anchor="start" x="32" y="-36.5" font-family="Helvetica,sans-Serif" font-size="10.00">ExtendPlatformPowerUp()</text>
<text text-anchor="start" x="19" y="-21.5" font-family="Helvetica,sans-Serif" font-size="10.00">+</text>
<text text-anchor="start" x="32" y="-21.5" font-family="Helvetica,sans-Serif" font-size="10.00">applyPowerUp()</text>
<text text-anchor="start" x="19" y="-6.5" font-family="Helvetica,sans-Serif" font-size="10.00">+</text>
<text text-anchor="start" x="32" y="-6.5" font-family="Helvetica,sans-Serif" font-size="10.00">unApplyPowerUp()</text>
<polygon fill="#666666" stroke="#666666" points="15,-61.5 15,-61.5 163,-61.5 163,-61.5 15,-61.5"/>
<polygon fill="#666666" stroke="#666666" points="15,-46.5 15,-46.5 163,-46.5 163,-46.5 15,-46.5"/>
<polygon fill="none" stroke="#666666" points="15,0 15,-79 163,-79 163,0 15,0"/>
</a>
</g>
</g>
<!-- Node2 -->
<g id="node2" class="node">
<title>Node2</title>
<g id="a_node2"><a xlink:href="classPowerUp.html" target="_top" xlink:title="The PowerUp class represents a base class for power&#45;up objects.">
<polygon fill="white" stroke="transparent" points="151,-254 27,-254 27,-115 151,-115 151,-254"/>
<text text-anchor="start" x="67" y="-241.5" font-family="Helvetica,sans-Serif" font-size="10.00">PowerUp</text>
<text text-anchor="start" x="31" y="-226.5" font-family="Helvetica,sans-Serif" font-size="10.00">#</text>
<text text-anchor="start" x="44" y="-226.5" font-family="Helvetica,sans-Serif" font-size="10.00">_current_duration</text>
<text text-anchor="start" x="31" y="-211.5" font-family="Helvetica,sans-Serif" font-size="10.00">#</text>
<text text-anchor="start" x="44" y="-211.5" font-family="Helvetica,sans-Serif" font-size="10.00">_active</text>
<text text-anchor="start" x="31" y="-196.5" font-family="Helvetica,sans-Serif" font-size="10.00">+</text>
<text text-anchor="start" x="44" y="-196.5" font-family="Helvetica,sans-Serif" font-size="10.00">PowerUp()</text>
<text text-anchor="start" x="31" y="-181.5" font-family="Helvetica,sans-Serif" font-size="10.00">+</text>
<text text-anchor="start" x="44" y="-181.5" font-family="Helvetica,sans-Serif" font-size="10.00">applyPowerUp()</text>
<text text-anchor="start" x="31" y="-166.5" font-family="Helvetica,sans-Serif" font-size="10.00">+</text>
<text text-anchor="start" x="44" y="-166.5" font-family="Helvetica,sans-Serif" font-size="10.00">unApplyPowerUp()</text>
<text text-anchor="start" x="31" y="-151.5" font-family="Helvetica,sans-Serif" font-size="10.00">+</text>
<text text-anchor="start" x="44" y="-151.5" font-family="Helvetica,sans-Serif" font-size="10.00">isActive()</text>
<text text-anchor="start" x="31" y="-136.5" font-family="Helvetica,sans-Serif" font-size="10.00">+</text>
<text text-anchor="start" x="44" y="-136.5" font-family="Helvetica,sans-Serif" font-size="10.00">decrementDuration()</text>
<text text-anchor="start" x="31" y="-121.5" font-family="Helvetica,sans-Serif" font-size="10.00">+</text>
<text text-anchor="start" x="44" y="-121.5" font-family="Helvetica,sans-Serif" font-size="10.00">getDuration()</text>
<polygon fill="#666666" stroke="#666666" points="27,-236.5 27,-236.5 151,-236.5 151,-236.5 27,-236.5"/>
<polygon fill="#666666" stroke="#666666" points="27,-206.5 27,-206.5 42,-206.5 42,-206.5 27,-206.5"/>
<polygon fill="#666666" stroke="#666666" points="42,-206.5 42,-206.5 151,-206.5 151,-206.5 42,-206.5"/>
<polygon fill="none" stroke="#666666" points="27,-115 27,-254 151,-254 151,-115 27,-115"/>
</a>
</g>
</g>
<!-- Node2&#45;&gt;Node1 -->
<g id="edge1" class="edge">
<title>Node2&#45;&gt;Node1</title>
<path fill="none" stroke="#63b8ff" d="M89,-104.82C89,-95.9 89,-87.12 89,-79.07"/>
<polygon fill="none" stroke="#63b8ff" points="85.5,-104.93 89,-114.93 92.5,-104.93 85.5,-104.93"/>
</g>
<!-- Node3 -->
<g id="node3" class="node">
<title>Node3</title>
<g id="a_node3"><a xlink:href="classCircle.html" target="_top" xlink:title="The Circle class represents a circle in 2D space.">
<polygon fill="white" stroke="transparent" points="178,-519 0,-519 0,-290 178,-290 178,-519"/>
<text text-anchor="start" x="75" y="-506.5" font-family="Helvetica,sans-Serif" font-size="10.00">Circle</text>
<text text-anchor="start" x="6.5" y="-491.5" font-family="Helvetica,sans-Serif" font-size="10.00">&#45;</text>
<text text-anchor="start" x="17" y="-491.5" font-family="Helvetica,sans-Serif" font-size="10.00">_radius</text>
<text text-anchor="start" x="6.5" y="-476.5" font-family="Helvetica,sans-Serif" font-size="10.00">&#45;</text>
<text text-anchor="start" x="17" y="-476.5" font-family="Helvetica,sans-Serif" font-size="10.00">_center</text>
<text text-anchor="start" x="6.5" y="-461.5" font-family="Helvetica,sans-Serif" font-size="10.00">&#45;</text>
<text text-anchor="start" x="17" y="-461.5" font-family="Helvetica,sans-Serif" font-size="10.00">_speed</text>
<text text-anchor="start" x="4" y="-446.5" font-family="Helvetica,sans-Serif" font-size="10.00">+</text>
<text text-anchor="start" x="17" y="-446.5" font-family="Helvetica,sans-Serif" font-size="10.00">Circle()</text>
<text text-anchor="start" x="4" y="-431.5" font-family="Helvetica,sans-Serif" font-size="10.00">+</text>
<text text-anchor="start" x="17" y="-431.5" font-family="Helvetica,sans-Serif" font-size="10.00">Circle()</text>
<text text-anchor="start" x="4" y="-416.5" font-family="Helvetica,sans-Serif" font-size="10.00">+</text>
<text text-anchor="start" x="17" y="-416.5" font-family="Helvetica,sans-Serif" font-size="10.00">getRadius()</text>
<text text-anchor="start" x="4" y="-401.5" font-family="Helvetica,sans-Serif" font-size="10.00">+</text>
<text text-anchor="start" x="17" y="-401.5" font-family="Helvetica,sans-Serif" font-size="10.00">getCenter()</text>
<text text-anchor="start" x="4" y="-386.5" font-family="Helvetica,sans-Serif" font-size="10.00">+</text>
<text text-anchor="start" x="17" y="-386.5" font-family="Helvetica,sans-Serif" font-size="10.00">getSpeed()</text>
<text text-anchor="start" x="4" y="-371.5" font-family="Helvetica,sans-Serif" font-size="10.00">+</text>
<text text-anchor="start" x="17" y="-371.5" font-family="Helvetica,sans-Serif" font-size="10.00">setRadius()</text>
<text text-anchor="start" x="4" y="-356.5" font-family="Helvetica,sans-Serif" font-size="10.00">+</text>
<text text-anchor="start" x="17" y="-356.5" font-family="Helvetica,sans-Serif" font-size="10.00">setCenter()</text>
<text text-anchor="start" x="4" y="-341.5" font-family="Helvetica,sans-Serif" font-size="10.00">+</text>
<text text-anchor="start" x="17" y="-341.5" font-family="Helvetica,sans-Serif" font-size="10.00">setSpeed()</text>
<text text-anchor="start" x="4" y="-326.5" font-family="Helvetica,sans-Serif" font-size="10.00">+</text>
<text text-anchor="start" x="17" y="-326.5" font-family="Helvetica,sans-Serif" font-size="10.00">update()</text>
<text text-anchor="start" x="4" y="-311.5" font-family="Helvetica,sans-Serif" font-size="10.00">+</text>
<text text-anchor="start" x="17" y="-311.5" font-family="Helvetica,sans-Serif" font-size="10.00">resolveCollisionWithRectangle()</text>
<text text-anchor="start" x="4" y="-296.5" font-family="Helvetica,sans-Serif" font-size="10.00">+</text>
<text text-anchor="start" x="17" y="-296.5" font-family="Helvetica,sans-Serif" font-size="10.00">resolveCollisionWithLine()</text>
<polygon fill="#666666" stroke="#666666" points="0,-501.5 0,-501.5 178,-501.5 178,-501.5 0,-501.5"/>
<polygon fill="#666666" stroke="#666666" points="0,-456.5 0,-456.5 15,-456.5 15,-456.5 0,-456.5"/>
<polygon fill="#666666" stroke="#666666" points="15,-456.5 15,-456.5 178,-456.5 178,-456.5 15,-456.5"/>
<polygon fill="none" stroke="#666666" points="0,-290 0,-519 178,-519 178,-290 0,-290"/>
</a>
</g>
</g>
<!-- Node3&#45;&gt;Node2 -->
<g id="edge2" class="edge">
<title>Node3&#45;&gt;Node2</title>
<path fill="none" stroke="#63b8ff" d="M89,-279.47C89,-270.78 89,-262.22 89,-254.02"/>
<polygon fill="none" stroke="#63b8ff" points="85.5,-279.71 89,-289.71 92.5,-279.71 85.5,-279.71"/>
</g>
</g>
</svg>
