<?xml version="1.0" encoding="UTF-8" standalone="no"?>
<!DOCTYPE svg PUBLIC "-//W3C//DTD SVG 1.1//EN"
 "http://www.w3.org/Graphics/SVG/1.1/DTD/svg11.dtd">
<!-- Generated by graphviz version 2.43.0 (0)
 -->
<!-- Title: SDLComponent Pages: 1 -->
<svg width="179pt" height="348pt"
 viewBox="0.00 0.00 178.50 348.00" xmlns="http://www.w3.org/2000/svg" xmlns:xlink="http://www.w3.org/1999/xlink">
<g id="graph0" class="graph" transform="scale(1 1) rotate(0) translate(4 344)">
<title>SDLComponent</title>
<!-- Node1 -->
<g id="node1" class="node">
<title>Node1</title>
<g id="a_node1"><a xlink:title="The SDLComponent class represents a base class for SDL components.">
<polygon fill="#999999" stroke="transparent" points="139,-169 0,-169 0,0 139,0 139,-169"/>
<text text-anchor="start" x="32" y="-156.5" font-family="Helvetica,sans-Serif" font-size="10.00">SDLComponent</text>
<text text-anchor="start" x="4.5" y="-141.5" font-family="Helvetica,sans-Serif" font-size="10.00">#</text>
<text text-anchor="start" x="17.5" y="-141.5" font-family="Helvetica,sans-Serif" font-size="10.00">_surface</text>
<text text-anchor="start" x="4.5" y="-126.5" font-family="Helvetica,sans-Serif" font-size="10.00">#</text>
<text text-anchor="start" x="17.5" y="-126.5" font-family="Helvetica,sans-Serif" font-size="10.00">_is_running</text>
<text text-anchor="start" x="4.5" y="-111.5" font-family="Helvetica,sans-Serif" font-size="10.00">#</text>
<text text-anchor="start" x="17.5" y="-111.5" font-family="Helvetica,sans-Serif" font-size="10.00">_renderer</text>
<text text-anchor="start" x="4.5" y="-96.5" font-family="Helvetica,sans-Serif" font-size="10.00">+</text>
<text text-anchor="start" x="17.5" y="-96.5" font-family="Helvetica,sans-Serif" font-size="10.00">SDLComponent()</text>
<text text-anchor="start" x="4.5" y="-81.5" font-family="Helvetica,sans-Serif" font-size="10.00">+</text>
<text text-anchor="start" x="17.5" y="-81.5" font-family="Helvetica,sans-Serif" font-size="10.00">setSurfaceDimensions()</text>
<text text-anchor="start" x="4.5" y="-66.5" font-family="Helvetica,sans-Serif" font-size="10.00">+</text>
<text text-anchor="start" x="17.5" y="-66.5" font-family="Helvetica,sans-Serif" font-size="10.00">handleEvents()</text>
<text text-anchor="start" x="4.5" y="-51.5" font-family="Helvetica,sans-Serif" font-size="10.00">+</text>
<text text-anchor="start" x="17.5" y="-51.5" font-family="Helvetica,sans-Serif" font-size="10.00">update()</text>
<text text-anchor="start" x="4.5" y="-36.5" font-family="Helvetica,sans-Serif" font-size="10.00">+</text>
<text text-anchor="start" x="17.5" y="-36.5" font-family="Helvetica,sans-Serif" font-size="10.00">render()</text>
<text text-anchor="start" x="4.5" y="-21.5" font-family="Helvetica,sans-Serif" font-size="10.00">+</text>
<text text-anchor="start" x="17.5" y="-21.5" font-family="Helvetica,sans-Serif" font-size="10.00">initSurface()</text>
<text text-anchor="start" x="4.5" y="-6.5" font-family="Helvetica,sans-Serif" font-size="10.00">+</text>
<text text-anchor="start" x="17.5" y="-6.5" font-family="Helvetica,sans-Serif" font-size="10.00">isRunning()</text>
<polygon fill="#666666" stroke="#666666" points="0.5,-151.5 0.5,-151.5 139.5,-151.5 139.5,-151.5 0.5,-151.5"/>
<polygon fill="#666666" stroke="#666666" points="0.5,-106.5 0.5,-106.5 15.5,-106.5 15.5,-106.5 0.5,-106.5"/>
<polygon fill="#666666" stroke="#666666" points="15.5,-106.5 15.5,-106.5 139.5,-106.5 139.5,-106.5 15.5,-106.5"/>
<polygon fill="none" stroke="#666666" points="0,0 0,-169 139,-169 139,0 0,0"/>
</a>
</g>
</g>
<!-- Node2 -->
<g id="node2" class="node">
<title>Node2</title>
<g id="a_node2"><a xlink:href="classTextureManager.html" target="_top" xlink:title="The TextureManager class manages SDL textures.">
<polygon fill="white" stroke="transparent" points="135.5,-340 3.5,-340 3.5,-216 135.5,-216 135.5,-340"/>
<text text-anchor="start" x="30" y="-328" font-family="Helvetica,sans-Serif" font-size="10.00">TextureManager</text>
<text text-anchor="start" x="10" y="-313" font-family="Helvetica,sans-Serif" font-size="10.00">&#45;</text>
<text text-anchor="start" x="20.5" y="-313" font-family="Helvetica,sans-Serif" font-size="10.00">_textures</text>
<text text-anchor="start" x="7.5" y="-298" font-family="Helvetica,sans-Serif" font-size="10.00">+</text>
<text text-anchor="start" x="20.5" y="-298" font-family="Helvetica,sans-Serif" font-size="10.00">loadDefaultTextures()</text>
<text text-anchor="start" x="7.5" y="-283" font-family="Helvetica,sans-Serif" font-size="10.00">+</text>
<text text-anchor="start" x="20.5" y="-283" font-family="Helvetica,sans-Serif" font-size="10.00">loadTexture()</text>
<text text-anchor="start" x="7.5" y="-268" font-family="Helvetica,sans-Serif" font-size="10.00">+</text>
<text text-anchor="start" x="20.5" y="-268" font-family="Helvetica,sans-Serif" font-size="10.00">getTexture()</text>
<text text-anchor="start" x="7.5" y="-253" font-family="Helvetica,sans-Serif" font-size="10.00">+</text>
<text text-anchor="start" x="20.5" y="-253" font-family="Helvetica,sans-Serif" font-size="10.00">updateTextures()</text>
<text text-anchor="start" x="7.5" y="-238" font-family="Helvetica,sans-Serif" font-size="10.00">+</text>
<text text-anchor="start" x="20.5" y="-238" font-family="Helvetica,sans-Serif" font-size="10.00">clearTextures()</text>
<text text-anchor="start" x="10" y="-223" font-family="Helvetica,sans-Serif" font-size="10.00">&#45;</text>
<text text-anchor="start" x="20.5" y="-223" font-family="Helvetica,sans-Serif" font-size="10.00">createDefaultTexture()</text>
<polygon fill="#666666" stroke="#666666" points="3.5,-323 3.5,-323 135.5,-323 135.5,-323 3.5,-323"/>
<polygon fill="#666666" stroke="#666666" points="3.5,-308 3.5,-308 18.5,-308 18.5,-308 3.5,-308"/>
<polygon fill="#666666" stroke="#666666" points="18.5,-308 18.5,-308 135.5,-308 135.5,-308 18.5,-308"/>
<polygon fill="none" stroke="#666666" points="3.5,-216 3.5,-340 135.5,-340 135.5,-216 3.5,-216"/>
</a>
</g>
</g>
<!-- Node2&#45;&gt;Node1 -->
<g id="edge1" class="edge">
<title>Node2&#45;&gt;Node1</title>
<path fill="none" stroke="#63b8ff" d="M69.5,-215.88C69.5,-204.83 69.5,-193.07 69.5,-181.31"/>
<polygon fill="none" stroke="#63b8ff" points="69.5,-181.09 65.5,-175.09 69.5,-169.09 73.5,-175.09 69.5,-181.09"/>
<text text-anchor="middle" x="120" y="-190" font-family="Helvetica,sans-Serif" font-size="10.00" fill="grey"> #_texture_manager</text>
</g>
</g>
</svg>
