<?xml version="1.0" encoding="UTF-8" standalone="no"?>
<!DOCTYPE svg PUBLIC "-//W3C//DTD SVG 1.1//EN"
 "http://www.w3.org/Graphics/SVG/1.1/DTD/svg11.dtd">
<!-- Generated by graphviz version 2.43.0 (0)
 -->
<!-- Title: BrickBreakerMenu Pages: 1 -->
<svg width="179pt" height="674pt"
 viewBox="0.00 0.00 178.50 674.00" xmlns="http://www.w3.org/2000/svg" xmlns:xlink="http://www.w3.org/1999/xlink">
<g id="graph0" class="graph" transform="scale(1 1) rotate(0) translate(4 670)">
<title>BrickBreakerMenu</title>
<!-- Node1 -->
<g id="node1" class="node">
<title>Node1</title>
<g id="a_node1"><a xlink:title="Represents the main menu of the BrickBreaker game.">
<polygon fill="#999999" stroke="transparent" points="128.5,-289 10.5,-289 10.5,0 128.5,0 128.5,-289"/>
<text text-anchor="start" x="24.5" y="-276.5" font-family="Helvetica,sans-Serif" font-size="10.00">BrickBreakerMenu</text>
<text text-anchor="start" x="17" y="-261.5" font-family="Helvetica,sans-Serif" font-size="10.00">&#45;</text>
<text text-anchor="start" x="27.5" y="-261.5" font-family="Helvetica,sans-Serif" font-size="10.00">_selected_level</text>
<text text-anchor="start" x="17" y="-246.5" font-family="Helvetica,sans-Serif" font-size="10.00">&#45;</text>
<text text-anchor="start" x="27.5" y="-246.5" font-family="Helvetica,sans-Serif" font-size="10.00">_num_rows</text>
<text text-anchor="start" x="17" y="-231.5" font-family="Helvetica,sans-Serif" font-size="10.00">&#45;</text>
<text text-anchor="start" x="27.5" y="-231.5" font-family="Helvetica,sans-Serif" font-size="10.00">_num_columns</text>
<text text-anchor="start" x="17" y="-216.5" font-family="Helvetica,sans-Serif" font-size="10.00">&#45;</text>
<text text-anchor="start" x="27.5" y="-216.5" font-family="Helvetica,sans-Serif" font-size="10.00">_levels</text>
<text text-anchor="start" x="17" y="-201.5" font-family="Helvetica,sans-Serif" font-size="10.00">&#45;</text>
<text text-anchor="start" x="27.5" y="-201.5" font-family="Helvetica,sans-Serif" font-size="10.00">_brick_breaker</text>
<text text-anchor="start" x="17" y="-186.5" font-family="Helvetica,sans-Serif" font-size="10.00">&#45;</text>
<text text-anchor="start" x="27.5" y="-186.5" font-family="Helvetica,sans-Serif" font-size="10.00">_background</text>
<text text-anchor="start" x="17" y="-171.5" font-family="Helvetica,sans-Serif" font-size="10.00">&#45;</text>
<text text-anchor="start" x="27.5" y="-171.5" font-family="Helvetica,sans-Serif" font-size="10.00">_current_page</text>
<text text-anchor="start" x="17" y="-156.5" font-family="Helvetica,sans-Serif" font-size="10.00">&#45;</text>
<text text-anchor="start" x="27.5" y="-156.5" font-family="Helvetica,sans-Serif" font-size="10.00">_num_pages</text>
<text text-anchor="start" x="17" y="-141.5" font-family="Helvetica,sans-Serif" font-size="10.00">&#45;</text>
<text text-anchor="start" x="27.5" y="-141.5" font-family="Helvetica,sans-Serif" font-size="10.00">_font</text>
<text text-anchor="start" x="14.5" y="-126.5" font-family="Helvetica,sans-Serif" font-size="10.00">+</text>
<text text-anchor="start" x="27.5" y="-126.5" font-family="Helvetica,sans-Serif" font-size="10.00">BrickBreakerMenu()</text>
<text text-anchor="start" x="14.5" y="-111.5" font-family="Helvetica,sans-Serif" font-size="10.00">+</text>
<text text-anchor="start" x="27.5" y="-111.5" font-family="Helvetica,sans-Serif" font-size="10.00">handleEvents()</text>
<text text-anchor="start" x="14.5" y="-96.5" font-family="Helvetica,sans-Serif" font-size="10.00">+</text>
<text text-anchor="start" x="27.5" y="-96.5" font-family="Helvetica,sans-Serif" font-size="10.00">update()</text>
<text text-anchor="start" x="14.5" y="-81.5" font-family="Helvetica,sans-Serif" font-size="10.00">+</text>
<text text-anchor="start" x="27.5" y="-81.5" font-family="Helvetica,sans-Serif" font-size="10.00">render()</text>
<text text-anchor="start" x="14.5" y="-66.5" font-family="Helvetica,sans-Serif" font-size="10.00">+</text>
<text text-anchor="start" x="27.5" y="-66.5" font-family="Helvetica,sans-Serif" font-size="10.00">initSurface()</text>
<text text-anchor="start" x="17" y="-51.5" font-family="Helvetica,sans-Serif" font-size="10.00">&#45;</text>
<text text-anchor="start" x="27.5" y="-51.5" font-family="Helvetica,sans-Serif" font-size="10.00">getPadding()</text>
<text text-anchor="start" x="17" y="-36.5" font-family="Helvetica,sans-Serif" font-size="10.00">&#45;</text>
<text text-anchor="start" x="27.5" y="-36.5" font-family="Helvetica,sans-Serif" font-size="10.00">getFontSize()</text>
<text text-anchor="start" x="17" y="-21.5" font-family="Helvetica,sans-Serif" font-size="10.00">&#45;</text>
<text text-anchor="start" x="27.5" y="-21.5" font-family="Helvetica,sans-Serif" font-size="10.00">handleResize()</text>
<text text-anchor="start" x="17" y="-6.5" font-family="Helvetica,sans-Serif" font-size="10.00">&#45;</text>
<text text-anchor="start" x="27.5" y="-6.5" font-family="Helvetica,sans-Serif" font-size="10.00">reloadBackground()</text>
<polygon fill="#666666" stroke="#666666" points="10.5,-271.5 10.5,-271.5 128.5,-271.5 128.5,-271.5 10.5,-271.5"/>
<polygon fill="#666666" stroke="#666666" points="10.5,-136.5 10.5,-136.5 25.5,-136.5 25.5,-136.5 10.5,-136.5"/>
<polygon fill="#666666" stroke="#666666" points="25.5,-136.5 25.5,-136.5 128.5,-136.5 128.5,-136.5 25.5,-136.5"/>
<polygon fill="none" stroke="#666666" points="10.5,0 10.5,-289 128.5,-289 128.5,0 10.5,0"/>
</a>
</g>
</g>
<!-- Node2 -->
<g id="node2" class="node">
<title>Node2</title>
<g id="a_node2"><a xlink:href="classSDLComponent.html" target="_top" xlink:title="The SDLComponent class represents a base class for SDL components.">
<polygon fill="white" stroke="transparent" points="139,-495 0,-495 0,-326 139,-326 139,-495"/>
<text text-anchor="start" x="32" y="-482.5" font-family="Helvetica,sans-Serif" font-size="10.00">SDLComponent</text>
<text text-anchor="start" x="4.5" y="-467.5" font-family="Helvetica,sans-Serif" font-size="10.00">#</text>
<text text-anchor="start" x="17.5" y="-467.5" font-family="Helvetica,sans-Serif" font-size="10.00">_surface</text>
<text text-anchor="start" x="4.5" y="-452.5" font-family="Helvetica,sans-Serif" font-size="10.00">#</text>
<text text-anchor="start" x="17.5" y="-452.5" font-family="Helvetica,sans-Serif" font-size="10.00">_is_running</text>
<text text-anchor="start" x="4.5" y="-437.5" font-family="Helvetica,sans-Serif" font-size="10.00">#</text>
<text text-anchor="start" x="17.5" y="-437.5" font-family="Helvetica,sans-Serif" font-size="10.00">_renderer</text>
<text text-anchor="start" x="4.5" y="-422.5" font-family="Helvetica,sans-Serif" font-size="10.00">+</text>
<text text-anchor="start" x="17.5" y="-422.5" font-family="Helvetica,sans-Serif" font-size="10.00">SDLComponent()</text>
<text text-anchor="start" x="4.5" y="-407.5" font-family="Helvetica,sans-Serif" font-size="10.00">+</text>
<text text-anchor="start" x="17.5" y="-407.5" font-family="Helvetica,sans-Serif" font-size="10.00">setSurfaceDimensions()</text>
<text text-anchor="start" x="4.5" y="-392.5" font-family="Helvetica,sans-Serif" font-size="10.00">+</text>
<text text-anchor="start" x="17.5" y="-392.5" font-family="Helvetica,sans-Serif" font-size="10.00">handleEvents()</text>
<text text-anchor="start" x="4.5" y="-377.5" font-family="Helvetica,sans-Serif" font-size="10.00">+</text>
<text text-anchor="start" x="17.5" y="-377.5" font-family="Helvetica,sans-Serif" font-size="10.00">update()</text>
<text text-anchor="start" x="4.5" y="-362.5" font-family="Helvetica,sans-Serif" font-size="10.00">+</text>
<text text-anchor="start" x="17.5" y="-362.5" font-family="Helvetica,sans-Serif" font-size="10.00">render()</text>
<text text-anchor="start" x="4.5" y="-347.5" font-family="Helvetica,sans-Serif" font-size="10.00">+</text>
<text text-anchor="start" x="17.5" y="-347.5" font-family="Helvetica,sans-Serif" font-size="10.00">initSurface()</text>
<text text-anchor="start" x="4.5" y="-332.5" font-family="Helvetica,sans-Serif" font-size="10.00">+</text>
<text text-anchor="start" x="17.5" y="-332.5" font-family="Helvetica,sans-Serif" font-size="10.00">isRunning()</text>
<polygon fill="#666666" stroke="#666666" points="0.5,-477.5 0.5,-477.5 139.5,-477.5 139.5,-477.5 0.5,-477.5"/>
<polygon fill="#666666" stroke="#666666" points="0.5,-432.5 0.5,-432.5 15.5,-432.5 15.5,-432.5 0.5,-432.5"/>
<polygon fill="#666666" stroke="#666666" points="15.5,-432.5 15.5,-432.5 139.5,-432.5 139.5,-432.5 15.5,-432.5"/>
<polygon fill="none" stroke="#666666" points="0,-326 0,-495 139,-495 139,-326 0,-326"/>
</a>
</g>
</g>
<!-- Node2&#45;&gt;Node1 -->
<g id="edge1" class="edge">
<title>Node2&#45;&gt;Node1</title>
<path fill="none" stroke="#63b8ff" d="M69.5,-315.9C69.5,-307.21 69.5,-298.28 69.5,-289.28"/>
<polygon fill="none" stroke="#63b8ff" points="66,-315.97 69.5,-325.97 73,-315.97 66,-315.97"/>
</g>
<!-- Node3 -->
<g id="node3" class="node">
<title>Node3</title>
<g id="a_node3"><a xlink:href="classTextureManager.html" target="_top" xlink:title="The TextureManager class manages SDL textures.">
<polygon fill="white" stroke="transparent" points="135.5,-666 3.5,-666 3.5,-542 135.5,-542 135.5,-666"/>
<text text-anchor="start" x="30" y="-654" font-family="Helvetica,sans-Serif" font-size="10.00">TextureManager</text>
<text text-anchor="start" x="10" y="-639" font-family="Helvetica,sans-Serif" font-size="10.00">&#45;</text>
<text text-anchor="start" x="20.5" y="-639" font-family="Helvetica,sans-Serif" font-size="10.00">_textures</text>
<text text-anchor="start" x="7.5" y="-624" font-family="Helvetica,sans-Serif" font-size="10.00">+</text>
<text text-anchor="start" x="20.5" y="-624" font-family="Helvetica,sans-Serif" font-size="10.00">loadDefaultTextures()</text>
<text text-anchor="start" x="7.5" y="-609" font-family="Helvetica,sans-Serif" font-size="10.00">+</text>
<text text-anchor="start" x="20.5" y="-609" font-family="Helvetica,sans-Serif" font-size="10.00">loadTexture()</text>
<text text-anchor="start" x="7.5" y="-594" font-family="Helvetica,sans-Serif" font-size="10.00">+</text>
<text text-anchor="start" x="20.5" y="-594" font-family="Helvetica,sans-Serif" font-size="10.00">getTexture()</text>
<text text-anchor="start" x="7.5" y="-579" font-family="Helvetica,sans-Serif" font-size="10.00">+</text>
<text text-anchor="start" x="20.5" y="-579" font-family="Helvetica,sans-Serif" font-size="10.00">updateTextures()</text>
<text text-anchor="start" x="7.5" y="-564" font-family="Helvetica,sans-Serif" font-size="10.00">+</text>
<text text-anchor="start" x="20.5" y="-564" font-family="Helvetica,sans-Serif" font-size="10.00">clearTextures()</text>
<text text-anchor="start" x="10" y="-549" font-family="Helvetica,sans-Serif" font-size="10.00">&#45;</text>
<text text-anchor="start" x="20.5" y="-549" font-family="Helvetica,sans-Serif" font-size="10.00">createDefaultTexture()</text>
<polygon fill="#666666" stroke="#666666" points="3.5,-649 3.5,-649 135.5,-649 135.5,-649 3.5,-649"/>
<polygon fill="#666666" stroke="#666666" points="3.5,-634 3.5,-634 18.5,-634 18.5,-634 3.5,-634"/>
<polygon fill="#666666" stroke="#666666" points="18.5,-634 18.5,-634 135.5,-634 135.5,-634 18.5,-634"/>
<polygon fill="none" stroke="#666666" points="3.5,-542 3.5,-666 135.5,-666 135.5,-542 3.5,-542"/>
</a>
</g>
</g>
<!-- Node3&#45;&gt;Node2 -->
<g id="edge2" class="edge">
<title>Node3&#45;&gt;Node2</title>
<path fill="none" stroke="#63b8ff" d="M69.5,-541.88C69.5,-530.83 69.5,-519.07 69.5,-507.31"/>
<polygon fill="none" stroke="#63b8ff" points="69.5,-507.09 65.5,-501.09 69.5,-495.09 73.5,-501.09 69.5,-507.09"/>
<text text-anchor="middle" x="120" y="-516" font-family="Helvetica,sans-Serif" font-size="10.00" fill="grey"> #_texture_manager</text>
</g>
</g>
</svg>
