<?xml version="1.0" encoding="UTF-8" standalone="no"?>
<!DOCTYPE svg PUBLIC "-//W3C//DTD SVG 1.1//EN"
 "http://www.w3.org/Graphics/SVG/1.1/DTD/svg11.dtd">
<!-- Generated by graphviz version 2.43.0 (0)
 -->
<!-- Title: Circle Pages: 1 -->
<svg width="576pt" height="527pt"
 viewBox="0.00 0.00 576.00 527.00" xmlns="http://www.w3.org/2000/svg" xmlns:xlink="http://www.w3.org/1999/xlink">
<g id="graph0" class="graph" transform="scale(1 1) rotate(0) translate(4 523)">
<title>Circle</title>
<!-- Node1 -->
<g id="node1" class="node">
<title>Node1</title>
<g id="a_node1"><a xlink:title="The Circle class represents a circle in 2D space.">
<polygon fill="#999999" stroke="transparent" points="316,-519 138,-519 138,-290 316,-290 316,-519"/>
<text text-anchor="start" x="213" y="-506.5" font-family="Helvetica,sans-Serif" font-size="10.00">Circle</text>
<text text-anchor="start" x="144.5" y="-491.5" font-family="Helvetica,sans-Serif" font-size="10.00">&#45;</text>
<text text-anchor="start" x="155" y="-491.5" font-family="Helvetica,sans-Serif" font-size="10.00">_radius</text>
<text text-anchor="start" x="144.5" y="-476.5" font-family="Helvetica,sans-Serif" font-size="10.00">&#45;</text>
<text text-anchor="start" x="155" y="-476.5" font-family="Helvetica,sans-Serif" font-size="10.00">_center</text>
<text text-anchor="start" x="144.5" y="-461.5" font-family="Helvetica,sans-Serif" font-size="10.00">&#45;</text>
<text text-anchor="start" x="155" y="-461.5" font-family="Helvetica,sans-Serif" font-size="10.00">_speed</text>
<text text-anchor="start" x="142" y="-446.5" font-family="Helvetica,sans-Serif" font-size="10.00">+</text>
<text text-anchor="start" x="155" y="-446.5" font-family="Helvetica,sans-Serif" font-size="10.00">Circle()</text>
<text text-anchor="start" x="142" y="-431.5" font-family="Helvetica,sans-Serif" font-size="10.00">+</text>
<text text-anchor="start" x="155" y="-431.5" font-family="Helvetica,sans-Serif" font-size="10.00">Circle()</text>
<text text-anchor="start" x="142" y="-416.5" font-family="Helvetica,sans-Serif" font-size="10.00">+</text>
<text text-anchor="start" x="155" y="-416.5" font-family="Helvetica,sans-Serif" font-size="10.00">getRadius()</text>
<text text-anchor="start" x="142" y="-401.5" font-family="Helvetica,sans-Serif" font-size="10.00">+</text>
<text text-anchor="start" x="155" y="-401.5" font-family="Helvetica,sans-Serif" font-size="10.00">getCenter()</text>
<text text-anchor="start" x="142" y="-386.5" font-family="Helvetica,sans-Serif" font-size="10.00">+</text>
<text text-anchor="start" x="155" y="-386.5" font-family="Helvetica,sans-Serif" font-size="10.00">getSpeed()</text>
<text text-anchor="start" x="142" y="-371.5" font-family="Helvetica,sans-Serif" font-size="10.00">+</text>
<text text-anchor="start" x="155" y="-371.5" font-family="Helvetica,sans-Serif" font-size="10.00">setRadius()</text>
<text text-anchor="start" x="142" y="-356.5" font-family="Helvetica,sans-Serif" font-size="10.00">+</text>
<text text-anchor="start" x="155" y="-356.5" font-family="Helvetica,sans-Serif" font-size="10.00">setCenter()</text>
<text text-anchor="start" x="142" y="-341.5" font-family="Helvetica,sans-Serif" font-size="10.00">+</text>
<text text-anchor="start" x="155" y="-341.5" font-family="Helvetica,sans-Serif" font-size="10.00">setSpeed()</text>
<text text-anchor="start" x="142" y="-326.5" font-family="Helvetica,sans-Serif" font-size="10.00">+</text>
<text text-anchor="start" x="155" y="-326.5" font-family="Helvetica,sans-Serif" font-size="10.00">update()</text>
<text text-anchor="start" x="142" y="-311.5" font-family="Helvetica,sans-Serif" font-size="10.00">+</text>
<text text-anchor="start" x="155" y="-311.5" font-family="Helvetica,sans-Serif" font-size="10.00">resolveCollisionWithRectangle()</text>
<text text-anchor="start" x="142" y="-296.5" font-family="Helvetica,sans-Serif" font-size="10.00">+</text>
<text text-anchor="start" x="155" y="-296.5" font-family="Helvetica,sans-Serif" font-size="10.00">resolveCollisionWithLine()</text>
<polygon fill="#666666" stroke="#666666" points="138,-501.5 138,-501.5 316,-501.5 316,-501.5 138,-501.5"/>
<polygon fill="#666666" stroke="#666666" points="138,-456.5 138,-456.5 153,-456.5 153,-456.5 138,-456.5"/>
<polygon fill="#666666" stroke="#666666" points="153,-456.5 153,-456.5 316,-456.5 316,-456.5 153,-456.5"/>
<polygon fill="none" stroke="#666666" points="138,-290 138,-519 316,-519 316,-290 138,-290"/>
</a>
</g>
</g>
<!-- Node2 -->
<g id="node2" class="node">
<title>Node2</title>
<g id="a_node2"><a xlink:href="classBall.html" target="_top" xlink:title="Represents a ball in the game.">
<polygon fill="white" stroke="transparent" points="199,-209 151,-209 151,-160 199,-160 199,-209"/>
<text text-anchor="start" x="165.5" y="-196.5" font-family="Helvetica,sans-Serif" font-size="10.00">Ball</text>
<text text-anchor="start" x="173" y="-181.5" font-family="Helvetica,sans-Serif" font-size="10.00"> </text>
<text text-anchor="start" x="155" y="-166.5" font-family="Helvetica,sans-Serif" font-size="10.00">+</text>
<text text-anchor="start" x="168" y="-166.5" font-family="Helvetica,sans-Serif" font-size="10.00">Ball()</text>
<polygon fill="#666666" stroke="#666666" points="151,-191.5 151,-191.5 199,-191.5 199,-191.5 151,-191.5"/>
<polygon fill="#666666" stroke="#666666" points="151,-176.5 151,-176.5 199,-176.5 199,-176.5 151,-176.5"/>
<polygon fill="none" stroke="#666666" points="151,-160 151,-209 199,-209 199,-160 151,-160"/>
</a>
</g>
</g>
<!-- Node1&#45;&gt;Node2 -->
<g id="edge1" class="edge">
<title>Node1&#45;&gt;Node2</title>
<path fill="none" stroke="#63b8ff" d="M197.47,-279.71C191.03,-252.7 184.88,-226.92 180.65,-209.18"/>
<polygon fill="none" stroke="#63b8ff" points="194.13,-280.8 199.86,-289.71 200.94,-279.17 194.13,-280.8"/>
</g>
<!-- Node3 -->
<g id="node3" class="node">
<title>Node3</title>
<g id="a_node3"><a xlink:href="classPowerUp.html" target="_top" xlink:title="The PowerUp class represents a base class for power&#45;up objects.">
<polygon fill="white" stroke="transparent" points="341,-254 217,-254 217,-115 341,-115 341,-254"/>
<text text-anchor="start" x="257" y="-241.5" font-family="Helvetica,sans-Serif" font-size="10.00">PowerUp</text>
<text text-anchor="start" x="221" y="-226.5" font-family="Helvetica,sans-Serif" font-size="10.00">#</text>
<text text-anchor="start" x="234" y="-226.5" font-family="Helvetica,sans-Serif" font-size="10.00">_current_duration</text>
<text text-anchor="start" x="221" y="-211.5" font-family="Helvetica,sans-Serif" font-size="10.00">#</text>
<text text-anchor="start" x="234" y="-211.5" font-family="Helvetica,sans-Serif" font-size="10.00">_active</text>
<text text-anchor="start" x="221" y="-196.5" font-family="Helvetica,sans-Serif" font-size="10.00">+</text>
<text text-anchor="start" x="234" y="-196.5" font-family="Helvetica,sans-Serif" font-size="10.00">PowerUp()</text>
<text text-anchor="start" x="221" y="-181.5" font-family="Helvetica,sans-Serif" font-size="10.00">+</text>
<text text-anchor="start" x="234" y="-181.5" font-family="Helvetica,sans-Serif" font-size="10.00">applyPowerUp()</text>
<text text-anchor="start" x="221" y="-166.5" font-family="Helvetica,sans-Serif" font-size="10.00">+</text>
<text text-anchor="start" x="234" y="-166.5" font-family="Helvetica,sans-Serif" font-size="10.00">unApplyPowerUp()</text>
<text text-anchor="start" x="221" y="-151.5" font-family="Helvetica,sans-Serif" font-size="10.00">+</text>
<text text-anchor="start" x="234" y="-151.5" font-family="Helvetica,sans-Serif" font-size="10.00">isActive()</text>
<text text-anchor="start" x="221" y="-136.5" font-family="Helvetica,sans-Serif" font-size="10.00">+</text>
<text text-anchor="start" x="234" y="-136.5" font-family="Helvetica,sans-Serif" font-size="10.00">decrementDuration()</text>
<text text-anchor="start" x="221" y="-121.5" font-family="Helvetica,sans-Serif" font-size="10.00">+</text>
<text text-anchor="start" x="234" y="-121.5" font-family="Helvetica,sans-Serif" font-size="10.00">getDuration()</text>
<polygon fill="#666666" stroke="#666666" points="217,-236.5 217,-236.5 341,-236.5 341,-236.5 217,-236.5"/>
<polygon fill="#666666" stroke="#666666" points="217,-206.5 217,-206.5 232,-206.5 232,-206.5 217,-206.5"/>
<polygon fill="#666666" stroke="#666666" points="232,-206.5 232,-206.5 341,-206.5 341,-206.5 232,-206.5"/>
<polygon fill="none" stroke="#666666" points="217,-115 217,-254 341,-254 341,-115 217,-115"/>
</a>
</g>
</g>
<!-- Node1&#45;&gt;Node3 -->
<g id="edge2" class="edge">
<title>Node1&#45;&gt;Node3</title>
<path fill="none" stroke="#63b8ff" d="M256.52,-279.75C258.61,-270.96 260.68,-262.31 262.66,-254.02"/>
<polygon fill="none" stroke="#63b8ff" points="253.06,-279.17 254.14,-289.71 259.87,-280.8 253.06,-279.17"/>
</g>
<!-- Node4 -->
<g id="node4" class="node">
<title>Node4</title>
<g id="a_node4"><a xlink:href="classAddBallPowerUp.html" target="_top" xlink:title="The AddBallPowerUp class represents a power&#45;up that adds a ball to the game.">
<polygon fill="white" stroke="transparent" points="112,-79 0,-79 0,0 112,0 112,-79"/>
<text text-anchor="start" x="15" y="-66.5" font-family="Helvetica,sans-Serif" font-size="10.00">AddBallPowerUp</text>
<text text-anchor="start" x="54" y="-51.5" font-family="Helvetica,sans-Serif" font-size="10.00"> </text>
<text text-anchor="start" x="4" y="-36.5" font-family="Helvetica,sans-Serif" font-size="10.00">+</text>
<text text-anchor="start" x="17" y="-36.5" font-family="Helvetica,sans-Serif" font-size="10.00">AddBallPowerUp()</text>
<text text-anchor="start" x="4" y="-21.5" font-family="Helvetica,sans-Serif" font-size="10.00">+</text>
<text text-anchor="start" x="17" y="-21.5" font-family="Helvetica,sans-Serif" font-size="10.00">applyPowerUp()</text>
<text text-anchor="start" x="4" y="-6.5" font-family="Helvetica,sans-Serif" font-size="10.00">+</text>
<text text-anchor="start" x="17" y="-6.5" font-family="Helvetica,sans-Serif" font-size="10.00">unApplyPowerUp()</text>
<polygon fill="#666666" stroke="#666666" points="0,-61.5 0,-61.5 112,-61.5 112,-61.5 0,-61.5"/>
<polygon fill="#666666" stroke="#666666" points="0,-46.5 0,-46.5 112,-46.5 112,-46.5 0,-46.5"/>
<polygon fill="none" stroke="#666666" points="0,0 0,-79 112,-79 112,0 0,0"/>
</a>
</g>
</g>
<!-- Node3&#45;&gt;Node4 -->
<g id="edge3" class="edge">
<title>Node3&#45;&gt;Node4</title>
<path fill="none" stroke="#63b8ff" d="M208.56,-115.37C208.38,-115.25 208.19,-115.12 208,-115 173,-92.07 158.43,-97.71 121,-79 118.07,-77.53 115.09,-75.99 112.1,-74.39"/>
<polygon fill="none" stroke="#63b8ff" points="206.77,-118.39 216.96,-121.29 210.8,-112.67 206.77,-118.39"/>
</g>
<!-- Node5 -->
<g id="node5" class="node">
<title>Node5</title>
<g id="a_node5"><a xlink:href="classDuplicateBallPowerUp.html" target="_top" xlink:title="The DuplicateBallPowerUp class represents a power&#45;up that duplicates the current ball.">
<polygon fill="white" stroke="transparent" points="268,-79 130,-79 130,0 268,0 268,-79"/>
<text text-anchor="start" x="144.5" y="-66.5" font-family="Helvetica,sans-Serif" font-size="10.00">DuplicateBallPowerUp</text>
<text text-anchor="start" x="197" y="-51.5" font-family="Helvetica,sans-Serif" font-size="10.00"> </text>
<text text-anchor="start" x="134" y="-36.5" font-family="Helvetica,sans-Serif" font-size="10.00">+</text>
<text text-anchor="start" x="147" y="-36.5" font-family="Helvetica,sans-Serif" font-size="10.00">DuplicateBallPowerUp()</text>
<text text-anchor="start" x="134" y="-21.5" font-family="Helvetica,sans-Serif" font-size="10.00">+</text>
<text text-anchor="start" x="147" y="-21.5" font-family="Helvetica,sans-Serif" font-size="10.00">applyPowerUp()</text>
<text text-anchor="start" x="134" y="-6.5" font-family="Helvetica,sans-Serif" font-size="10.00">+</text>
<text text-anchor="start" x="147" y="-6.5" font-family="Helvetica,sans-Serif" font-size="10.00">unApplyPowerUp()</text>
<polygon fill="#666666" stroke="#666666" points="130,-61.5 130,-61.5 268,-61.5 268,-61.5 130,-61.5"/>
<polygon fill="#666666" stroke="#666666" points="130,-46.5 130,-46.5 268,-46.5 268,-46.5 130,-46.5"/>
<polygon fill="none" stroke="#666666" points="130,0 130,-79 268,-79 268,0 130,0"/>
</a>
</g>
</g>
<!-- Node3&#45;&gt;Node5 -->
<g id="edge4" class="edge">
<title>Node3&#45;&gt;Node5</title>
<path fill="none" stroke="#63b8ff" d="M235.63,-105.97C230.41,-96.65 225.28,-87.47 220.58,-79.07"/>
<polygon fill="none" stroke="#63b8ff" points="232.7,-107.91 240.64,-114.93 238.81,-104.5 232.7,-107.91"/>
</g>
<!-- Node6 -->
<g id="node6" class="node">
<title>Node6</title>
<g id="a_node6"><a xlink:href="classExtendPlatformPowerUp.html" target="_top" xlink:title="The ExtendPlatformPowerUp class represents a power&#45;up that extends the platform size.">
<polygon fill="white" stroke="transparent" points="434,-79 286,-79 286,0 434,0 434,-79"/>
<text text-anchor="start" x="300" y="-66.5" font-family="Helvetica,sans-Serif" font-size="10.00">ExtendPlatformPowerUp</text>
<text text-anchor="start" x="358" y="-51.5" font-family="Helvetica,sans-Serif" font-size="10.00"> </text>
<text text-anchor="start" x="290" y="-36.5" font-family="Helvetica,sans-Serif" font-size="10.00">+</text>
<text text-anchor="start" x="303" y="-36.5" font-family="Helvetica,sans-Serif" font-size="10.00">ExtendPlatformPowerUp()</text>
<text text-anchor="start" x="290" y="-21.5" font-family="Helvetica,sans-Serif" font-size="10.00">+</text>
<text text-anchor="start" x="303" y="-21.5" font-family="Helvetica,sans-Serif" font-size="10.00">applyPowerUp()</text>
<text text-anchor="start" x="290" y="-6.5" font-family="Helvetica,sans-Serif" font-size="10.00">+</text>
<text text-anchor="start" x="303" y="-6.5" font-family="Helvetica,sans-Serif" font-size="10.00">unApplyPowerUp()</text>
<polygon fill="#666666" stroke="#666666" points="286,-61.5 286,-61.5 434,-61.5 434,-61.5 286,-61.5"/>
<polygon fill="#666666" stroke="#666666" points="286,-46.5 286,-46.5 434,-46.5 434,-46.5 286,-46.5"/>
<polygon fill="none" stroke="#666666" points="286,0 286,-79 434,-79 434,0 286,0"/>
</a>
</g>
</g>
<!-- Node3&#45;&gt;Node6 -->
<g id="edge5" class="edge">
<title>Node3&#45;&gt;Node6</title>
<path fill="none" stroke="#63b8ff" d="M322.91,-105.97C328.19,-96.65 333.39,-87.47 338.16,-79.07"/>
<polygon fill="none" stroke="#63b8ff" points="319.72,-104.51 317.84,-114.93 325.81,-107.96 319.72,-104.51"/>
</g>
<!-- Node7 -->
<g id="node7" class="node">
<title>Node7</title>
<g id="a_node7"><a xlink:href="classSpeedUpPowerUp.html" target="_top" xlink:title="The SpeedUpPowerUp class represents a power&#45;up that speeds up the ball.">
<polygon fill="white" stroke="transparent" points="568,-79 452,-79 452,0 568,0 568,-79"/>
<text text-anchor="start" x="466" y="-66.5" font-family="Helvetica,sans-Serif" font-size="10.00">SpeedUpPowerUp</text>
<text text-anchor="start" x="508" y="-51.5" font-family="Helvetica,sans-Serif" font-size="10.00"> </text>
<text text-anchor="start" x="456" y="-36.5" font-family="Helvetica,sans-Serif" font-size="10.00">+</text>
<text text-anchor="start" x="469" y="-36.5" font-family="Helvetica,sans-Serif" font-size="10.00">SpeedUpPowerUp()</text>
<text text-anchor="start" x="456" y="-21.5" font-family="Helvetica,sans-Serif" font-size="10.00">+</text>
<text text-anchor="start" x="469" y="-21.5" font-family="Helvetica,sans-Serif" font-size="10.00">applyPowerUp()</text>
<text text-anchor="start" x="456" y="-6.5" font-family="Helvetica,sans-Serif" font-size="10.00">+</text>
<text text-anchor="start" x="469" y="-6.5" font-family="Helvetica,sans-Serif" font-size="10.00">unApplyPowerUp()</text>
<polygon fill="#666666" stroke="#666666" points="452,-61.5 452,-61.5 568,-61.5 568,-61.5 452,-61.5"/>
<polygon fill="#666666" stroke="#666666" points="452,-46.5 452,-46.5 568,-46.5 568,-46.5 452,-46.5"/>
<polygon fill="none" stroke="#666666" points="452,0 452,-79 568,-79 568,0 452,0"/>
</a>
</g>
</g>
<!-- Node3&#45;&gt;Node7 -->
<g id="edge6" class="edge">
<title>Node3&#45;&gt;Node7</title>
<path fill="none" stroke="#63b8ff" d="M349.81,-139.66C382.45,-119.46 420.71,-95.77 451.65,-76.62"/>
<polygon fill="none" stroke="#63b8ff" points="347.87,-136.75 341.21,-144.99 351.55,-142.7 347.87,-136.75"/>
</g>
</g>
</svg>
