<?xml version="1.0" encoding="UTF-8" standalone="no"?>
<!DOCTYPE svg PUBLIC "-//W3C//DTD SVG 1.1//EN"
 "http://www.w3.org/Graphics/SVG/1.1/DTD/svg11.dtd">
<!-- Generated by graphviz version 2.43.0 (0)
 -->
<!-- Title: BrickBreakerMenu Pages: 1 -->
<svg width="147pt" height="517pt"
 viewBox="0.00 0.00 147.00 517.00" xmlns="http://www.w3.org/2000/svg" xmlns:xlink="http://www.w3.org/1999/xlink">
<g id="graph0" class="graph" transform="scale(1 1) rotate(0) translate(4 513)">
<title>BrickBreakerMenu</title>
<!-- Node1 -->
<g id="node1" class="node">
<title>Node1</title>
<g id="a_node1"><a xlink:title="Represents the main menu of the BrickBreaker game.">
<polygon fill="#999999" stroke="transparent" points="128.5,-289 10.5,-289 10.5,0 128.5,0 128.5,-289"/>
<text text-anchor="start" x="24.5" y="-276.5" font-family="Helvetica,sans-Serif" font-size="10.00">BrickBreakerMenu</text>
<text text-anchor="start" x="17" y="-261.5" font-family="Helvetica,sans-Serif" font-size="10.00">&#45;</text>
<text text-anchor="start" x="27.5" y="-261.5" font-family="Helvetica,sans-Serif" font-size="10.00">_selected_level</text>
<text text-anchor="start" x="17" y="-246.5" font-family="Helvetica,sans-Serif" font-size="10.00">&#45;</text>
<text text-anchor="start" x="27.5" y="-246.5" font-family="Helvetica,sans-Serif" font-size="10.00">_num_rows</text>
<text text-anchor="start" x="17" y="-231.5" font-family="Helvetica,sans-Serif" font-size="10.00">&#45;</text>
<text text-anchor="start" x="27.5" y="-231.5" font-family="Helvetica,sans-Serif" font-size="10.00">_num_columns</text>
<text text-anchor="start" x="17" y="-216.5" font-family="Helvetica,sans-Serif" font-size="10.00">&#45;</text>
<text text-anchor="start" x="27.5" y="-216.5" font-family="Helvetica,sans-Serif" font-size="10.00">_levels</text>
<text text-anchor="start" x="17" y="-201.5" font-family="Helvetica,sans-Serif" font-size="10.00">&#45;</text>
<text text-anchor="start" x="27.5" y="-201.5" font-family="Helvetica,sans-Serif" font-size="10.00">_brick_breaker</text>
<text text-anchor="start" x="17" y="-186.5" font-family="Helvetica,sans-Serif" font-size="10.00">&#45;</text>
<text text-anchor="start" x="27.5" y="-186.5" font-family="Helvetica,sans-Serif" font-size="10.00">_background</text>
<text text-anchor="start" x="17" y="-171.5" font-family="Helvetica,sans-Serif" font-size="10.00">&#45;</text>
<text text-anchor="start" x="27.5" y="-171.5" font-family="Helvetica,sans-Serif" font-size="10.00">_current_page</text>
<text text-anchor="start" x="17" y="-156.5" font-family="Helvetica,sans-Serif" font-size="10.00">&#45;</text>
<text text-anchor="start" x="27.5" y="-156.5" font-family="Helvetica,sans-Serif" font-size="10.00">_num_pages</text>
<text text-anchor="start" x="17" y="-141.5" font-family="Helvetica,sans-Serif" font-size="10.00">&#45;</text>
<text text-anchor="start" x="27.5" y="-141.5" font-family="Helvetica,sans-Serif" font-size="10.00">_font</text>
<text text-anchor="start" x="14.5" y="-126.5" font-family="Helvetica,sans-Serif" font-size="10.00">+</text>
<text text-anchor="start" x="27.5" y="-126.5" font-family="Helvetica,sans-Serif" font-size="10.00">BrickBreakerMenu()</text>
<text text-anchor="start" x="14.5" y="-111.5" font-family="Helvetica,sans-Serif" font-size="10.00">+</text>
<text text-anchor="start" x="27.5" y="-111.5" font-family="Helvetica,sans-Serif" font-size="10.00">handleEvents()</text>
<text text-anchor="start" x="14.5" y="-96.5" font-family="Helvetica,sans-Serif" font-size="10.00">+</text>
<text text-anchor="start" x="27.5" y="-96.5" font-family="Helvetica,sans-Serif" font-size="10.00">update()</text>
<text text-anchor="start" x="14.5" y="-81.5" font-family="Helvetica,sans-Serif" font-size="10.00">+</text>
<text text-anchor="start" x="27.5" y="-81.5" font-family="Helvetica,sans-Serif" font-size="10.00">render()</text>
<text text-anchor="start" x="14.5" y="-66.5" font-family="Helvetica,sans-Serif" font-size="10.00">+</text>
<text text-anchor="start" x="27.5" y="-66.5" font-family="Helvetica,sans-Serif" font-size="10.00">initSurface()</text>
<text text-anchor="start" x="17" y="-51.5" font-family="Helvetica,sans-Serif" font-size="10.00">&#45;</text>
<text text-anchor="start" x="27.5" y="-51.5" font-family="Helvetica,sans-Serif" font-size="10.00">getPadding()</text>
<text text-anchor="start" x="17" y="-36.5" font-family="Helvetica,sans-Serif" font-size="10.00">&#45;</text>
<text text-anchor="start" x="27.5" y="-36.5" font-family="Helvetica,sans-Serif" font-size="10.00">getFontSize()</text>
<text text-anchor="start" x="17" y="-21.5" font-family="Helvetica,sans-Serif" font-size="10.00">&#45;</text>
<text text-anchor="start" x="27.5" y="-21.5" font-family="Helvetica,sans-Serif" font-size="10.00">handleResize()</text>
<text text-anchor="start" x="17" y="-6.5" font-family="Helvetica,sans-Serif" font-size="10.00">&#45;</text>
<text text-anchor="start" x="27.5" y="-6.5" font-family="Helvetica,sans-Serif" font-size="10.00">reloadBackground()</text>
<polygon fill="#666666" stroke="#666666" points="10.5,-271.5 10.5,-271.5 128.5,-271.5 128.5,-271.5 10.5,-271.5"/>
<polygon fill="#666666" stroke="#666666" points="10.5,-136.5 10.5,-136.5 25.5,-136.5 25.5,-136.5 10.5,-136.5"/>
<polygon fill="#666666" stroke="#666666" points="25.5,-136.5 25.5,-136.5 128.5,-136.5 128.5,-136.5 25.5,-136.5"/>
<polygon fill="none" stroke="#666666" points="10.5,0 10.5,-289 128.5,-289 128.5,0 10.5,0"/>
</a>
</g>
</g>
<!-- Node2 -->
<g id="node2" class="node">
<title>Node2</title>
<g id="a_node2"><a xlink:href="classSDLComponent.html" target="_top" xlink:title="The SDLComponent class represents a base class for SDL components.">
<polygon fill="white" stroke="transparent" points="139,-509 0,-509 0,-325 139,-325 139,-509"/>
<text text-anchor="start" x="32" y="-497" font-family="Helvetica,sans-Serif" font-size="10.00">SDLComponent</text>
<text text-anchor="start" x="4.5" y="-482" font-family="Helvetica,sans-Serif" font-size="10.00">#</text>
<text text-anchor="start" x="17.5" y="-482" font-family="Helvetica,sans-Serif" font-size="10.00">_surface</text>
<text text-anchor="start" x="4.5" y="-467" font-family="Helvetica,sans-Serif" font-size="10.00">#</text>
<text text-anchor="start" x="17.5" y="-467" font-family="Helvetica,sans-Serif" font-size="10.00">_is_running</text>
<text text-anchor="start" x="4.5" y="-452" font-family="Helvetica,sans-Serif" font-size="10.00">#</text>
<text text-anchor="start" x="17.5" y="-452" font-family="Helvetica,sans-Serif" font-size="10.00">_renderer</text>
<text text-anchor="start" x="4.5" y="-437" font-family="Helvetica,sans-Serif" font-size="10.00">#</text>
<text text-anchor="start" x="17.5" y="-437" font-family="Helvetica,sans-Serif" font-size="10.00">_texture_manager</text>
<text text-anchor="start" x="4.5" y="-422" font-family="Helvetica,sans-Serif" font-size="10.00">+</text>
<text text-anchor="start" x="17.5" y="-422" font-family="Helvetica,sans-Serif" font-size="10.00">SDLComponent()</text>
<text text-anchor="start" x="4.5" y="-407" font-family="Helvetica,sans-Serif" font-size="10.00">+</text>
<text text-anchor="start" x="17.5" y="-407" font-family="Helvetica,sans-Serif" font-size="10.00">setSurfaceDimensions()</text>
<text text-anchor="start" x="4.5" y="-392" font-family="Helvetica,sans-Serif" font-size="10.00">+</text>
<text text-anchor="start" x="17.5" y="-392" font-family="Helvetica,sans-Serif" font-size="10.00">handleEvents()</text>
<text text-anchor="start" x="4.5" y="-377" font-family="Helvetica,sans-Serif" font-size="10.00">+</text>
<text text-anchor="start" x="17.5" y="-377" font-family="Helvetica,sans-Serif" font-size="10.00">update()</text>
<text text-anchor="start" x="4.5" y="-362" font-family="Helvetica,sans-Serif" font-size="10.00">+</text>
<text text-anchor="start" x="17.5" y="-362" font-family="Helvetica,sans-Serif" font-size="10.00">render()</text>
<text text-anchor="start" x="4.5" y="-347" font-family="Helvetica,sans-Serif" font-size="10.00">+</text>
<text text-anchor="start" x="17.5" y="-347" font-family="Helvetica,sans-Serif" font-size="10.00">initSurface()</text>
<text text-anchor="start" x="4.5" y="-332" font-family="Helvetica,sans-Serif" font-size="10.00">+</text>
<text text-anchor="start" x="17.5" y="-332" font-family="Helvetica,sans-Serif" font-size="10.00">isRunning()</text>
<polygon fill="#666666" stroke="#666666" points="0.5,-492 0.5,-492 139.5,-492 139.5,-492 0.5,-492"/>
<polygon fill="#666666" stroke="#666666" points="0.5,-432 0.5,-432 15.5,-432 15.5,-432 0.5,-432"/>
<polygon fill="#666666" stroke="#666666" points="15.5,-432 15.5,-432 139.5,-432 139.5,-432 15.5,-432"/>
<polygon fill="none" stroke="#666666" points="0,-325 0,-509 139,-509 139,-325 0,-325"/>
</a>
</g>
</g>
<!-- Node2&#45;&gt;Node1 -->
<g id="edge1" class="edge">
<title>Node2&#45;&gt;Node1</title>
<path fill="none" stroke="#63b8ff" d="M69.5,-314.71C69.5,-306.36 69.5,-297.83 69.5,-289.24"/>
<polygon fill="none" stroke="#63b8ff" points="66,-314.8 69.5,-324.8 73,-314.8 66,-314.8"/>
</g>
</g>
</svg>
