<?xml version="1.0" encoding="UTF-8" standalone="no"?>
<!DOCTYPE svg PUBLIC "-//W3C//DTD SVG 1.1//EN"
 "http://www.w3.org/Graphics/SVG/1.1/DTD/svg11.dtd">
<!-- Generated by graphviz version 2.43.0 (0)
 -->
<!-- Title: BrickBreaker Pages: 1 -->
<svg width="248pt" height="759pt"
 viewBox="0.00 0.00 247.50 759.00" xmlns="http://www.w3.org/2000/svg" xmlns:xlink="http://www.w3.org/1999/xlink">
<g id="graph0" class="graph" transform="scale(1 1) rotate(0) translate(4 755)">
<title>BrickBreaker</title>
<!-- Node1 -->
<g id="node1" class="node">
<title>Node1</title>
<g id="a_node1"><a xlink:title="The BrickBreaker class represents the main game logic for the Brick Breaker game.">
<polygon fill="#999999" stroke="transparent" points="206,-364 61,-364 61,0 206,0 206,-364"/>
<text text-anchor="start" x="102.5" y="-352" font-family="Helvetica,sans-Serif" font-size="10.00">BrickBreaker</text>
<text text-anchor="start" x="65.5" y="-337" font-family="Helvetica,sans-Serif" font-size="10.00">+</text>
<text text-anchor="start" x="78.5" y="-337" font-family="Helvetica,sans-Serif" font-size="10.00">_BRICK_HEIGHT_LIMIT</text>
<text text-anchor="start" x="68" y="-322" font-family="Helvetica,sans-Serif" font-size="10.00">&#45;</text>
<text text-anchor="start" x="78.5" y="-322" font-family="Helvetica,sans-Serif" font-size="10.00">_bricks</text>
<text text-anchor="start" x="68" y="-307" font-family="Helvetica,sans-Serif" font-size="10.00">&#45;</text>
<text text-anchor="start" x="78.5" y="-307" font-family="Helvetica,sans-Serif" font-size="10.00">_balls</text>
<text text-anchor="start" x="68" y="-292" font-family="Helvetica,sans-Serif" font-size="10.00">&#45;</text>
<text text-anchor="start" x="78.5" y="-292" font-family="Helvetica,sans-Serif" font-size="10.00">_power_ups</text>
<text text-anchor="start" x="68" y="-277" font-family="Helvetica,sans-Serif" font-size="10.00">&#45;</text>
<text text-anchor="start" x="78.5" y="-277" font-family="Helvetica,sans-Serif" font-size="10.00">_grid_dimensions</text>
<text text-anchor="start" x="68" y="-262" font-family="Helvetica,sans-Serif" font-size="10.00">&#45;</text>
<text text-anchor="start" x="78.5" y="-262" font-family="Helvetica,sans-Serif" font-size="10.00">_brick_shape</text>
<text text-anchor="start" x="68" y="-247" font-family="Helvetica,sans-Serif" font-size="10.00">&#45;</text>
<text text-anchor="start" x="78.5" y="-247" font-family="Helvetica,sans-Serif" font-size="10.00">_start_duration</text>
<text text-anchor="start" x="68" y="-232" font-family="Helvetica,sans-Serif" font-size="10.00">&#45;</text>
<text text-anchor="start" x="78.5" y="-232" font-family="Helvetica,sans-Serif" font-size="10.00">_font</text>
<text text-anchor="start" x="65.5" y="-217" font-family="Helvetica,sans-Serif" font-size="10.00">+</text>
<text text-anchor="start" x="78.5" y="-217" font-family="Helvetica,sans-Serif" font-size="10.00">BrickBreaker()</text>
<text text-anchor="start" x="65.5" y="-202" font-family="Helvetica,sans-Serif" font-size="10.00">+</text>
<text text-anchor="start" x="78.5" y="-202" font-family="Helvetica,sans-Serif" font-size="10.00">handleEvents()</text>
<text text-anchor="start" x="65.5" y="-187" font-family="Helvetica,sans-Serif" font-size="10.00">+</text>
<text text-anchor="start" x="78.5" y="-187" font-family="Helvetica,sans-Serif" font-size="10.00">update()</text>
<text text-anchor="start" x="65.5" y="-172" font-family="Helvetica,sans-Serif" font-size="10.00">+</text>
<text text-anchor="start" x="78.5" y="-172" font-family="Helvetica,sans-Serif" font-size="10.00">render()</text>
<text text-anchor="start" x="65.5" y="-157" font-family="Helvetica,sans-Serif" font-size="10.00">+</text>
<text text-anchor="start" x="78.5" y="-157" font-family="Helvetica,sans-Serif" font-size="10.00">initSurface()</text>
<text text-anchor="start" x="65.5" y="-142" font-family="Helvetica,sans-Serif" font-size="10.00">+</text>
<text text-anchor="start" x="78.5" y="-142" font-family="Helvetica,sans-Serif" font-size="10.00">addBall()</text>
<text text-anchor="start" x="65.5" y="-127" font-family="Helvetica,sans-Serif" font-size="10.00">+</text>
<text text-anchor="start" x="78.5" y="-127" font-family="Helvetica,sans-Serif" font-size="10.00">getPlatform()</text>
<text text-anchor="start" x="65.5" y="-112" font-family="Helvetica,sans-Serif" font-size="10.00">+</text>
<text text-anchor="start" x="78.5" y="-112" font-family="Helvetica,sans-Serif" font-size="10.00">getPlatform()</text>
<text text-anchor="start" x="65.5" y="-97" font-family="Helvetica,sans-Serif" font-size="10.00">+</text>
<text text-anchor="start" x="78.5" y="-97" font-family="Helvetica,sans-Serif" font-size="10.00">getBallRadius()</text>
<text text-anchor="start" x="65.5" y="-82" font-family="Helvetica,sans-Serif" font-size="10.00">+</text>
<text text-anchor="start" x="78.5" y="-82" font-family="Helvetica,sans-Serif" font-size="10.00">getInitialBallSpeed()</text>
<text text-anchor="start" x="65.5" y="-67" font-family="Helvetica,sans-Serif" font-size="10.00">+</text>
<text text-anchor="start" x="78.5" y="-67" font-family="Helvetica,sans-Serif" font-size="10.00">getInitialPlatformSpeed()</text>
<text text-anchor="start" x="65.5" y="-52" font-family="Helvetica,sans-Serif" font-size="10.00">+</text>
<text text-anchor="start" x="78.5" y="-52" font-family="Helvetica,sans-Serif" font-size="10.00">getBalls()</text>
<text text-anchor="start" x="68" y="-37" font-family="Helvetica,sans-Serif" font-size="10.00">&#45;</text>
<text text-anchor="start" x="78.5" y="-37" font-family="Helvetica,sans-Serif" font-size="10.00">createBricksFromLevel()</text>
<text text-anchor="start" x="68" y="-22" font-family="Helvetica,sans-Serif" font-size="10.00">&#45;</text>
<text text-anchor="start" x="78.5" y="-22" font-family="Helvetica,sans-Serif" font-size="10.00">handleResize()</text>
<text text-anchor="start" x="68" y="-7" font-family="Helvetica,sans-Serif" font-size="10.00">&#45;</text>
<text text-anchor="start" x="78.5" y="-7" font-family="Helvetica,sans-Serif" font-size="10.00">updateLoop()</text>
<polygon fill="#666666" stroke="#666666" points="61.5,-347 61.5,-347 206.5,-347 206.5,-347 61.5,-347"/>
<polygon fill="#666666" stroke="#666666" points="61.5,-227 61.5,-227 76.5,-227 76.5,-227 61.5,-227"/>
<polygon fill="#666666" stroke="#666666" points="76.5,-227 76.5,-227 206.5,-227 206.5,-227 76.5,-227"/>
<polygon fill="none" stroke="#666666" points="61,0 61,-364 206,-364 206,0 61,0"/>
</a>
</g>
</g>
<!-- Node2 -->
<g id="node2" class="node">
<title>Node2</title>
<g id="a_node2"><a xlink:href="classSDLComponent.html" target="_top" xlink:title="The SDLComponent class represents a base class for SDL components.">
<polygon fill="white" stroke="transparent" points="139,-580 0,-580 0,-411 139,-411 139,-580"/>
<text text-anchor="start" x="32" y="-567.5" font-family="Helvetica,sans-Serif" font-size="10.00">SDLComponent</text>
<text text-anchor="start" x="4.5" y="-552.5" font-family="Helvetica,sans-Serif" font-size="10.00">#</text>
<text text-anchor="start" x="17.5" y="-552.5" font-family="Helvetica,sans-Serif" font-size="10.00">_surface</text>
<text text-anchor="start" x="4.5" y="-537.5" font-family="Helvetica,sans-Serif" font-size="10.00">#</text>
<text text-anchor="start" x="17.5" y="-537.5" font-family="Helvetica,sans-Serif" font-size="10.00">_is_running</text>
<text text-anchor="start" x="4.5" y="-522.5" font-family="Helvetica,sans-Serif" font-size="10.00">#</text>
<text text-anchor="start" x="17.5" y="-522.5" font-family="Helvetica,sans-Serif" font-size="10.00">_renderer</text>
<text text-anchor="start" x="4.5" y="-507.5" font-family="Helvetica,sans-Serif" font-size="10.00">+</text>
<text text-anchor="start" x="17.5" y="-507.5" font-family="Helvetica,sans-Serif" font-size="10.00">SDLComponent()</text>
<text text-anchor="start" x="4.5" y="-492.5" font-family="Helvetica,sans-Serif" font-size="10.00">+</text>
<text text-anchor="start" x="17.5" y="-492.5" font-family="Helvetica,sans-Serif" font-size="10.00">setSurfaceDimensions()</text>
<text text-anchor="start" x="4.5" y="-477.5" font-family="Helvetica,sans-Serif" font-size="10.00">+</text>
<text text-anchor="start" x="17.5" y="-477.5" font-family="Helvetica,sans-Serif" font-size="10.00">handleEvents()</text>
<text text-anchor="start" x="4.5" y="-462.5" font-family="Helvetica,sans-Serif" font-size="10.00">+</text>
<text text-anchor="start" x="17.5" y="-462.5" font-family="Helvetica,sans-Serif" font-size="10.00">update()</text>
<text text-anchor="start" x="4.5" y="-447.5" font-family="Helvetica,sans-Serif" font-size="10.00">+</text>
<text text-anchor="start" x="17.5" y="-447.5" font-family="Helvetica,sans-Serif" font-size="10.00">render()</text>
<text text-anchor="start" x="4.5" y="-432.5" font-family="Helvetica,sans-Serif" font-size="10.00">+</text>
<text text-anchor="start" x="17.5" y="-432.5" font-family="Helvetica,sans-Serif" font-size="10.00">initSurface()</text>
<text text-anchor="start" x="4.5" y="-417.5" font-family="Helvetica,sans-Serif" font-size="10.00">+</text>
<text text-anchor="start" x="17.5" y="-417.5" font-family="Helvetica,sans-Serif" font-size="10.00">isRunning()</text>
<polygon fill="#666666" stroke="#666666" points="0.5,-562.5 0.5,-562.5 139.5,-562.5 139.5,-562.5 0.5,-562.5"/>
<polygon fill="#666666" stroke="#666666" points="0.5,-517.5 0.5,-517.5 15.5,-517.5 15.5,-517.5 0.5,-517.5"/>
<polygon fill="#666666" stroke="#666666" points="15.5,-517.5 15.5,-517.5 139.5,-517.5 139.5,-517.5 15.5,-517.5"/>
<polygon fill="none" stroke="#666666" points="0,-411 0,-580 139,-580 139,-411 0,-411"/>
</a>
</g>
</g>
<!-- Node2&#45;&gt;Node1 -->
<g id="edge1" class="edge">
<title>Node2&#45;&gt;Node1</title>
<path fill="none" stroke="#63b8ff" d="M88.81,-400.54C91.2,-388.9 93.7,-376.71 96.25,-364.3"/>
<polygon fill="none" stroke="#63b8ff" points="85.32,-400.11 86.74,-410.61 92.18,-401.52 85.32,-400.11"/>
</g>
<!-- Node3 -->
<g id="node3" class="node">
<title>Node3</title>
<g id="a_node3"><a xlink:href="classTextureManager.html" target="_top" xlink:title="The TextureManager class manages SDL textures.">
<polygon fill="white" stroke="transparent" points="135.5,-751 3.5,-751 3.5,-627 135.5,-627 135.5,-751"/>
<text text-anchor="start" x="30" y="-739" font-family="Helvetica,sans-Serif" font-size="10.00">TextureManager</text>
<text text-anchor="start" x="10" y="-724" font-family="Helvetica,sans-Serif" font-size="10.00">&#45;</text>
<text text-anchor="start" x="20.5" y="-724" font-family="Helvetica,sans-Serif" font-size="10.00">_textures</text>
<text text-anchor="start" x="7.5" y="-709" font-family="Helvetica,sans-Serif" font-size="10.00">+</text>
<text text-anchor="start" x="20.5" y="-709" font-family="Helvetica,sans-Serif" font-size="10.00">loadDefaultTextures()</text>
<text text-anchor="start" x="7.5" y="-694" font-family="Helvetica,sans-Serif" font-size="10.00">+</text>
<text text-anchor="start" x="20.5" y="-694" font-family="Helvetica,sans-Serif" font-size="10.00">loadTexture()</text>
<text text-anchor="start" x="7.5" y="-679" font-family="Helvetica,sans-Serif" font-size="10.00">+</text>
<text text-anchor="start" x="20.5" y="-679" font-family="Helvetica,sans-Serif" font-size="10.00">getTexture()</text>
<text text-anchor="start" x="7.5" y="-664" font-family="Helvetica,sans-Serif" font-size="10.00">+</text>
<text text-anchor="start" x="20.5" y="-664" font-family="Helvetica,sans-Serif" font-size="10.00">updateTextures()</text>
<text text-anchor="start" x="7.5" y="-649" font-family="Helvetica,sans-Serif" font-size="10.00">+</text>
<text text-anchor="start" x="20.5" y="-649" font-family="Helvetica,sans-Serif" font-size="10.00">clearTextures()</text>
<text text-anchor="start" x="10" y="-634" font-family="Helvetica,sans-Serif" font-size="10.00">&#45;</text>
<text text-anchor="start" x="20.5" y="-634" font-family="Helvetica,sans-Serif" font-size="10.00">createDefaultTexture()</text>
<polygon fill="#666666" stroke="#666666" points="3.5,-734 3.5,-734 135.5,-734 135.5,-734 3.5,-734"/>
<polygon fill="#666666" stroke="#666666" points="3.5,-719 3.5,-719 18.5,-719 18.5,-719 3.5,-719"/>
<polygon fill="#666666" stroke="#666666" points="18.5,-719 18.5,-719 135.5,-719 135.5,-719 18.5,-719"/>
<polygon fill="none" stroke="#666666" points="3.5,-627 3.5,-751 135.5,-751 135.5,-627 3.5,-627"/>
</a>
</g>
</g>
<!-- Node3&#45;&gt;Node2 -->
<g id="edge2" class="edge">
<title>Node3&#45;&gt;Node2</title>
<path fill="none" stroke="#63b8ff" d="M69.5,-626.88C69.5,-615.83 69.5,-604.07 69.5,-592.31"/>
<polygon fill="none" stroke="#63b8ff" points="69.5,-592.09 65.5,-586.09 69.5,-580.09 73.5,-586.09 69.5,-592.09"/>
<text text-anchor="middle" x="120" y="-601" font-family="Helvetica,sans-Serif" font-size="10.00" fill="grey"> #_texture_manager</text>
</g>
<!-- Node4 -->
<g id="node4" class="node">
<title>Node4</title>
<g id="a_node4"><a xlink:href="classPlatform.html" target="_top" xlink:title="The Platform class represents the platform in the game.">
<polygon fill="white" stroke="transparent" points="239.5,-572.5 157.5,-572.5 157.5,-418.5 239.5,-418.5 239.5,-572.5"/>
<text text-anchor="start" x="177" y="-560.5" font-family="Helvetica,sans-Serif" font-size="10.00">Platform</text>
<text text-anchor="start" x="164" y="-545.5" font-family="Helvetica,sans-Serif" font-size="10.00">&#45;</text>
<text text-anchor="start" x="174.5" y="-545.5" font-family="Helvetica,sans-Serif" font-size="10.00">_rect</text>
<text text-anchor="start" x="164" y="-530.5" font-family="Helvetica,sans-Serif" font-size="10.00">&#45;</text>
<text text-anchor="start" x="174.5" y="-530.5" font-family="Helvetica,sans-Serif" font-size="10.00">_speed_x</text>
<text text-anchor="start" x="161.5" y="-515.5" font-family="Helvetica,sans-Serif" font-size="10.00">+</text>
<text text-anchor="start" x="174.5" y="-515.5" font-family="Helvetica,sans-Serif" font-size="10.00">Platform()</text>
<text text-anchor="start" x="161.5" y="-500.5" font-family="Helvetica,sans-Serif" font-size="10.00">+</text>
<text text-anchor="start" x="174.5" y="-500.5" font-family="Helvetica,sans-Serif" font-size="10.00">setRect()</text>
<text text-anchor="start" x="161.5" y="-485.5" font-family="Helvetica,sans-Serif" font-size="10.00">+</text>
<text text-anchor="start" x="174.5" y="-485.5" font-family="Helvetica,sans-Serif" font-size="10.00">getRect()</text>
<text text-anchor="start" x="161.5" y="-470.5" font-family="Helvetica,sans-Serif" font-size="10.00">+</text>
<text text-anchor="start" x="174.5" y="-470.5" font-family="Helvetica,sans-Serif" font-size="10.00">getRect()</text>
<text text-anchor="start" x="161.5" y="-455.5" font-family="Helvetica,sans-Serif" font-size="10.00">+</text>
<text text-anchor="start" x="174.5" y="-455.5" font-family="Helvetica,sans-Serif" font-size="10.00">setSpeedX()</text>
<text text-anchor="start" x="161.5" y="-440.5" font-family="Helvetica,sans-Serif" font-size="10.00">+</text>
<text text-anchor="start" x="174.5" y="-440.5" font-family="Helvetica,sans-Serif" font-size="10.00">update()</text>
<text text-anchor="start" x="161.5" y="-425.5" font-family="Helvetica,sans-Serif" font-size="10.00">+</text>
<text text-anchor="start" x="174.5" y="-425.5" font-family="Helvetica,sans-Serif" font-size="10.00">getSpeedX()</text>
<polygon fill="#666666" stroke="#666666" points="157.5,-555.5 157.5,-555.5 239.5,-555.5 239.5,-555.5 157.5,-555.5"/>
<polygon fill="#666666" stroke="#666666" points="157.5,-525.5 157.5,-525.5 172.5,-525.5 172.5,-525.5 157.5,-525.5"/>
<polygon fill="#666666" stroke="#666666" points="172.5,-525.5 172.5,-525.5 239.5,-525.5 239.5,-525.5 172.5,-525.5"/>
<polygon fill="none" stroke="#666666" points="157.5,-418.5 157.5,-572.5 239.5,-572.5 239.5,-418.5 157.5,-418.5"/>
</a>
</g>
</g>
<!-- Node4&#45;&gt;Node1 -->
<g id="edge3" class="edge">
<title>Node4&#45;&gt;Node1</title>
<path fill="none" stroke="#63b8ff" d="M182.6,-418.3C179.84,-405.08 176.87,-390.82 173.79,-376.08"/>
<polygon fill="none" stroke="#63b8ff" points="173.76,-375.92 168.62,-370.87 171.31,-364.17 176.45,-369.23 173.76,-375.92"/>
<text text-anchor="middle" x="203" y="-385" font-family="Helvetica,sans-Serif" font-size="10.00" fill="grey"> &#45;_platform</text>
</g>
</g>
</svg>
