<?xml version="1.0" encoding="UTF-8" standalone="no"?>
<!DOCTYPE svg PUBLIC "-//W3C//DTD SVG 1.1//EN"
 "http://www.w3.org/Graphics/SVG/1.1/DTD/svg11.dtd">
<!-- Generated by graphviz version 2.43.0 (0)
 -->
<!-- Title: Brick Pages: 1 -->
<svg width="566pt" height="427pt"
 viewBox="0.00 0.00 566.00 427.00" xmlns="http://www.w3.org/2000/svg" xmlns:xlink="http://www.w3.org/1999/xlink">
<g id="graph0" class="graph" transform="scale(1 1) rotate(0) translate(4 423)">
<title>Brick</title>
<!-- Node1 -->
<g id="node1" class="node">
<title>Node1</title>
<g id="a_node1"><a xlink:title="Represents a brick in the game.">
<polygon fill="#999999" stroke="transparent" points="366,-419 192,-419 192,-130 366,-130 366,-419"/>
<text text-anchor="start" x="266.5" y="-406.5" font-family="Helvetica,sans-Serif" font-size="10.00">Brick</text>
<text text-anchor="start" x="196" y="-391.5" font-family="Helvetica,sans-Serif" font-size="10.00">#</text>
<text text-anchor="start" x="209" y="-391.5" font-family="Helvetica,sans-Serif" font-size="10.00">_position</text>
<text text-anchor="start" x="196" y="-376.5" font-family="Helvetica,sans-Serif" font-size="10.00">#</text>
<text text-anchor="start" x="209" y="-376.5" font-family="Helvetica,sans-Serif" font-size="10.00">_vertices</text>
<text text-anchor="start" x="196" y="-361.5" font-family="Helvetica,sans-Serif" font-size="10.00">#</text>
<text text-anchor="start" x="209" y="-361.5" font-family="Helvetica,sans-Serif" font-size="10.00">_color</text>
<text text-anchor="start" x="196" y="-346.5" font-family="Helvetica,sans-Serif" font-size="10.00">#</text>
<text text-anchor="start" x="209" y="-346.5" font-family="Helvetica,sans-Serif" font-size="10.00">_resistance</text>
<text text-anchor="start" x="196" y="-331.5" font-family="Helvetica,sans-Serif" font-size="10.00">#</text>
<text text-anchor="start" x="209" y="-331.5" font-family="Helvetica,sans-Serif" font-size="10.00">_max_resistance</text>
<text text-anchor="start" x="196" y="-316.5" font-family="Helvetica,sans-Serif" font-size="10.00">#</text>
<text text-anchor="start" x="209" y="-316.5" font-family="Helvetica,sans-Serif" font-size="10.00">_powerUp</text>
<text text-anchor="start" x="196" y="-301.5" font-family="Helvetica,sans-Serif" font-size="10.00">+</text>
<text text-anchor="start" x="209" y="-301.5" font-family="Helvetica,sans-Serif" font-size="10.00">Brick()</text>
<text text-anchor="start" x="196" y="-286.5" font-family="Helvetica,sans-Serif" font-size="10.00">+</text>
<text text-anchor="start" x="209" y="-286.5" font-family="Helvetica,sans-Serif" font-size="10.00">getResistance()</text>
<text text-anchor="start" x="196" y="-271.5" font-family="Helvetica,sans-Serif" font-size="10.00">+</text>
<text text-anchor="start" x="209" y="-271.5" font-family="Helvetica,sans-Serif" font-size="10.00">decreaseResistance()</text>
<text text-anchor="start" x="196" y="-256.5" font-family="Helvetica,sans-Serif" font-size="10.00">+</text>
<text text-anchor="start" x="209" y="-256.5" font-family="Helvetica,sans-Serif" font-size="10.00">getResistancePercentage()</text>
<text text-anchor="start" x="196" y="-241.5" font-family="Helvetica,sans-Serif" font-size="10.00">+</text>
<text text-anchor="start" x="209" y="-241.5" font-family="Helvetica,sans-Serif" font-size="10.00">getColor()</text>
<text text-anchor="start" x="196" y="-226.5" font-family="Helvetica,sans-Serif" font-size="10.00">+</text>
<text text-anchor="start" x="209" y="-226.5" font-family="Helvetica,sans-Serif" font-size="10.00">getPowerUp()</text>
<text text-anchor="start" x="196" y="-211.5" font-family="Helvetica,sans-Serif" font-size="10.00">+</text>
<text text-anchor="start" x="209" y="-211.5" font-family="Helvetica,sans-Serif" font-size="10.00">getVertices()</text>
<text text-anchor="start" x="196" y="-196.5" font-family="Helvetica,sans-Serif" font-size="10.00">+</text>
<text text-anchor="start" x="209" y="-196.5" font-family="Helvetica,sans-Serif" font-size="10.00">getVerticesWithoutColor()</text>
<text text-anchor="start" x="196" y="-181.5" font-family="Helvetica,sans-Serif" font-size="10.00">+</text>
<text text-anchor="start" x="209" y="-181.5" font-family="Helvetica,sans-Serif" font-size="10.00">getIndices()</text>
<text text-anchor="start" x="196" y="-166.5" font-family="Helvetica,sans-Serif" font-size="10.00">+</text>
<text text-anchor="start" x="209" y="-166.5" font-family="Helvetica,sans-Serif" font-size="10.00">calculateVerticesWithPosition()</text>
<text text-anchor="start" x="196" y="-151.5" font-family="Helvetica,sans-Serif" font-size="10.00">+</text>
<text text-anchor="start" x="209" y="-151.5" font-family="Helvetica,sans-Serif" font-size="10.00">getCenter()</text>
<text text-anchor="start" x="196" y="-136.5" font-family="Helvetica,sans-Serif" font-size="10.00">#</text>
<text text-anchor="start" x="209" y="-136.5" font-family="Helvetica,sans-Serif" font-size="10.00">GenerateTintAndShadeColors()</text>
<polygon fill="#666666" stroke="#666666" points="192,-401.5 192,-401.5 366,-401.5 366,-401.5 192,-401.5"/>
<polygon fill="#666666" stroke="#666666" points="192,-311.5 192,-311.5 207,-311.5 207,-311.5 192,-311.5"/>
<polygon fill="#666666" stroke="#666666" points="207,-311.5 207,-311.5 366,-311.5 366,-311.5 207,-311.5"/>
<polygon fill="none" stroke="#666666" points="192,-130 192,-419 366,-419 366,-130 192,-130"/>
</a>
</g>
</g>
<!-- Node2 -->
<g id="node2" class="node">
<title>Node2</title>
<g id="a_node2"><a xlink:href="classBrickHexagonal.html" target="_top" xlink:title="Represents a hexagonal brick.">
<polygon fill="white" stroke="transparent" points="174,-94 0,-94 0,0 174,0 174,-94"/>
<text text-anchor="start" x="48" y="-82" font-family="Helvetica,sans-Serif" font-size="10.00">BrickHexagonal</text>
<text text-anchor="start" x="85" y="-67" font-family="Helvetica,sans-Serif" font-size="10.00"> </text>
<text text-anchor="start" x="4" y="-52" font-family="Helvetica,sans-Serif" font-size="10.00">+</text>
<text text-anchor="start" x="17" y="-52" font-family="Helvetica,sans-Serif" font-size="10.00">BrickHexagonal()</text>
<text text-anchor="start" x="4" y="-37" font-family="Helvetica,sans-Serif" font-size="10.00">+</text>
<text text-anchor="start" x="17" y="-37" font-family="Helvetica,sans-Serif" font-size="10.00">calculateVerticesWithPosition()</text>
<text text-anchor="start" x="4" y="-22" font-family="Helvetica,sans-Serif" font-size="10.00">+</text>
<text text-anchor="start" x="17" y="-22" font-family="Helvetica,sans-Serif" font-size="10.00">getIndices()</text>
<text text-anchor="start" x="4" y="-7" font-family="Helvetica,sans-Serif" font-size="10.00">+</text>
<text text-anchor="start" x="17" y="-7" font-family="Helvetica,sans-Serif" font-size="10.00">getCenter()</text>
<polygon fill="#666666" stroke="#666666" points="0,-77 0,-77 174,-77 174,-77 0,-77"/>
<polygon fill="#666666" stroke="#666666" points="0,-62 0,-62 174,-62 174,-62 0,-62"/>
<polygon fill="none" stroke="#666666" points="0,0 0,-94 174,-94 174,0 0,0"/>
</a>
</g>
</g>
<!-- Node1&#45;&gt;Node2 -->
<g id="edge1" class="edge">
<title>Node1&#45;&gt;Node2</title>
<path fill="none" stroke="#63b8ff" d="M185.5,-163.69C164.56,-139.1 143.47,-114.32 126.2,-94.04"/>
<polygon fill="none" stroke="#63b8ff" points="182.84,-165.96 191.99,-171.31 188.17,-161.42 182.84,-165.96"/>
</g>
<!-- Node3 -->
<g id="node3" class="node">
<title>Node3</title>
<g id="a_node3"><a xlink:href="classBrickRectangular.html" target="_top" xlink:title="Represents a rectangular brick.">
<polygon fill="white" stroke="transparent" points="366,-94 192,-94 192,0 366,0 366,-94"/>
<text text-anchor="start" x="237" y="-82" font-family="Helvetica,sans-Serif" font-size="10.00">BrickRectangular</text>
<text text-anchor="start" x="277" y="-67" font-family="Helvetica,sans-Serif" font-size="10.00"> </text>
<text text-anchor="start" x="196" y="-52" font-family="Helvetica,sans-Serif" font-size="10.00">+</text>
<text text-anchor="start" x="209" y="-52" font-family="Helvetica,sans-Serif" font-size="10.00">BrickRectangular()</text>
<text text-anchor="start" x="196" y="-37" font-family="Helvetica,sans-Serif" font-size="10.00">+</text>
<text text-anchor="start" x="209" y="-37" font-family="Helvetica,sans-Serif" font-size="10.00">calculateVerticesWithPosition()</text>
<text text-anchor="start" x="196" y="-22" font-family="Helvetica,sans-Serif" font-size="10.00">+</text>
<text text-anchor="start" x="209" y="-22" font-family="Helvetica,sans-Serif" font-size="10.00">getIndices()</text>
<text text-anchor="start" x="196" y="-7" font-family="Helvetica,sans-Serif" font-size="10.00">+</text>
<text text-anchor="start" x="209" y="-7" font-family="Helvetica,sans-Serif" font-size="10.00">getCenter()</text>
<polygon fill="#666666" stroke="#666666" points="192,-77 192,-77 366,-77 366,-77 192,-77"/>
<polygon fill="#666666" stroke="#666666" points="192,-62 192,-62 366,-62 366,-62 192,-62"/>
<polygon fill="none" stroke="#666666" points="192,0 192,-94 366,-94 366,0 192,0"/>
</a>
</g>
</g>
<!-- Node1&#45;&gt;Node3 -->
<g id="edge2" class="edge">
<title>Node1&#45;&gt;Node3</title>
<path fill="none" stroke="#63b8ff" d="M279,-119.5C279,-110.58 279,-102.05 279,-94.2"/>
<polygon fill="none" stroke="#63b8ff" points="275.5,-119.73 279,-129.73 282.5,-119.73 275.5,-119.73"/>
</g>
<!-- Node4 -->
<g id="node4" class="node">
<title>Node4</title>
<g id="a_node4"><a xlink:href="classBrickTriangular.html" target="_top" xlink:title="Represents a triangular brick.">
<polygon fill="white" stroke="transparent" points="558,-94 384,-94 384,0 558,0 558,-94"/>
<text text-anchor="start" x="434.5" y="-82" font-family="Helvetica,sans-Serif" font-size="10.00">BrickTriangular</text>
<text text-anchor="start" x="469" y="-67" font-family="Helvetica,sans-Serif" font-size="10.00"> </text>
<text text-anchor="start" x="388" y="-52" font-family="Helvetica,sans-Serif" font-size="10.00">+</text>
<text text-anchor="start" x="401" y="-52" font-family="Helvetica,sans-Serif" font-size="10.00">BrickTriangular()</text>
<text text-anchor="start" x="388" y="-37" font-family="Helvetica,sans-Serif" font-size="10.00">+</text>
<text text-anchor="start" x="401" y="-37" font-family="Helvetica,sans-Serif" font-size="10.00">calculateVerticesWithPosition()</text>
<text text-anchor="start" x="388" y="-22" font-family="Helvetica,sans-Serif" font-size="10.00">+</text>
<text text-anchor="start" x="401" y="-22" font-family="Helvetica,sans-Serif" font-size="10.00">getIndices()</text>
<text text-anchor="start" x="388" y="-7" font-family="Helvetica,sans-Serif" font-size="10.00">+</text>
<text text-anchor="start" x="401" y="-7" font-family="Helvetica,sans-Serif" font-size="10.00">getCenter()</text>
<polygon fill="#666666" stroke="#666666" points="384,-77 384,-77 558,-77 558,-77 384,-77"/>
<polygon fill="#666666" stroke="#666666" points="384,-62 384,-62 558,-62 558,-62 384,-62"/>
<polygon fill="none" stroke="#666666" points="384,0 384,-94 558,-94 558,0 384,0"/>
</a>
</g>
</g>
<!-- Node1&#45;&gt;Node4 -->
<g id="edge3" class="edge">
<title>Node1&#45;&gt;Node4</title>
<path fill="none" stroke="#63b8ff" d="M372.5,-163.69C393.44,-139.1 414.53,-114.32 431.8,-94.04"/>
<polygon fill="none" stroke="#63b8ff" points="369.83,-161.42 366.01,-171.31 375.16,-165.96 369.83,-161.42"/>
</g>
</g>
</svg>
