<?xml version="1.0" encoding="UTF-8" standalone="no"?>
<!DOCTYPE svg PUBLIC "-//W3C//DTD SVG 1.1//EN"
 "http://www.w3.org/Graphics/SVG/1.1/DTD/svg11.dtd">
<!-- Generated by graphviz version 2.43.0 (0)
 -->
<!-- Title: Brick Pages: 1 -->
<!--zoomable 427 -->
<svg id="main" version="1.1" xmlns="http://www.w3.org/2000/svg" xmlns:xlink="http://www.w3.org/1999/xlink" xml:space="preserve" onload="init(evt)">
<style type="text/css"><![CDATA[
.edge:hover path { stroke: red; }
.edge:hover polygon { stroke: red; fill: red; }
]]></style>
<script type="text/javascript"><![CDATA[
var edges = document.getElementsByTagName('g');
if (edges && edges.length) {
  for (var i=0;i<edges.length;i++) {
    if (edges[i].id.substr(0,4)=='edge') {
      edges[i].setAttribute('class','edge');
    }
  }
}
]]></script>
        <defs>
                <circle id="rim" cx="0" cy="0" r="7"/>
                <circle id="rim2" cx="0" cy="0" r="3.5"/>
                <g id="zoomPlus">
                        <use xlink:href="#rim" fill="#404040">
                                <set attributeName="fill" to="#808080" begin="zoomplus.mouseover" end="zoomplus.mouseout"/>
                        </use>
                        <path d="M-4,0h8M0,-4v8" fill="none" stroke="white" stroke-width="1.5" pointer-events="none"/>
                </g>
                <g id="zoomMin">
                        <use xlink:href="#rim" fill="#404040">
                                <set attributeName="fill" to="#808080" begin="zoomminus.mouseover" end="zoomminus.mouseout"/>
                        </use>
                        <path d="M-4,0h8" fill="none" stroke="white" stroke-width="1.5" pointer-events="none"/>
                </g>
                <g id="dirArrow">
                        <path fill="none" stroke="white" stroke-width="1.5" d="M0,-3.0v7 M-2.5,-0.5L0,-3.0L2.5,-0.5"/>
                </g>
               <g id="resetDef">
                       <use xlink:href="#rim2" fill="#404040">
                               <set attributeName="fill" to="#808080" begin="reset.mouseover" end="reset.mouseout"/>
                       </use>
               </g>
        </defs>

<script type="text/javascript">
var viewWidth = 566;
var viewHeight = 427;
var sectionId = 'dynsection-0';
</script>
<script xlink:href="svgpan.js"/>
<svg id="graph" class="graph">
<g id="viewport">
<title>Brick</title>
<!-- Node1 -->
<g id="node1" class="node">
<title>Node1</title>
<g id="a_node1"><a xlink:title="Represents a brick in the game.">
<polygon fill="#999999" stroke="transparent" points="366,-419 192,-419 192,-130 366,-130 366,-419"/>
<text text-anchor="start" x="266.5" y="-406.5" font-family="Helvetica,sans-Serif" font-size="10.00">Brick</text>
<text text-anchor="start" x="196" y="-391.5" font-family="Helvetica,sans-Serif" font-size="10.00">#</text>
<text text-anchor="start" x="209" y="-391.5" font-family="Helvetica,sans-Serif" font-size="10.00">_position</text>
<text text-anchor="start" x="196" y="-376.5" font-family="Helvetica,sans-Serif" font-size="10.00">#</text>
<text text-anchor="start" x="209" y="-376.5" font-family="Helvetica,sans-Serif" font-size="10.00">_vertices</text>
<text text-anchor="start" x="196" y="-361.5" font-family="Helvetica,sans-Serif" font-size="10.00">#</text>
<text text-anchor="start" x="209" y="-361.5" font-family="Helvetica,sans-Serif" font-size="10.00">_color</text>
<text text-anchor="start" x="196" y="-346.5" font-family="Helvetica,sans-Serif" font-size="10.00">#</text>
<text text-anchor="start" x="209" y="-346.5" font-family="Helvetica,sans-Serif" font-size="10.00">_resistance</text>
<text text-anchor="start" x="196" y="-331.5" font-family="Helvetica,sans-Serif" font-size="10.00">#</text>
<text text-anchor="start" x="209" y="-331.5" font-family="Helvetica,sans-Serif" font-size="10.00">_max_resistance</text>
<text text-anchor="start" x="196" y="-316.5" font-family="Helvetica,sans-Serif" font-size="10.00">#</text>
<text text-anchor="start" x="209" y="-316.5" font-family="Helvetica,sans-Serif" font-size="10.00">_powerUp</text>
<text text-anchor="start" x="196" y="-301.5" font-family="Helvetica,sans-Serif" font-size="10.00">+</text>
<text text-anchor="start" x="209" y="-301.5" font-family="Helvetica,sans-Serif" font-size="10.00">Brick()</text>
<text text-anchor="start" x="196" y="-286.5" font-family="Helvetica,sans-Serif" font-size="10.00">+</text>
<text text-anchor="start" x="209" y="-286.5" font-family="Helvetica,sans-Serif" font-size="10.00">getResistance()</text>
<text text-anchor="start" x="196" y="-271.5" font-family="Helvetica,sans-Serif" font-size="10.00">+</text>
<text text-anchor="start" x="209" y="-271.5" font-family="Helvetica,sans-Serif" font-size="10.00">decreaseResistance()</text>
<text text-anchor="start" x="196" y="-256.5" font-family="Helvetica,sans-Serif" font-size="10.00">+</text>
<text text-anchor="start" x="209" y="-256.5" font-family="Helvetica,sans-Serif" font-size="10.00">getResistancePercentage()</text>
<text text-anchor="start" x="196" y="-241.5" font-family="Helvetica,sans-Serif" font-size="10.00">+</text>
<text text-anchor="start" x="209" y="-241.5" font-family="Helvetica,sans-Serif" font-size="10.00">getColor()</text>
<text text-anchor="start" x="196" y="-226.5" font-family="Helvetica,sans-Serif" font-size="10.00">+</text>
<text text-anchor="start" x="209" y="-226.5" font-family="Helvetica,sans-Serif" font-size="10.00">getPowerUp()</text>
<text text-anchor="start" x="196" y="-211.5" font-family="Helvetica,sans-Serif" font-size="10.00">+</text>
<text text-anchor="start" x="209" y="-211.5" font-family="Helvetica,sans-Serif" font-size="10.00">getVertices()</text>
<text text-anchor="start" x="196" y="-196.5" font-family="Helvetica,sans-Serif" font-size="10.00">+</text>
<text text-anchor="start" x="209" y="-196.5" font-family="Helvetica,sans-Serif" font-size="10.00">getVerticesWithoutColor()</text>
<text text-anchor="start" x="196" y="-181.5" font-family="Helvetica,sans-Serif" font-size="10.00">+</text>
<text text-anchor="start" x="209" y="-181.5" font-family="Helvetica,sans-Serif" font-size="10.00">getIndices()</text>
<text text-anchor="start" x="196" y="-166.5" font-family="Helvetica,sans-Serif" font-size="10.00">+</text>
<text text-anchor="start" x="209" y="-166.5" font-family="Helvetica,sans-Serif" font-size="10.00">calculateVerticesWithPosition()</text>
<text text-anchor="start" x="196" y="-151.5" font-family="Helvetica,sans-Serif" font-size="10.00">+</text>
<text text-anchor="start" x="209" y="-151.5" font-family="Helvetica,sans-Serif" font-size="10.00">getCenter()</text>
<text text-anchor="start" x="196" y="-136.5" font-family="Helvetica,sans-Serif" font-size="10.00">#</text>
<text text-anchor="start" x="209" y="-136.5" font-family="Helvetica,sans-Serif" font-size="10.00">GenerateTintAndShadeColors()</text>
<polygon fill="#666666" stroke="#666666" points="192,-401.5 192,-401.5 366,-401.5 366,-401.5 192,-401.5"/>
<polygon fill="#666666" stroke="#666666" points="192,-311.5 192,-311.5 207,-311.5 207,-311.5 192,-311.5"/>
<polygon fill="#666666" stroke="#666666" points="207,-311.5 207,-311.5 366,-311.5 366,-311.5 207,-311.5"/>
<polygon fill="none" stroke="#666666" points="192,-130 192,-419 366,-419 366,-130 192,-130"/>
</a>
</g>
</g>
<!-- Node2 -->
<g id="node2" class="node">
<title>Node2</title>
<g id="a_node2"><a xlink:href="classBrickHexagonal.html" target="_top" xlink:title="Represents a hexagonal brick.">
<polygon fill="white" stroke="transparent" points="174,-94 0,-94 0,0 174,0 174,-94"/>
<text text-anchor="start" x="48" y="-82" font-family="Helvetica,sans-Serif" font-size="10.00">BrickHexagonal</text>
<text text-anchor="start" x="85" y="-67" font-family="Helvetica,sans-Serif" font-size="10.00"> </text>
<text text-anchor="start" x="4" y="-52" font-family="Helvetica,sans-Serif" font-size="10.00">+</text>
<text text-anchor="start" x="17" y="-52" font-family="Helvetica,sans-Serif" font-size="10.00">BrickHexagonal()</text>
<text text-anchor="start" x="4" y="-37" font-family="Helvetica,sans-Serif" font-size="10.00">+</text>
<text text-anchor="start" x="17" y="-37" font-family="Helvetica,sans-Serif" font-size="10.00">calculateVerticesWithPosition()</text>
<text text-anchor="start" x="4" y="-22" font-family="Helvetica,sans-Serif" font-size="10.00">+</text>
<text text-anchor="start" x="17" y="-22" font-family="Helvetica,sans-Serif" font-size="10.00">getIndices()</text>
<text text-anchor="start" x="4" y="-7" font-family="Helvetica,sans-Serif" font-size="10.00">+</text>
<text text-anchor="start" x="17" y="-7" font-family="Helvetica,sans-Serif" font-size="10.00">getCenter()</text>
<polygon fill="#666666" stroke="#666666" points="0,-77 0,-77 174,-77 174,-77 0,-77"/>
<polygon fill="#666666" stroke="#666666" points="0,-62 0,-62 174,-62 174,-62 0,-62"/>
<polygon fill="none" stroke="#666666" points="0,0 0,-94 174,-94 174,0 0,0"/>
</a>
</g>
</g>
<!-- Node1&#45;&gt;Node2 -->
<g id="edge1" class="edge">
<title>Node1&#45;&gt;Node2</title>
<path fill="none" stroke="#63b8ff" d="M185.5,-163.69C164.56,-139.1 143.47,-114.32 126.2,-94.04"/>
<polygon fill="none" stroke="#63b8ff" points="182.84,-165.96 191.99,-171.31 188.17,-161.42 182.84,-165.96"/>
</g>
<!-- Node3 -->
<g id="node3" class="node">
<title>Node3</title>
<g id="a_node3"><a xlink:href="classBrickRectangular.html" target="_top" xlink:title="Represents a rectangular brick.">
<polygon fill="white" stroke="transparent" points="366,-94 192,-94 192,0 366,0 366,-94"/>
<text text-anchor="start" x="237" y="-82" font-family="Helvetica,sans-Serif" font-size="10.00">BrickRectangular</text>
<text text-anchor="start" x="277" y="-67" font-family="Helvetica,sans-Serif" font-size="10.00"> </text>
<text text-anchor="start" x="196" y="-52" font-family="Helvetica,sans-Serif" font-size="10.00">+</text>
<text text-anchor="start" x="209" y="-52" font-family="Helvetica,sans-Serif" font-size="10.00">BrickRectangular()</text>
<text text-anchor="start" x="196" y="-37" font-family="Helvetica,sans-Serif" font-size="10.00">+</text>
<text text-anchor="start" x="209" y="-37" font-family="Helvetica,sans-Serif" font-size="10.00">calculateVerticesWithPosition()</text>
<text text-anchor="start" x="196" y="-22" font-family="Helvetica,sans-Serif" font-size="10.00">+</text>
<text text-anchor="start" x="209" y="-22" font-family="Helvetica,sans-Serif" font-size="10.00">getIndices()</text>
<text text-anchor="start" x="196" y="-7" font-family="Helvetica,sans-Serif" font-size="10.00">+</text>
<text text-anchor="start" x="209" y="-7" font-family="Helvetica,sans-Serif" font-size="10.00">getCenter()</text>
<polygon fill="#666666" stroke="#666666" points="192,-77 192,-77 366,-77 366,-77 192,-77"/>
<polygon fill="#666666" stroke="#666666" points="192,-62 192,-62 366,-62 366,-62 192,-62"/>
<polygon fill="none" stroke="#666666" points="192,0 192,-94 366,-94 366,0 192,0"/>
</a>
</g>
</g>
<!-- Node1&#45;&gt;Node3 -->
<g id="edge2" class="edge">
<title>Node1&#45;&gt;Node3</title>
<path fill="none" stroke="#63b8ff" d="M279,-119.5C279,-110.58 279,-102.05 279,-94.2"/>
<polygon fill="none" stroke="#63b8ff" points="275.5,-119.73 279,-129.73 282.5,-119.73 275.5,-119.73"/>
</g>
<!-- Node4 -->
<g id="node4" class="node">
<title>Node4</title>
<g id="a_node4"><a xlink:href="classBrickTriangular.html" target="_top" xlink:title="Represents a triangular brick.">
<polygon fill="white" stroke="transparent" points="558,-94 384,-94 384,0 558,0 558,-94"/>
<text text-anchor="start" x="434.5" y="-82" font-family="Helvetica,sans-Serif" font-size="10.00">BrickTriangular</text>
<text text-anchor="start" x="469" y="-67" font-family="Helvetica,sans-Serif" font-size="10.00"> </text>
<text text-anchor="start" x="388" y="-52" font-family="Helvetica,sans-Serif" font-size="10.00">+</text>
<text text-anchor="start" x="401" y="-52" font-family="Helvetica,sans-Serif" font-size="10.00">BrickTriangular()</text>
<text text-anchor="start" x="388" y="-37" font-family="Helvetica,sans-Serif" font-size="10.00">+</text>
<text text-anchor="start" x="401" y="-37" font-family="Helvetica,sans-Serif" font-size="10.00">calculateVerticesWithPosition()</text>
<text text-anchor="start" x="388" y="-22" font-family="Helvetica,sans-Serif" font-size="10.00">+</text>
<text text-anchor="start" x="401" y="-22" font-family="Helvetica,sans-Serif" font-size="10.00">getIndices()</text>
<text text-anchor="start" x="388" y="-7" font-family="Helvetica,sans-Serif" font-size="10.00">+</text>
<text text-anchor="start" x="401" y="-7" font-family="Helvetica,sans-Serif" font-size="10.00">getCenter()</text>
<polygon fill="#666666" stroke="#666666" points="384,-77 384,-77 558,-77 558,-77 384,-77"/>
<polygon fill="#666666" stroke="#666666" points="384,-62 384,-62 558,-62 558,-62 384,-62"/>
<polygon fill="none" stroke="#666666" points="384,0 384,-94 558,-94 558,0 384,0"/>
</a>
</g>
</g>
<!-- Node1&#45;&gt;Node4 -->
<g id="edge3" class="edge">
<title>Node1&#45;&gt;Node4</title>
<path fill="none" stroke="#63b8ff" d="M372.5,-163.69C393.44,-139.1 414.53,-114.32 431.8,-94.04"/>
<polygon fill="none" stroke="#63b8ff" points="369.83,-161.42 366.01,-171.31 375.16,-165.96 369.83,-161.42"/>
</g>
</g>
</svg>
        <g id="navigator" transform="translate(0 0)" fill="#404254">
                <rect fill="#f2f5e9" fill-opacity="0.5" stroke="#606060" stroke-width=".5" x="0" y="0" width="60" height="60"/>
                <use id="zoomplus" xlink:href="#zoomPlus" x="17" y="9" onmousedown="handleZoom(evt,'in')"/>
                <use id="zoomminus" xlink:href="#zoomMin" x="42" y="9" onmousedown="handleZoom(evt,'out')"/>
                <use id="reset" xlink:href="#resetDef" x="30" y="36" onmousedown="handleReset()"/>
                <g id="arrowUp" xlink:href="#dirArrow" transform="translate(30 24)" onmousedown="handlePan(0,-1)">
                  <use xlink:href="#rim" fill="#404040">
                        <set attributeName="fill" to="#808080" begin="arrowUp.mouseover" end="arrowUp.mouseout"/>
                  </use>
                  <path fill="none" stroke="white" stroke-width="1.5" d="M0,-3.0v7 M-2.5,-0.5L0,-3.0L2.5,-0.5"/>
                </g>
                <g id="arrowRight" xlink:href="#dirArrow" transform="rotate(90) translate(36 -43)" onmousedown="handlePan(1,0)">
                  <use xlink:href="#rim" fill="#404040">
                        <set attributeName="fill" to="#808080" begin="arrowRight.mouseover" end="arrowRight.mouseout"/>
                  </use>
                  <path fill="none" stroke="white" stroke-width="1.5" d="M0,-3.0v7 M-2.5,-0.5L0,-3.0L2.5,-0.5"/>
                </g>
                <g id="arrowDown" xlink:href="#dirArrow" transform="rotate(180) translate(-30 -48)" onmousedown="handlePan(0,1)">
                  <use xlink:href="#rim" fill="#404040">
                        <set attributeName="fill" to="#808080" begin="arrowDown.mouseover" end="arrowDown.mouseout"/>
                  </use>
                  <path fill="none" stroke="white" stroke-width="1.5" d="M0,-3.0v7 M-2.5,-0.5L0,-3.0L2.5,-0.5"/>
                </g>
                <g id="arrowLeft" xlink:href="#dirArrow" transform="rotate(270) translate(-36 17)" onmousedown="handlePan(-1,0)">
                  <use xlink:href="#rim" fill="#404040">
                        <set attributeName="fill" to="#808080" begin="arrowLeft.mouseover" end="arrowLeft.mouseout"/>
                  </use>
                  <path fill="none" stroke="white" stroke-width="1.5" d="M0,-3.0v7 M-2.5,-0.5L0,-3.0L2.5,-0.5"/>
                </g>
        </g>
        <svg viewBox="0 0 15 15" width="100%" height="30px" preserveAspectRatio="xMaxYMin meet">
         <g id="arrow_out" transform="scale(0.3 0.3)">
          <a xlink:href="classBrick__inherit__graph_org.svg" target="_base">
           <rect id="button" ry="5" rx="5" y="6" x="6" height="38" width="38"
                fill="#f2f5e9" fill-opacity="0.5" stroke="#606060" stroke-width="1.0"/>
           <path id="arrow"
             d="M 11.500037,31.436501 C 11.940474,20.09759 22.043105,11.32322 32.158766,21.979434 L 37.068811,17.246167 C 37.068811,17.246167 37.088388,32 37.088388,32 L 22.160133,31.978069 C 22.160133,31.978069 26.997745,27.140456 26.997745,27.140456 C 18.528582,18.264221 13.291696,25.230495 11.500037,31.436501 z"
             style="fill:#404040;"/>
          </a>
         </g>
        </svg>
</svg>
