<?xml version="1.0" encoding="UTF-8" standalone="no"?>
<!DOCTYPE svg PUBLIC "-//W3C//DTD SVG 1.1//EN"
 "http://www.w3.org/Graphics/SVG/1.1/DTD/svg11.dtd">
<!-- Generated by graphviz version 2.43.0 (0)
 -->
<!-- Title: Graphical Class Hierarchy Pages: 1 -->
<svg width="185pt" height="101pt"
 viewBox="0.00 0.00 185.00 101.00" xmlns="http://www.w3.org/2000/svg" xmlns:xlink="http://www.w3.org/1999/xlink">
<g id="graph0" class="graph" transform="scale(1 1) rotate(0) translate(4 97)">
<title>Graphical Class Hierarchy</title>
<!-- Node0 -->
<g id="node1" class="node">
<title>Node0</title>
<g id="a_node1"><a xlink:href="classBrick.html" target="_top" xlink:title="Represents a brick in the game.">
<polygon fill="white" stroke="#666666" points="41,-56 0,-56 0,-37 41,-37 41,-56"/>
<text text-anchor="middle" x="20.5" y="-44" font-family="Helvetica,sans-Serif" font-size="10.00">Brick</text>
</a>
</g>
</g>
<!-- Node1 -->
<g id="node2" class="node">
<title>Node1</title>
<g id="a_node2"><a xlink:href="classBrickHexagonal.html" target="_top" xlink:title="Represents a hexagonal brick.">
<polygon fill="white" stroke="#666666" points="174,-93 80,-93 80,-74 174,-74 174,-93"/>
<text text-anchor="middle" x="127" y="-81" font-family="Helvetica,sans-Serif" font-size="10.00">BrickHexagonal</text>
</a>
</g>
</g>
<!-- Node0&#45;&gt;Node1 -->
<g id="edge1" class="edge">
<title>Node0&#45;&gt;Node1</title>
<path fill="none" stroke="#63b8ff" d="M51,-56.94C66.06,-62.28 84.24,-68.72 98.94,-73.92"/>
<polygon fill="#63b8ff" stroke="#63b8ff" points="51.75,-53.5 41.16,-53.46 49.41,-60.1 51.75,-53.5"/>
</g>
<!-- Node2 -->
<g id="node3" class="node">
<title>Node2</title>
<g id="a_node3"><a xlink:href="classBrickRectangular.html" target="_top" xlink:title="Represents a rectangular brick.">
<polygon fill="white" stroke="#666666" points="177,-56 77,-56 77,-37 177,-37 177,-56"/>
<text text-anchor="middle" x="127" y="-44" font-family="Helvetica,sans-Serif" font-size="10.00">BrickRectangular</text>
</a>
</g>
</g>
<!-- Node0&#45;&gt;Node2 -->
<g id="edge2" class="edge">
<title>Node0&#45;&gt;Node2</title>
<path fill="none" stroke="#63b8ff" d="M51.4,-46.5C59.37,-46.5 68.19,-46.5 76.9,-46.5"/>
<polygon fill="#63b8ff" stroke="#63b8ff" points="51.16,-43 41.16,-46.5 51.16,-50 51.16,-43"/>
</g>
<!-- Node3 -->
<g id="node4" class="node">
<title>Node3</title>
<g id="a_node4"><a xlink:href="classBrickTriangular.html" target="_top" xlink:title="Represents a triangular brick.">
<polygon fill="white" stroke="#666666" points="171.5,-19 82.5,-19 82.5,0 171.5,0 171.5,-19"/>
<text text-anchor="middle" x="127" y="-7" font-family="Helvetica,sans-Serif" font-size="10.00">BrickTriangular</text>
</a>
</g>
</g>
<!-- Node0&#45;&gt;Node3 -->
<g id="edge3" class="edge">
<title>Node0&#45;&gt;Node3</title>
<path fill="none" stroke="#63b8ff" d="M51,-36.06C66.06,-30.72 84.24,-24.28 98.94,-19.08"/>
<polygon fill="#63b8ff" stroke="#63b8ff" points="49.41,-32.9 41.16,-39.54 51.75,-39.5 49.41,-32.9"/>
</g>
</g>
</svg>
