<?xml version="1.0" encoding="UTF-8" standalone="no"?>
<!DOCTYPE svg PUBLIC "-//W3C//DTD SVG 1.1//EN"
 "http://www.w3.org/Graphics/SVG/1.1/DTD/svg11.dtd">
<!-- Generated by graphviz version 2.43.0 (0)
 -->
<!-- Title: Graphical Class Hierarchy Pages: 1 -->
<svg width="320pt" height="138pt"
 viewBox="0.00 0.00 320.00 138.00" xmlns="http://www.w3.org/2000/svg" xmlns:xlink="http://www.w3.org/1999/xlink">
<g id="graph0" class="graph" transform="scale(1 1) rotate(0) translate(4 134)">
<title>Graphical Class Hierarchy</title>
<!-- Node0 -->
<g id="node1" class="node">
<title>Node0</title>
<g id="a_node1"><a xlink:href="classCircle.html" target="_top" xlink:title="The Circle class represents a circle in 2D space.">
<polygon fill="white" stroke="#666666" points="44,-92 0,-92 0,-73 44,-73 44,-92"/>
<text text-anchor="middle" x="22" y="-80" font-family="Helvetica,sans-Serif" font-size="10.00">Circle</text>
</a>
</g>
</g>
<!-- Node1 -->
<g id="node2" class="node">
<title>Node1</title>
<g id="a_node2"><a xlink:href="classBall.html" target="_top" xlink:title="Represents a ball in the game.">
<polygon fill="white" stroke="#666666" points="127.5,-111 92.5,-111 92.5,-92 127.5,-92 127.5,-111"/>
<text text-anchor="middle" x="110" y="-99" font-family="Helvetica,sans-Serif" font-size="10.00">Ball</text>
</a>
</g>
</g>
<!-- Node0&#45;&gt;Node1 -->
<g id="edge1" class="edge">
<title>Node0&#45;&gt;Node1</title>
<path fill="none" stroke="#63b8ff" d="M54.16,-89.39C67.05,-92.23 81.47,-95.42 92.29,-97.81"/>
<polygon fill="#63b8ff" stroke="#63b8ff" points="54.78,-85.94 44.26,-87.2 53.27,-92.77 54.78,-85.94"/>
</g>
<!-- Node2 -->
<g id="node3" class="node">
<title>Node2</title>
<g id="a_node3"><a xlink:href="classPowerUp.html" target="_top" xlink:title="The PowerUp class represents a base class for power&#45;up objects.">
<polygon fill="white" stroke="#666666" points="140,-74 80,-74 80,-55 140,-55 140,-74"/>
<text text-anchor="middle" x="110" y="-62" font-family="Helvetica,sans-Serif" font-size="10.00">PowerUp</text>
</a>
</g>
</g>
<!-- Node0&#45;&gt;Node2 -->
<g id="edge2" class="edge">
<title>Node0&#45;&gt;Node2</title>
<path fill="none" stroke="#63b8ff" d="M54.1,-75.99C62.51,-74.23 71.58,-72.33 79.88,-70.6"/>
<polygon fill="#63b8ff" stroke="#63b8ff" points="53.33,-72.58 44.26,-78.05 54.76,-79.43 53.33,-72.58"/>
</g>
<!-- Node3 -->
<g id="node4" class="node">
<title>Node3</title>
<g id="a_node4"><a xlink:href="classAddBallPowerUp.html" target="_top" xlink:title="The AddBallPowerUp class represents a power&#45;up that adds a ball to the game.">
<polygon fill="white" stroke="#666666" points="293,-130 195,-130 195,-111 293,-111 293,-130"/>
<text text-anchor="middle" x="244" y="-118" font-family="Helvetica,sans-Serif" font-size="10.00">AddBallPowerUp</text>
</a>
</g>
</g>
<!-- Node2&#45;&gt;Node3 -->
<g id="edge3" class="edge">
<title>Node2&#45;&gt;Node3</title>
<path fill="none" stroke="#63b8ff" d="M135.11,-79.5C150.02,-88.59 167.81,-99.08 176,-102.5 183.78,-105.75 192.31,-108.57 200.61,-110.95"/>
<polygon fill="#63b8ff" stroke="#63b8ff" points="136.67,-76.35 126.32,-74.09 133.01,-82.31 136.67,-76.35"/>
</g>
<!-- Node4 -->
<g id="node5" class="node">
<title>Node4</title>
<g id="a_node5"><a xlink:href="classDuplicateBallPowerUp.html" target="_top" xlink:title="The DuplicateBallPowerUp class represents a power&#45;up that duplicates the current ball.">
<polygon fill="white" stroke="#666666" points="306.5,-93 181.5,-93 181.5,-74 306.5,-74 306.5,-93"/>
<text text-anchor="middle" x="244" y="-81" font-family="Helvetica,sans-Serif" font-size="10.00">DuplicateBallPowerUp</text>
</a>
</g>
</g>
<!-- Node2&#45;&gt;Node4 -->
<g id="edge4" class="edge">
<title>Node2&#45;&gt;Node4</title>
<path fill="none" stroke="#63b8ff" d="M150.44,-70.18C160.18,-71.58 170.84,-73.11 181.35,-74.63"/>
<polygon fill="#63b8ff" stroke="#63b8ff" points="150.69,-66.68 140.3,-68.72 149.69,-73.61 150.69,-66.68"/>
</g>
<!-- Node5 -->
<g id="node6" class="node">
<title>Node5</title>
<g id="a_node6"><a xlink:href="classExtendPlatformPowerUp.html" target="_top" xlink:title="The ExtendPlatformPowerUp class represents a power&#45;up that extends the platform size.">
<polygon fill="white" stroke="#666666" points="312,-56 176,-56 176,-37 312,-37 312,-56"/>
<text text-anchor="middle" x="244" y="-44" font-family="Helvetica,sans-Serif" font-size="10.00">ExtendPlatformPowerUp</text>
</a>
</g>
</g>
<!-- Node2&#45;&gt;Node5 -->
<g id="edge5" class="edge">
<title>Node2&#45;&gt;Node5</title>
<path fill="none" stroke="#63b8ff" d="M150.21,-59.15C158.35,-58.04 167.15,-56.84 175.97,-55.64"/>
<polygon fill="#63b8ff" stroke="#63b8ff" points="149.73,-55.69 140.3,-60.51 150.68,-62.62 149.73,-55.69"/>
</g>
<!-- Node6 -->
<g id="node7" class="node">
<title>Node6</title>
<g id="a_node7"><a xlink:href="classSpeedUpPowerUp.html" target="_top" xlink:title="The SpeedUpPowerUp class represents a power&#45;up that speeds up the ball.">
<polygon fill="white" stroke="#666666" points="296,-19 192,-19 192,0 296,0 296,-19"/>
<text text-anchor="middle" x="244" y="-7" font-family="Helvetica,sans-Serif" font-size="10.00">SpeedUpPowerUp</text>
</a>
</g>
</g>
<!-- Node2&#45;&gt;Node6 -->
<g id="edge6" class="edge">
<title>Node2&#45;&gt;Node6</title>
<path fill="none" stroke="#63b8ff" d="M134.57,-49.73C146.63,-42.61 161.74,-34.38 176,-28.5 184.72,-24.91 194.34,-21.74 203.51,-19.07"/>
<polygon fill="#63b8ff" stroke="#63b8ff" points="132.76,-46.73 126,-54.89 136.37,-52.72 132.76,-46.73"/>
</g>
</g>
</svg>
