<?xml version="1.0" encoding="UTF-8" standalone="no"?>
<!DOCTYPE svg PUBLIC "-//W3C//DTD SVG 1.1//EN"
 "http://www.w3.org/Graphics/SVG/1.1/DTD/svg11.dtd">
<!-- Generated by graphviz version 2.43.0 (0)
 -->
<!-- Title: Graphical Class Hierarchy Pages: 1 -->
<svg width="242pt" height="64pt"
 viewBox="0.00 0.00 242.00 64.00" xmlns="http://www.w3.org/2000/svg" xmlns:xlink="http://www.w3.org/1999/xlink">
<g id="graph0" class="graph" transform="scale(1 1) rotate(0) translate(4 60)">
<title>Graphical Class Hierarchy</title>
<!-- Node0 -->
<g id="node1" class="node">
<title>Node0</title>
<g id="a_node1"><a xlink:href="classSDLComponent.html" target="_top" xlink:title="The SDLComponent class represents a base class for SDL components.">
<polygon fill="white" stroke="#666666" points="92,-37 0,-37 0,-18 92,-18 92,-37"/>
<text text-anchor="middle" x="46" y="-25" font-family="Helvetica,sans-Serif" font-size="10.00">SDLComponent</text>
</a>
</g>
</g>
<!-- Node1 -->
<g id="node2" class="node">
<title>Node1</title>
<g id="a_node2"><a xlink:href="classBrickBreaker.html" target="_top" xlink:title="The BrickBreaker class represents the main game logic for the Brick Breaker game.">
<polygon fill="white" stroke="#666666" points="220.5,-56 141.5,-56 141.5,-37 220.5,-37 220.5,-56"/>
<text text-anchor="middle" x="181" y="-44" font-family="Helvetica,sans-Serif" font-size="10.00">BrickBreaker</text>
</a>
</g>
</g>
<!-- Node0&#45;&gt;Node1 -->
<g id="edge1" class="edge">
<title>Node0&#45;&gt;Node1</title>
<path fill="none" stroke="#63b8ff" d="M101.96,-35.35C115.15,-37.24 128.96,-39.21 141.24,-40.96"/>
<polygon fill="#63b8ff" stroke="#63b8ff" points="102.42,-31.88 92.03,-33.93 101.43,-38.81 102.42,-31.88"/>
</g>
<!-- Node2 -->
<g id="node3" class="node">
<title>Node2</title>
<g id="a_node3"><a xlink:href="classBrickBreakerMenu.html" target="_top" xlink:title="Represents the main menu of the BrickBreaker game.">
<polygon fill="white" stroke="#666666" points="234,-19 128,-19 128,0 234,0 234,-19"/>
<text text-anchor="middle" x="181" y="-7" font-family="Helvetica,sans-Serif" font-size="10.00">BrickBreakerMenu</text>
</a>
</g>
</g>
<!-- Node0&#45;&gt;Node2 -->
<g id="edge2" class="edge">
<title>Node0&#45;&gt;Node2</title>
<path fill="none" stroke="#63b8ff" d="M102.16,-20.03C110.6,-18.89 119.3,-17.72 127.67,-16.58"/>
<polygon fill="#63b8ff" stroke="#63b8ff" points="101.47,-16.6 92.03,-21.41 102.41,-23.53 101.47,-16.6"/>
</g>
</g>
</svg>
