<?xml version="1.0" encoding="UTF-8" standalone="no"?>
<!DOCTYPE svg PUBLIC "-//W3C//DTD SVG 1.1//EN"
 "http://www.w3.org/Graphics/SVG/1.1/DTD/svg11.dtd">
<!-- Generated by graphviz version 2.43.0 (0)
 -->
<!-- Title: include/PowerUp.h Pages: 1 -->
<svg width="476pt" height="137pt"
 viewBox="0.00 0.00 476.00 137.00" xmlns="http://www.w3.org/2000/svg" xmlns:xlink="http://www.w3.org/1999/xlink">
<g id="graph0" class="graph" transform="scale(1 1) rotate(0) translate(4 133)">
<title>include/PowerUp.h</title>
<!-- Node1 -->
<g id="node1" class="node">
<title>Node1</title>
<g id="a_node1"><a xlink:title=" ">
<polygon fill="#999999" stroke="#666666" points="162.5,-129 55.5,-129 55.5,-110 162.5,-110 162.5,-129"/>
<text text-anchor="middle" x="109" y="-117" font-family="Helvetica,sans-Serif" font-size="10.00">include/PowerUp.h</text>
</a>
</g>
</g>
<!-- Node2 -->
<g id="node2" class="node">
<title>Node2</title>
<g id="a_node2"><a xlink:title=" ">
<polygon fill="#e0e0e0" stroke="#999999" points="50,-19 0,-19 0,0 50,0 50,-19"/>
<text text-anchor="middle" x="25" y="-7" font-family="Helvetica,sans-Serif" font-size="10.00">cstdint</text>
</a>
</g>
</g>
<!-- Node1&#45;&gt;Node2 -->
<g id="edge1" class="edge">
<title>Node1&#45;&gt;Node2</title>
<path fill="none" stroke="#63b8ff" d="M102.13,-109.66C88.09,-91.61 55.94,-50.28 37.89,-27.08"/>
<polygon fill="#63b8ff" stroke="#63b8ff" points="40.64,-24.9 31.73,-19.16 35.11,-29.2 40.64,-24.9"/>
</g>
<!-- Node3 -->
<g id="node3" class="node">
<title>Node3</title>
<g id="a_node3"><a xlink:title=" ">
<polygon fill="#e0e0e0" stroke="#999999" points="112,-19 68,-19 68,0 112,0 112,-19"/>
<text text-anchor="middle" x="90" y="-7" font-family="Helvetica,sans-Serif" font-size="10.00">string</text>
</a>
</g>
</g>
<!-- Node1&#45;&gt;Node3 -->
<g id="edge2" class="edge">
<title>Node1&#45;&gt;Node3</title>
<path fill="none" stroke="#63b8ff" d="M107.45,-109.66C104.37,-92.17 97.44,-52.8 93.3,-29.27"/>
<polygon fill="#63b8ff" stroke="#63b8ff" points="96.7,-28.4 91.52,-19.16 89.81,-29.61 96.7,-28.4"/>
</g>
<!-- Node4 -->
<g id="node4" class="node">
<title>Node4</title>
<g id="a_node4"><a xlink:title=" ">
<polygon fill="#e0e0e0" stroke="#999999" points="188,-19 130,-19 130,0 188,0 188,-19"/>
<text text-anchor="middle" x="159" y="-7" font-family="Helvetica,sans-Serif" font-size="10.00">memory</text>
</a>
</g>
</g>
<!-- Node1&#45;&gt;Node4 -->
<g id="edge3" class="edge">
<title>Node1&#45;&gt;Node4</title>
<path fill="none" stroke="#63b8ff" d="M113.09,-109.66C121.3,-91.93 139.91,-51.73 150.75,-28.32"/>
<polygon fill="#63b8ff" stroke="#63b8ff" points="153.97,-29.7 154.99,-19.16 147.61,-26.76 153.97,-29.7"/>
</g>
<!-- Node5 -->
<g id="node5" class="node">
<title>Node5</title>
<g id="a_node5"><a xlink:href="Circle_8h.html" target="_top" xlink:title=" ">
<polygon fill="white" stroke="#666666" points="257.5,-74 156.5,-74 156.5,-55 257.5,-55 257.5,-74"/>
<text text-anchor="middle" x="207" y="-62" font-family="Helvetica,sans-Serif" font-size="10.00">../include/Circle.h</text>
</a>
</g>
</g>
<!-- Node1&#45;&gt;Node5 -->
<g id="edge4" class="edge">
<title>Node1&#45;&gt;Node5</title>
<path fill="none" stroke="#63b8ff" d="M124.75,-109.98C140.23,-101.61 164.09,-88.7 182.14,-78.95"/>
<polygon fill="#63b8ff" stroke="#63b8ff" points="183.84,-82.01 190.97,-74.17 180.51,-75.85 183.84,-82.01"/>
</g>
<!-- Node5&#45;&gt;Node2 -->
<g id="edge6" class="edge">
<title>Node5&#45;&gt;Node2</title>
<path fill="none" stroke="#63b8ff" d="M177.76,-54.98C145.7,-45.65 94.29,-30.68 60.09,-20.72"/>
<polygon fill="#63b8ff" stroke="#63b8ff" points="60.65,-17.24 50.07,-17.8 58.69,-23.96 60.65,-17.24"/>
</g>
<!-- Node5&#45;&gt;Node3 -->
<g id="edge7" class="edge">
<title>Node5&#45;&gt;Node3</title>
<path fill="none" stroke="#63b8ff" d="M188.2,-54.98C169.38,-46.46 140.18,-33.23 118.5,-23.41"/>
<polygon fill="#63b8ff" stroke="#63b8ff" points="119.69,-20.11 109.14,-19.17 116.8,-26.48 119.69,-20.11"/>
</g>
<!-- Node5&#45;&gt;Node4 -->
<g id="edge8" class="edge">
<title>Node5&#45;&gt;Node4</title>
<path fill="none" stroke="#63b8ff" d="M199.07,-54.75C192.15,-47.11 181.93,-35.82 173.55,-26.56"/>
<polygon fill="#63b8ff" stroke="#63b8ff" points="176.09,-24.15 166.78,-19.09 170.9,-28.85 176.09,-24.15"/>
</g>
<!-- Node6 -->
<g id="node6" class="node">
<title>Node6</title>
<g id="a_node6"><a xlink:title=" ">
<polygon fill="#e0e0e0" stroke="#999999" points="251.5,-19 206.5,-19 206.5,0 251.5,0 251.5,-19"/>
<text text-anchor="middle" x="229" y="-7" font-family="Helvetica,sans-Serif" font-size="10.00">utility</text>
</a>
</g>
</g>
<!-- Node5&#45;&gt;Node6 -->
<g id="edge5" class="edge">
<title>Node5&#45;&gt;Node6</title>
<path fill="none" stroke="#63b8ff" d="M210.63,-54.75C213.58,-47.65 217.83,-37.4 221.51,-28.56"/>
<polygon fill="#63b8ff" stroke="#63b8ff" points="224.83,-29.67 225.43,-19.09 218.37,-26.98 224.83,-29.67"/>
</g>
<!-- Node7 -->
<g id="node7" class="node">
<title>Node7</title>
<g id="a_node7"><a xlink:title=" ">
<polygon fill="#e0e0e0" stroke="#999999" points="342,-19 270,-19 270,0 342,0 342,-19"/>
<text text-anchor="middle" x="306" y="-7" font-family="Helvetica,sans-Serif" font-size="10.00">SDL2/SDL.h</text>
</a>
</g>
</g>
<!-- Node5&#45;&gt;Node7 -->
<g id="edge9" class="edge">
<title>Node5&#45;&gt;Node7</title>
<path fill="none" stroke="#63b8ff" d="M222.91,-54.98C238.55,-46.61 262.66,-33.7 280.88,-23.95"/>
<polygon fill="#63b8ff" stroke="#63b8ff" points="282.64,-26.98 289.8,-19.17 279.34,-20.8 282.64,-26.98"/>
</g>
<!-- Node8 -->
<g id="node8" class="node">
<title>Node8</title>
<g id="a_node8"><a xlink:title=" ">
<polygon fill="#e0e0e0" stroke="#999999" points="468,-19 360,-19 360,0 468,0 468,-19"/>
<text text-anchor="middle" x="414" y="-7" font-family="Helvetica,sans-Serif" font-size="10.00">SDL2/SDL_image.h</text>
</a>
</g>
</g>
<!-- Node5&#45;&gt;Node8 -->
<g id="edge10" class="edge">
<title>Node5&#45;&gt;Node8</title>
<path fill="none" stroke="#63b8ff" d="M240.26,-54.98C275.61,-45.93 331.67,-31.58 370.51,-21.64"/>
<polygon fill="#63b8ff" stroke="#63b8ff" points="371.66,-24.95 380.48,-19.08 369.93,-18.17 371.66,-24.95"/>
</g>
</g>
</svg>
