<?xml version="1.0" encoding="UTF-8" standalone="no"?>
<!DOCTYPE svg PUBLIC "-//W3C//DTD SVG 1.1//EN"
 "http://www.w3.org/Graphics/SVG/1.1/DTD/svg11.dtd">
<!-- Generated by graphviz version 2.43.0 (0)
 -->
<!-- Title: include/SDLApp.h Pages: 1 -->
<svg width="404pt" height="192pt"
 viewBox="0.00 0.00 403.50 192.00" xmlns="http://www.w3.org/2000/svg" xmlns:xlink="http://www.w3.org/1999/xlink">
<g id="graph0" class="graph" transform="scale(1 1) rotate(0) translate(4 188)">
<title>include/SDLApp.h</title>
<!-- Node1 -->
<g id="node1" class="node">
<title>Node1</title>
<g id="a_node1"><a xlink:title=" ">
<polygon fill="#999999" stroke="#666666" points="320,-184 218,-184 218,-165 320,-165 320,-184"/>
<text text-anchor="middle" x="269" y="-172" font-family="Helvetica,sans-Serif" font-size="10.00">include/SDLApp.h</text>
</a>
</g>
</g>
<!-- Node2 -->
<g id="node2" class="node">
<title>Node2</title>
<g id="a_node2"><a xlink:title=" ">
<polygon fill="#e0e0e0" stroke="#999999" points="72,-19 0,-19 0,0 72,0 72,-19"/>
<text text-anchor="middle" x="36" y="-7" font-family="Helvetica,sans-Serif" font-size="10.00">SDL2/SDL.h</text>
</a>
</g>
</g>
<!-- Node1&#45;&gt;Node2 -->
<g id="edge1" class="edge">
<title>Node1&#45;&gt;Node2</title>
<path fill="none" stroke="#63b8ff" d="M217.7,-166.37C186.16,-160.19 146,-148.98 115,-129 77.37,-104.75 53.45,-55.53 42.67,-28.79"/>
<polygon fill="#63b8ff" stroke="#63b8ff" points="45.82,-27.22 38.96,-19.14 39.29,-29.73 45.82,-27.22"/>
</g>
<!-- Node3 -->
<g id="node3" class="node">
<title>Node3</title>
<g id="a_node3"><a xlink:title=" ">
<polygon fill="#e0e0e0" stroke="#999999" points="395.5,-129 348.5,-129 348.5,-110 395.5,-110 395.5,-129"/>
<text text-anchor="middle" x="372" y="-117" font-family="Helvetica,sans-Serif" font-size="10.00">vector</text>
</a>
</g>
</g>
<!-- Node1&#45;&gt;Node3 -->
<g id="edge2" class="edge">
<title>Node1&#45;&gt;Node3</title>
<path fill="none" stroke="#63b8ff" d="M285.55,-164.98C301.89,-156.57 327.13,-143.59 346.13,-133.81"/>
<polygon fill="#63b8ff" stroke="#63b8ff" points="347.86,-136.86 355.15,-129.17 344.66,-130.63 347.86,-136.86"/>
</g>
<!-- Node4 -->
<g id="node4" class="node">
<title>Node4</title>
<g id="a_node4"><a xlink:title=" ">
<polygon fill="#e0e0e0" stroke="#999999" points="392,-19 334,-19 334,0 392,0 392,-19"/>
<text text-anchor="middle" x="363" y="-7" font-family="Helvetica,sans-Serif" font-size="10.00">memory</text>
</a>
</g>
</g>
<!-- Node1&#45;&gt;Node4 -->
<g id="edge3" class="edge">
<title>Node1&#45;&gt;Node4</title>
<path fill="none" stroke="#63b8ff" d="M274.05,-164.74C288.91,-138.98 332.65,-63.13 352.72,-28.33"/>
<polygon fill="#63b8ff" stroke="#63b8ff" points="355.96,-29.72 357.92,-19.31 349.89,-26.22 355.96,-29.72"/>
</g>
<!-- Node5 -->
<g id="node5" class="node">
<title>Node5</title>
<g id="a_node5"><a xlink:href="SDLComponent_8h.html" target="_top" xlink:title=" ">
<polygon fill="white" stroke="#666666" points="272,-129 124,-129 124,-110 272,-110 272,-129"/>
<text text-anchor="middle" x="198" y="-117" font-family="Helvetica,sans-Serif" font-size="10.00">../include/SDLComponent.h</text>
</a>
</g>
</g>
<!-- Node1&#45;&gt;Node5 -->
<g id="edge4" class="edge">
<title>Node1&#45;&gt;Node5</title>
<path fill="none" stroke="#63b8ff" d="M257.59,-164.98C246.89,-157 230.66,-144.88 217.84,-135.31"/>
<polygon fill="#63b8ff" stroke="#63b8ff" points="219.72,-132.35 209.61,-129.17 215.53,-137.96 219.72,-132.35"/>
</g>
<!-- Node5&#45;&gt;Node2 -->
<g id="edge5" class="edge">
<title>Node5&#45;&gt;Node2</title>
<path fill="none" stroke="#63b8ff" d="M168.62,-109.91C146.52,-102.58 116.2,-90.57 93,-74 75,-61.15 58.61,-41.69 48.07,-27.7"/>
<polygon fill="#63b8ff" stroke="#63b8ff" points="50.75,-25.44 42.03,-19.42 45.1,-29.56 50.75,-25.44"/>
</g>
<!-- Node5&#45;&gt;Node4 -->
<g id="edge6" class="edge">
<title>Node5&#45;&gt;Node4</title>
<path fill="none" stroke="#63b8ff" d="M211.22,-109.84C239.58,-91.28 306.49,-47.49 341.22,-24.75"/>
<polygon fill="#63b8ff" stroke="#63b8ff" points="343.26,-27.6 349.71,-19.2 339.43,-21.74 343.26,-27.6"/>
</g>
<!-- Node6 -->
<g id="node6" class="node">
<title>Node6</title>
<g id="a_node6"><a xlink:href="TextureManager_8h.html" target="_top" xlink:title=" ">
<polygon fill="white" stroke="#666666" points="253.5,-74 102.5,-74 102.5,-55 253.5,-55 253.5,-74"/>
<text text-anchor="middle" x="178" y="-62" font-family="Helvetica,sans-Serif" font-size="10.00">../include/TextureManager.h</text>
</a>
</g>
</g>
<!-- Node5&#45;&gt;Node6 -->
<g id="edge7" class="edge">
<title>Node5&#45;&gt;Node6</title>
<path fill="none" stroke="#63b8ff" d="M194.7,-109.75C192.02,-102.65 188.15,-92.4 184.81,-83.56"/>
<polygon fill="#63b8ff" stroke="#63b8ff" points="188.05,-82.21 181.24,-74.09 181.5,-84.68 188.05,-82.21"/>
</g>
<!-- Node6&#45;&gt;Node2 -->
<g id="edge8" class="edge">
<title>Node6&#45;&gt;Node2</title>
<path fill="none" stroke="#63b8ff" d="M155.19,-54.98C131.83,-46.27 95.3,-32.63 68.83,-22.75"/>
<polygon fill="#63b8ff" stroke="#63b8ff" points="69.82,-19.39 59.23,-19.17 67.37,-25.95 69.82,-19.39"/>
</g>
<!-- Node6&#45;&gt;Node4 -->
<g id="edge12" class="edge">
<title>Node6&#45;&gt;Node4</title>
<path fill="none" stroke="#63b8ff" d="M207.72,-54.98C239.33,-45.93 289.45,-31.57 324.16,-21.63"/>
<polygon fill="#63b8ff" stroke="#63b8ff" points="325.31,-24.94 333.96,-18.82 323.38,-18.21 325.31,-24.94"/>
</g>
<!-- Node7 -->
<g id="node7" class="node">
<title>Node7</title>
<g id="a_node7"><a xlink:title=" ">
<polygon fill="#e0e0e0" stroke="#999999" points="316,-19 208,-19 208,0 316,0 316,-19"/>
<text text-anchor="middle" x="262" y="-7" font-family="Helvetica,sans-Serif" font-size="10.00">SDL2/SDL_image.h</text>
</a>
</g>
</g>
<!-- Node6&#45;&gt;Node7 -->
<g id="edge9" class="edge">
<title>Node6&#45;&gt;Node7</title>
<path fill="none" stroke="#63b8ff" d="M191.5,-54.98C204.4,-46.84 224.1,-34.41 239.4,-24.76"/>
<polygon fill="#63b8ff" stroke="#63b8ff" points="241.67,-27.47 248.26,-19.17 237.93,-21.55 241.67,-27.47"/>
</g>
<!-- Node8 -->
<g id="node8" class="node">
<title>Node8</title>
<g id="a_node8"><a xlink:title=" ">
<polygon fill="#e0e0e0" stroke="#999999" points="128,-19 90,-19 90,0 128,0 128,-19"/>
<text text-anchor="middle" x="109" y="-7" font-family="Helvetica,sans-Serif" font-size="10.00">map</text>
</a>
</g>
</g>
<!-- Node6&#45;&gt;Node8 -->
<g id="edge10" class="edge">
<title>Node6&#45;&gt;Node8</title>
<path fill="none" stroke="#63b8ff" d="M166.91,-54.98C156.51,-47 140.74,-34.88 128.28,-25.31"/>
<polygon fill="#63b8ff" stroke="#63b8ff" points="130.35,-22.49 120.29,-19.17 126.09,-28.04 130.35,-22.49"/>
</g>
<!-- Node9 -->
<g id="node9" class="node">
<title>Node9</title>
<g id="a_node9"><a xlink:title=" ">
<polygon fill="#e0e0e0" stroke="#999999" points="190,-19 146,-19 146,0 190,0 190,-19"/>
<text text-anchor="middle" x="168" y="-7" font-family="Helvetica,sans-Serif" font-size="10.00">string</text>
</a>
</g>
</g>
<!-- Node6&#45;&gt;Node9 -->
<g id="edge11" class="edge">
<title>Node6&#45;&gt;Node9</title>
<path fill="none" stroke="#63b8ff" d="M176.35,-54.75C175.04,-47.8 173.16,-37.85 171.52,-29.13"/>
<polygon fill="#63b8ff" stroke="#63b8ff" points="174.91,-28.27 169.62,-19.09 168.04,-29.56 174.91,-28.27"/>
</g>
</g>
</svg>
