<?xml version="1.0" encoding="UTF-8" standalone="no"?>
<!DOCTYPE svg PUBLIC "-//W3C//DTD SVG 1.1//EN"
 "http://www.w3.org/Graphics/SVG/1.1/DTD/svg11.dtd">
<!-- Generated by graphviz version 2.43.0 (0)
 -->
<!-- Title: include/SDLComponent.h Pages: 1 -->
<svg width="292pt" height="137pt"
 viewBox="0.00 0.00 291.50 137.00" xmlns="http://www.w3.org/2000/svg" xmlns:xlink="http://www.w3.org/1999/xlink">
<g id="graph0" class="graph" transform="scale(1 1) rotate(0) translate(4 133)">
<title>include/SDLComponent.h</title>
<!-- Node1 -->
<g id="node1" class="node">
<title>Node1</title>
<g id="a_node1"><a xlink:title=" ">
<polygon fill="#999999" stroke="#666666" points="223,-129 84,-129 84,-110 223,-110 223,-129"/>
<text text-anchor="middle" x="153.5" y="-117" font-family="Helvetica,sans-Serif" font-size="10.00">include/SDLComponent.h</text>
</a>
</g>
</g>
<!-- Node2 -->
<g id="node2" class="node">
<title>Node2</title>
<g id="a_node2"><a xlink:href="BrickBreaker_8h.html" target="_top" xlink:title=" ">
<polygon fill="white" stroke="#666666" points="125,-74 0,-74 0,-55 125,-55 125,-74"/>
<text text-anchor="middle" x="62.5" y="-62" font-family="Helvetica,sans-Serif" font-size="10.00">include/BrickBreaker.h</text>
</a>
</g>
</g>
<!-- Node1&#45;&gt;Node2 -->
<g id="edge1" class="edge">
<title>Node1&#45;&gt;Node2</title>
<path fill="none" stroke="#63b8ff" d="M129.8,-104.7C113.22,-95.04 91.59,-82.44 77.39,-74.17"/>
<polygon fill="#63b8ff" stroke="#63b8ff" points="128.48,-107.98 138.88,-109.98 132,-101.93 128.48,-107.98"/>
</g>
<!-- Node3 -->
<g id="node3" class="node">
<title>Node3</title>
<g id="a_node3"><a xlink:href="BrickBreakerMenu_8h.html" target="_top" xlink:title=" ">
<polygon fill="white" stroke="#666666" points="184,-19 31,-19 31,0 184,0 184,-19"/>
<text text-anchor="middle" x="107.5" y="-7" font-family="Helvetica,sans-Serif" font-size="10.00">include/BrickBreakerMenu.h</text>
</a>
</g>
</g>
<!-- Node1&#45;&gt;Node3 -->
<g id="edge3" class="edge">
<title>Node1&#45;&gt;Node3</title>
<path fill="none" stroke="#63b8ff" d="M148.76,-99.67C145.24,-86.81 139.94,-69.55 133.5,-55 127.7,-41.91 119,-27.8 113.28,-19.06"/>
<polygon fill="#63b8ff" stroke="#63b8ff" points="145.46,-100.86 151.38,-109.65 152.23,-99.09 145.46,-100.86"/>
</g>
<!-- Node4 -->
<g id="node4" class="node">
<title>Node4</title>
<g id="a_node4"><a xlink:href="SDLApp_8h.html" target="_top" xlink:title=" ">
<polygon fill="white" stroke="#666666" points="283.5,-74 181.5,-74 181.5,-55 283.5,-55 283.5,-74"/>
<text text-anchor="middle" x="232.5" y="-62" font-family="Helvetica,sans-Serif" font-size="10.00">include/SDLApp.h</text>
</a>
</g>
</g>
<!-- Node1&#45;&gt;Node4 -->
<g id="edge4" class="edge">
<title>Node1&#45;&gt;Node4</title>
<path fill="none" stroke="#63b8ff" d="M174.89,-104.15C189.17,-94.57 207.47,-82.29 219.58,-74.17"/>
<polygon fill="#63b8ff" stroke="#63b8ff" points="172.55,-101.51 166.19,-109.98 176.45,-107.32 172.55,-101.51"/>
</g>
<!-- Node2&#45;&gt;Node3 -->
<g id="edge2" class="edge">
<title>Node2&#45;&gt;Node3</title>
<path fill="none" stroke="#63b8ff" d="M76.55,-46.96C84.39,-37.72 93.83,-26.6 100.21,-19.09"/>
<polygon fill="#63b8ff" stroke="#63b8ff" points="73.74,-44.86 69.93,-54.75 79.07,-49.39 73.74,-44.86"/>
</g>
</g>
</svg>
